RobotoCondensed-Light.ufo
<glyph name="exclam" format="1">
  <advance width="439"/>
  <unicode hex="0021"/>
  <outline>
    <contour>
      <point x="276" y="1456" type="line"/>
      <point x="160" y="1456" type="line"/>
      <point x="167" y="406" type="line"/>
      <point x="269" y="406" type="line"/>
    </contour>
    <contour>
      <point x="150" y="72" type="curve" smooth="yes"/>
      <point x="150" y="26"/>
      <point x="177" y="-9"/>
      <point x="223" y="-9" type="curve" smooth="yes"/>
      <point x="270" y="-9"/>
      <point x="297" y="26"/>
      <point x="297" y="72" type="curve" smooth="yes"/>
      <point x="297" y="117"/>
      <point x="270" y="153"/>
      <point x="223" y="153" type="curve" smooth="yes"/>
      <point x="177" y="153"/>
      <point x="150" y="117"/>
    </contour>
  </outline>
</glyph>
<glyph name="numbersign" format="1">
  <advance width="1052"/>
  <unicode hex="0023"/>
  <outline>
    <contour>
      <point x="244" y="0" type="line"/>
      <point x="334" y="0" type="line"/>
      <point x="566" y="1456" type="line"/>
      <point x="475" y="1456" type="line"/>
    </contour>
    <contour>
      <point x="590" y="0" type="line"/>
      <point x="680" y="0" type="line"/>
      <point x="913" y="1456" type="line"/>
      <point x="822" y="1456" type="line"/>
    </contour>
    <contour>
      <point x="1034" y="943" type="line"/>
      <point x="1034" y="1040" type="line"/>
      <point x="161" y="1040" type="line"/>
      <point x="161" y="943" type="line"/>
    </contour>
    <contour>
      <point x="971" y="410" type="line"/>
      <point x="971" y="506" type="line"/>
      <point x="97" y="506" type="line"/>
      <point x="97" y="410" type="line"/>
    </contour>
  </outline>
</glyph>
<glyph name="ampersand" format="2">
  <advance width="1101"/>
  <unicode hex="0026"/>
  <outline>
    <contour>
      <point x="351" y="786" type="line"/>
      <point x="214" y="665"/>
      <point x="110" y="547"/>
      <point x="110" y="372" type="curve"/>
      <point x="110" y="138"/>
      <point x="256" y="-20"/>
      <point x="493" y="-20" type="curve"/>
      <point x="625" y="-20"/>
      <point x="752" y="49"/>
      <point x="840" y="161" type="curve" smooth="yes"/>
      <point x="850" y="173"/>
      <point x="850" y="179"/>
      <point x="860" y="191" type="curve" smooth="yes"/>
      <point x="951" y="309"/>
      <point x="998" y="462"/>
      <point x="998" y="653" type="curve"/>
      <point x="896" y="653" type="line"/>
      <point x="896" y="313"/>
      <point x="699" y="84"/>
      <point x="493" y="84" type="curve" smooth="yes"/>
      <point x="308" y="84"/>
      <point x="221" y="219"/>
      <point x="221" y="372" type="curve"/>
      <point x="221" y="438"/>
      <point x="239" y="541"/>
      <point x="379" y="679" type="curve" smooth="yes"/>
      <point x="606" y="884" type="line" smooth="yes"/>
      <point x="690" y="958"/>
      <point x="770" y="1059"/>
      <point x="770" y="1190" type="curve"/>
      <point x="770" y="1346"/>
      <point x="671" y="1477"/>
      <point x="503" y="1477" type="curve" smooth="yes"/>
      <point x="330" y="1477"/>
      <point x="217" y="1349"/>
      <point x="217" y="1144" type="curve" smooth="yes"/>
      <point x="217" y="995"/>
      <point x="301" y="872"/>
      <point x="426" y="700" type="curve" smooth="yes"/>
      <point x="927" y="0" type="line"/>
      <point x="1060" y="0" type="line"/>
      <point x="468" y="826" type="line" smooth="yes"/>
      <point x="381" y="946"/>
      <point x="329" y="1052"/>
      <point x="329" y="1148" type="curve" smooth="yes"/>
      <point x="329" y="1270"/>
      <point x="389" y="1373"/>
      <point x="503" y="1373" type="curve" smooth="yes"/>
      <point x="608" y="1373"/>
      <point x="666" y="1284"/>
      <point x="666" y="1190" type="curve"/>
      <point x="666" y="1091"/>
      <point x="616" y="1023"/>
      <point x="545" y="961" type="curve"/>
    </contour>
  </outline>
</glyph>
<glyph name="quotesingle" format="1">
  <advance width="349"/>
  <unicode hex="0027"/>
  <outline>
    <contour>
      <point x="227" y="1536" type="line"/>
      <point x="125" y="1536" type="line"/>
      <point x="125" y="1388" type="line"/>
      <point x="120" y="1089" type="line"/>
      <point x="209" y="1089" type="line"/>
      <point x="227" y="1397" type="line"/>
    </contour>
  </outline>
</glyph>
<glyph name="parenleft" format="1">
  <advance width="597"/>
  <unicode hex="0028"/>
  <outline>
    <contour>
      <point x="137" y="574" type="line"/>
      <point x="137" y="38"/>
      <point x="352" y="-347"/>
      <point x="523" y="-470" type="curve"/>
      <point x="549" y="-392" type="line"/>
      <point x="403" y="-262"/>
      <point x="248" y="102"/>
      <point x="248" y="572" type="curve"/>
      <point x="248" y="592" type="line" smooth="yes"/>
      <point x="248" y="1062"/>
      <point x="403" y="1426"/>
      <point x="549" y="1550" type="curve"/>
      <point x="523" y="1633" type="line"/>
      <point x="352" y="1511"/>
      <point x="137" y="1111"/>
      <point x="137" y="589" type="curve"/>
    </contour>
  </outline>
</glyph>
<glyph name="parenright" format="1">
  <advance width="608"/>
  <unicode hex="0029"/>
  <outline>
    <contour>
      <point x="460" y="589" type="line"/>
      <point x="460" y="1111"/>
      <point x="245" y="1511"/>
      <point x="75" y="1633" type="curve"/>
      <point x="49" y="1555" type="line"/>
      <point x="187" y="1431"/>
      <point x="349" y="1062"/>
      <point x="349" y="592" type="curve" smooth="yes"/>
      <point x="349" y="572" type="line"/>
      <point x="349" y="102"/>
      <point x="195" y="-267"/>
      <point x="49" y="-392" type="curve"/>
      <point x="75" y="-470" type="line"/>
      <point x="245" y="-347"/>
      <point x="460" y="38"/>
      <point x="460" y="574" type="curve"/>
    </contour>
  </outline>
</glyph>
<glyph name="asterisk" format="1">
  <advance width="869"/>
  <unicode hex="002A"/>
  <outline>
    <contour>
      <point x="144" y="701" type="line"/>
      <point x="229" y="638" type="line"/>
      <point x="433" y="941" type="line"/>
      <point x="647" y="636" type="line"/>
      <point x="733" y="700" type="line"/>
      <point x="509" y="994" type="line"/>
      <point x="843" y="1107" type="line"/>
      <point x="810" y="1211" type="line"/>
      <point x="485" y="1085" type="line"/>
      <point x="494" y="1456" type="line"/>
      <point x="389" y="1456" type="line"/>
      <point x="393" y="1088" type="line"/>
      <point x="62" y="1210" type="line"/>
      <point x="29" y="1107" type="line"/>
      <point x="362" y="1000" type="line"/>
    </contour>
  </outline>
</glyph>
<glyph name="comma" format="1">
  <advance width="393"/>
  <unicode hex="002C"/>
  <outline>
    <contour>
      <point x="272" y="190" type="line"/>
      <point x="154" y="190" type="line"/>
      <point x="154" y="47" type="line"/>
      <point x="154" y="-59"/>
      <point x="122" y="-137"/>
      <point x="61" y="-221" type="curve"/>
      <point x="132" y="-273" type="line"/>
      <point x="219" y="-194"/>
      <point x="272" y="-73"/>
      <point x="272" y="50" type="curve"/>
    </contour>
    <contour>
      <point x="258" y="219" type="move" name="_bottom"/>
    </contour>
    <contour>
      <point x="155" y="47" type="move" name="_right"/>
    </contour>
  </outline>
</glyph>
<glyph name="slash" format="2">
  <advance width="728"/>
  <unicode hex="002F"/>
  <guideline x="0.0" y="901.0" angle="0.0" identifier="f9wkjA5o2w"/>
  <guideline x="0.0" y="555.0" angle="0.0" identifier="5ATSpB5daS"/>
  <outline>
    <contour>
      <point x="653" y="1456" type="line"/>
      <point x="554" y="1456" type="line"/>
      <point x="44" y="-125" type="line"/>
      <point x="143" y="-125" type="line"/>
    </contour>
  </outline>
</glyph>
<glyph name="zero" format="1">
  <advance width="996"/>
  <unicode hex="0030"/>
  <outline>
    <contour>
      <point x="876" y="853" type="line"/>
      <point x="876" y="1282"/>
      <point x="734" y="1477"/>
      <point x="498" y="1477" type="curve" smooth="yes"/>
      <point x="263" y="1477"/>
      <point x="120" y="1282"/>
      <point x="120" y="853" type="curve"/>
      <point x="120" y="608" type="line"/>
      <point x="120" y="179"/>
      <point x="265" y="-20"/>
      <point x="499" y="-20" type="curve" smooth="yes"/>
      <point x="736" y="-20"/>
      <point x="876" y="179"/>
      <point x="876" y="608" type="curve"/>
    </contour>
    <contour>
      <point x="765" y="594" type="line"/>
      <point x="765" y="267"/>
      <point x="677" y="84"/>
      <point x="499" y="84" type="curve" smooth="yes"/>
      <point x="323" y="84"/>
      <point x="231" y="267"/>
      <point x="231" y="594" type="curve" smooth="yes"/>
      <point x="231" y="869" type="line" smooth="yes"/>
      <point x="231" y="1200"/>
      <point x="322" y="1373"/>
      <point x="498" y="1373" type="curve" smooth="yes"/>
      <point x="675" y="1373"/>
      <point x="765" y="1200"/>
      <point x="765" y="869" type="curve"/>
    </contour>
  </outline>
</glyph>
<glyph name="one" format="1">
  <advance width="996"/>
  <unicode hex="0031"/>
  <outline>
    <contour>
      <point x="609" y="1462" type="line"/>
      <point x="590" y="1462" type="line"/>
      <point x="169" y="1277" type="line"/>
      <point x="169" y="1162" type="line"/>
      <point x="498" y="1309" type="line"/>
      <point x="498" y="0" type="line"/>
      <point x="609" y="0" type="line"/>
    </contour>
  </outline>
</glyph>
<glyph name="three" format="2">
  <advance width="996"/>
  <unicode hex="0033"/>
  <guideline x="0.0" y="1658.0" angle="0.0" identifier="jakbIBbigv"/>
  <guideline x="0.0" y="555.0" angle="0.0" identifier="qEjOmGGeTJ"/>
  <outline>
    <contour>
      <point x="357" y="795" type="line"/>
      <point x="357" y="713" type="line"/>
      <point x="475" y="713" type="line" smooth="yes"/>
      <point x="724" y="713"/>
      <point x="849" y="899"/>
      <point x="849" y="1073" type="curve" smooth="yes"/>
      <point x="849" y="1331"/>
      <point x="706" y="1476"/>
      <point x="490" y="1476" type="curve" smooth="yes"/>
      <point x="276" y="1476"/>
      <point x="119" y="1310"/>
      <point x="119" y="1074" type="curve"/>
      <point x="230" y="1074" type="line"/>
      <point x="230" y="1258"/>
      <point x="340" y="1372"/>
      <point x="490" y="1372" type="curve" smooth="yes"/>
      <point x="659" y="1372"/>
      <point x="738" y="1251"/>
      <point x="738" y="1077" type="curve" smooth="yes"/>
      <point x="738" y="921"/>
      <point x="644" y="795"/>
      <point x="461" y="795" type="curve" smooth="yes"/>
    </contour>
    <contour>
      <point x="357" y="690" type="line"/>
      <point x="461" y="690" type="line" smooth="yes"/>
      <point x="639" y="690"/>
      <point x="760" y="601"/>
      <point x="760" y="392" type="curve" smooth="yes"/>
      <point x="760" y="193"/>
      <point x="661" y="84"/>
      <point x="493" y="84" type="curve" smooth="yes"/>
      <point x="327" y="84"/>
      <point x="214" y="211"/>
      <point x="214" y="395" type="curve"/>
      <point x="102" y="395" type="line"/>
      <point x="102" y="119"/>
      <point x="292" y="-20"/>
      <point x="493" y="-20" type="curve" smooth="yes"/>
      <point x="710" y="-20"/>
      <point x="871" y="131"/>
      <point x="871" y="396" type="curve" smooth="yes"/>
      <point x="871" y="604"/>
      <point x="760" y="771"/>
      <point x="475" y="771" type="curve" smooth="yes"/>
      <point x="357" y="771" type="line"/>
    </contour>
  </outline>
</glyph>
<glyph name="four" format="1">
  <advance width="996"/>
  <unicode hex="0034"/>
  <outline>
    <contour>
      <point x="944" y="471" type="line"/>
      <point x="208" y="471" type="line"/>
      <point x="606" y="1207" type="line"/>
      <point x="729" y="1456" type="line"/>
      <point x="637" y="1456" type="line"/>
      <point x="74" y="437" type="line"/>
      <point x="74" y="367" type="line"/>
      <point x="944" y="367" type="line"/>
    </contour>
    <contour>
      <point x="757" y="1456" type="line"/>
      <point x="646" y="1456" type="line"/>
      <point x="646" y="0" type="line"/>
      <point x="757" y="0" type="line"/>
    </contour>
  </outline>
</glyph>
<glyph name="seven" format="2">
  <advance width="996"/>
  <unicode hex="0037"/>
  <outline>
    <contour>
      <point x="893" y="1456" type="line"/>
      <point x="85" y="1456" type="line"/>
      <point x="85" y="1352" type="line"/>
      <point x="774" y="1352" type="line"/>
      <point x="258" y="0" type="line"/>
      <point x="374" y="0" type="line"/>
      <point x="893" y="1386" type="line"/>
    </contour>
  </outline>
</glyph>
<glyph name="eight" format="2">
  <advance width="996"/>
  <unicode hex="0038"/>
  <guideline x="0.0" y="901.0" angle="0.0" identifier="1rAGq30ktp"/>
  <guideline x="0.0" y="555.0" angle="0.0" identifier="CPT5ztoVtW"/>
  <outline>
    <contour>
      <point x="889" y="387" type="curve" smooth="yes"/>
      <point x="889" y="616"/>
      <point x="720" y="779"/>
      <point x="498" y="779" type="curve" smooth="yes"/>
      <point x="274" y="779"/>
      <point x="110" y="616"/>
      <point x="110" y="387" type="curve" smooth="yes"/>
      <point x="110" y="121"/>
      <point x="280" y="-20"/>
      <point x="500" y="-20" type="curve" smooth="yes"/>
      <point x="718" y="-20"/>
      <point x="889" y="121"/>
    </contour>
    <contour>
      <point x="777" y="386" type="curve" smooth="yes"/>
      <point x="777" y="193"/>
      <point x="663" y="84"/>
      <point x="500" y="84" type="curve" smooth="yes"/>
      <point x="335" y="84"/>
      <point x="221" y="193"/>
      <point x="221" y="386" type="curve" smooth="yes"/>
      <point x="221" y="572"/>
      <point x="335" y="695"/>
      <point x="498" y="695" type="curve" smooth="yes"/>
      <point x="658" y="695"/>
      <point x="777" y="572"/>
    </contour>
    <contour>
      <point x="858" y="1081" type="curve" smooth="yes"/>
      <point x="858" y="1335"/>
      <point x="703" y="1476"/>
      <point x="498" y="1476" type="curve" smooth="yes"/>
      <point x="293" y="1476"/>
      <point x="141" y="1335"/>
      <point x="141" y="1081" type="curve" smooth="yes"/>
      <point x="141" y="867"/>
      <point x="292" y="713"/>
      <point x="499" y="713" type="curve" smooth="yes"/>
      <point x="702" y="713"/>
      <point x="858" y="867"/>
    </contour>
    <contour>
      <point x="747" y="1082" type="curve" smooth="yes"/>
      <point x="747" y="909"/>
      <point x="642" y="799"/>
      <point x="499" y="799" type="curve" smooth="yes"/>
      <point x="354" y="799"/>
      <point x="252" y="909"/>
      <point x="252" y="1082" type="curve" smooth="yes"/>
      <point x="252" y="1261"/>
      <point x="355" y="1372"/>
      <point x="498" y="1372" type="curve" smooth="yes"/>
      <point x="640" y="1372"/>
      <point x="747" y="1251"/>
    </contour>
  </outline>
</glyph>
<glyph name="nine" format="1">
  <advance width="996"/>
  <unicode hex="0039"/>
  <outline>
    <contour>
      <point x="275" y="96" type="line"/>
      <point x="274" y="-11" type="line"/>
      <point x="295" y="-11" type="line" smooth="yes"/>
      <point x="749" y="-11"/>
      <point x="866" y="351"/>
      <point x="866" y="781" type="curve" smooth="yes"/>
      <point x="866" y="895" type="line" smooth="yes"/>
      <point x="866" y="1233"/>
      <point x="742" y="1476"/>
      <point x="476" y="1476" type="curve" smooth="yes"/>
      <point x="241" y="1476"/>
      <point x="105" y="1245"/>
      <point x="105" y="966" type="curve" smooth="yes"/>
      <point x="105" y="716"/>
      <point x="224" y="478"/>
      <point x="456" y="478" type="curve" smooth="yes"/>
      <point x="666" y="478"/>
      <point x="827" y="691"/>
      <point x="827" y="935" type="curve"/>
      <point x="772" y="934" type="line"/>
      <point x="767" y="780"/>
      <point x="652" y="583"/>
      <point x="471" y="583" type="curve" smooth="yes"/>
      <point x="303" y="583"/>
      <point x="214" y="773"/>
      <point x="214" y="971" type="curve" smooth="yes"/>
      <point x="214" y="1185"/>
      <point x="313" y="1371"/>
      <point x="478" y="1371" type="curve" smooth="yes"/>
      <point x="638" y="1371"/>
      <point x="755" y="1212"/>
      <point x="755" y="907" type="curve"/>
      <point x="755" y="703" type="line"/>
      <point x="755" y="360"/>
      <point x="650" y="96"/>
      <point x="295" y="96" type="curve" smooth="yes"/>
    </contour>
  </outline>
</glyph>
<glyph name="less" format="1">
  <advance width="919"/>
  <unicode hex="003C"/>
  <outline>
    <contour>
      <point x="159" y="677" type="line"/>
      <point x="84" y="687" type="line"/>
      <point x="84" y="607" type="line"/>
      <point x="778" y="228" type="line"/>
      <point x="778" y="357" type="line"/>
    </contour>
    <contour>
      <point x="778" y="956" type="line"/>
      <point x="778" y="1084" type="line"/>
      <point x="84" y="706" type="line"/>
      <point x="84" y="626" type="line"/>
      <point x="160" y="633" type="line"/>
    </contour>
  </outline>
</glyph>
<glyph name="greater" format="1">
  <advance width="934"/>
  <unicode hex="003E"/>
  <outline>
    <contour>
      <point x="754" y="641" type="line"/>
      <point x="837" y="628" type="line"/>
      <point x="837" y="708" type="line"/>
      <point x="126" y="1086" type="line"/>
      <point x="126" y="960" type="line"/>
    </contour>
    <contour>
      <point x="126" y="357" type="line"/>
      <point x="126" y="230" type="line"/>
      <point x="837" y="609" type="line"/>
      <point x="837" y="690" type="line"/>
      <point x="755" y="680" type="line"/>
    </contour>
  </outline>
</glyph>
<glyph name="A" format="1">
  <advance width="1124"/>
  <unicode hex="0041"/>
  <outline>
    <contour>
      <point x="564" y="1606" type="move" name="top"/>
    </contour>
    <contour>
      <point x="580" y="0" type="move" name="bottom"/>
    </contour>
    <contour>
      <point x="1077" y="0" type="move" name="right"/>
    </contour>
    <contour>
      <point x="296" y="1454" type="move" name="tonos"/>
    </contour>
    <contour>
      <point x="1060" y="0" type="move" name="ogonek"/>
    </contour>
    <contour>
      <point x="1104" y="1600" type="move" name="top_dd"/>
    </contour>
    <contour>
      <point x="1104" y="-407" type="move" name="bottom_dd"/>
    </contour>
    <contour>
      <point x="1104" y="1606" type="move" name="top0315"/>
    </contour>
    <contour>
      <point x="584" y="1368" type="line"/>
      <point x="590" y="1456" type="line"/>
      <point x="509" y="1456" type="line"/>
      <point x="45" y="0" type="line"/>
      <point x="164" y="0" type="line"/>
    </contour>
    <contour>
      <point x="960" y="0" type="line"/>
      <point x="1079" y="0" type="line"/>
      <point x="615" y="1456" type="line"/>
      <point x="535" y="1456" type="line"/>
      <point x="540" y="1368" type="line"/>
    </contour>
    <contour>
      <point x="895" y="514" type="line"/>
      <point x="238" y="514" type="line"/>
      <point x="238" y="407" type="line"/>
      <point x="895" y="407" type="line"/>
    </contour>
  </outline>
</glyph>
<glyph name="B" format="1">
  <advance width="1098"/>
  <unicode hex="0042"/>
  <outline>
    <contour>
      <point x="597" y="700" type="line"/>
      <point x="660" y="738" type="line"/>
      <point x="832" y="760"/>
      <point x="941" y="895"/>
      <point x="941" y="1075" type="curve"/>
      <point x="941" y="1340"/>
      <point x="790" y="1456"/>
      <point x="541" y="1456" type="curve"/>
      <point x="173" y="1456" type="line"/>
      <point x="173" y="0" type="line"/>
      <point x="287" y="0" type="line"/>
      <point x="287" y="1349" type="line"/>
      <point x="541" y="1349" type="line"/>
      <point x="731" y="1349"/>
      <point x="826" y="1262"/>
      <point x="826" y="1078" type="curve"/>
      <point x="826" y="899"/>
      <point x="724" y="805"/>
      <point x="551" y="805" type="curve"/>
      <point x="257" y="805" type="line"/>
      <point x="259" y="700" type="line"/>
    </contour>
    <contour>
      <point x="589" y="0" type="line"/>
      <point x="824" y="0"/>
      <point x="983" y="145"/>
      <point x="983" y="411" type="curve" smooth="yes"/>
      <point x="983" y="594"/>
      <point x="875" y="747"/>
      <point x="708" y="767" type="curve"/>
      <point x="686" y="805" type="line"/>
      <point x="381" y="805" type="line"/>
      <point x="379" y="700" type="line"/>
      <point x="597" y="700" type="line" smooth="yes"/>
      <point x="782" y="700"/>
      <point x="868" y="573"/>
      <point x="868" y="409" type="curve" smooth="yes"/>
      <point x="868" y="221"/>
      <point x="764" y="107"/>
      <point x="589" y="107" type="curve" smooth="yes"/>
      <point x="281" y="107" type="line"/>
      <point x="220" y="0" type="line"/>
    </contour>
    <contour>
      <point x="513" y="1612" type="move" name="top"/>
    </contour>
    <contour>
      <point x="517" y="10" type="move" name="bottom"/>
    </contour>
    <contour>
      <point x="1078" y="1600" type="move" name="top_dd"/>
    </contour>
    <contour>
      <point x="1078" y="-407" type="move" name="bottom_dd"/>
    </contour>
    <contour>
      <point x="1078" y="1612" type="move" name="top0315"/>
    </contour>
    <contour>
      <point x="513" y="1612" type="move" name="parent_top"/>
    </contour>
  </outline>
</glyph>
<glyph name="C" format="1">
  <advance width="1158"/>
  <unicode hex="0043"/>
  <outline>
    <contour>
      <point x="930" y="454" type="line"/>
      <point x="908" y="176"/>
      <point x="807" y="86"/>
      <point x="592" y="86" type="curve" smooth="yes"/>
      <point x="367" y="86"/>
      <point x="252" y="280"/>
      <point x="252" y="577" type="curve" smooth="yes"/>
      <point x="252" y="891" type="line" smooth="yes"/>
      <point x="252" y="1191"/>
      <point x="376" y="1369"/>
      <point x="601" y="1369" type="curve" smooth="yes"/>
      <point x="807" y="1369"/>
      <point x="910" y="1267"/>
      <point x="930" y="1000" type="curve"/>
      <point x="1045" y="1000" type="line"/>
      <point x="1025" y="1331"/>
      <point x="865" y="1476"/>
      <point x="601" y="1476" type="curve" smooth="yes"/>
      <point x="312" y="1476"/>
      <point x="137" y="1254"/>
      <point x="137" y="889" type="curve"/>
      <point x="137" y="577" type="line"/>
      <point x="137" y="205"/>
      <point x="312" y="-21"/>
      <point x="592" y="-21" type="curve" smooth="yes"/>
      <point x="866" y="-21"/>
      <point x="1025" y="128"/>
      <point x="1045" y="454" type="curve"/>
    </contour>
    <contour>
      <point x="590" y="1633" type="move" name="top"/>
    </contour>
    <contour>
      <point x="590" y="-10" type="move" name="bottom"/>
    </contour>
    <contour>
      <point x="1138" y="1600" type="move" name="top_dd"/>
    </contour>
    <contour>
      <point x="1138" y="-407" type="move" name="bottom_dd"/>
    </contour>
    <contour>
      <point x="1138" y="1633" type="move" name="top0315"/>
    </contour>
  </outline>
</glyph>
<glyph name="D" format="1">
  <advance width="1167"/>
  <unicode hex="0044"/>
  <outline>
    <contour>
      <point x="525" y="1612" type="move" name="top"/>
    </contour>
    <contour>
      <point x="303" y="738" type="move" name="cross"/>
    </contour>
    <contour>
      <point x="527" y="10" type="move" name="bottom"/>
    </contour>
    <contour>
      <point x="1147" y="1600" type="move" name="top_dd"/>
    </contour>
    <contour>
      <point x="1147" y="-407" type="move" name="bottom_dd"/>
    </contour>
    <contour>
      <point x="1147" y="1612" type="move" name="top0315"/>
    </contour>
    <contour>
      <point x="507" y="0" type="line"/>
      <point x="825" y="0"/>
      <point x="1032" y="205"/>
      <point x="1032" y="582" type="curve"/>
      <point x="1032" y="874" type="line"/>
      <point x="1032" y="1250"/>
      <point x="824" y="1456"/>
      <point x="515" y="1456" type="curve"/>
      <point x="229" y="1456" type="line"/>
      <point x="229" y="1349" type="line"/>
      <point x="515" y="1349" type="line"/>
      <point x="766" y="1349"/>
      <point x="919" y="1187"/>
      <point x="919" y="876" type="curve"/>
      <point x="919" y="582" type="line" smooth="yes"/>
      <point x="919" y="276"/>
      <point x="769" y="107"/>
      <point x="507" y="107" type="curve"/>
      <point x="235" y="107" type="line"/>
      <point x="234" y="0" type="line"/>
    </contour>
    <contour>
      <point x="287" y="1456" type="line"/>
      <point x="173" y="1456" type="line"/>
      <point x="173" y="0" type="line"/>
      <point x="287" y="0" type="line"/>
    </contour>
  </outline>
</glyph>
<glyph name="E" format="1">
  <advance width="1019"/>
  <unicode hex="0045"/>
  <outline>
    <contour>
      <point x="936" y="107" type="line"/>
      <point x="256" y="107" type="line"/>
      <point x="256" y="0" type="line"/>
      <point x="936" y="0" type="line"/>
    </contour>
    <contour>
      <point x="287" y="1456" type="line"/>
      <point x="173" y="1456" type="line"/>
      <point x="173" y="0" type="line"/>
      <point x="287" y="0" type="line"/>
    </contour>
    <contour>
      <point x="851" y="804" type="line"/>
      <point x="256" y="804" type="line"/>
      <point x="256" y="697" type="line"/>
      <point x="851" y="697" type="line"/>
    </contour>
    <contour>
      <point x="931" y="1456" type="line"/>
      <point x="256" y="1456" type="line"/>
      <point x="256" y="1349" type="line"/>
      <point x="931" y="1349" type="line"/>
    </contour>
    <contour>
      <point x="540" y="1612" type="move" name="top"/>
    </contour>
    <contour>
      <point x="540" y="10" type="move" name="bottom"/>
    </contour>
    <contour>
      <point x="999" y="1600" type="move" name="top_dd"/>
    </contour>
    <contour>
      <point x="999" y="-407" type="move" name="bottom_dd"/>
    </contour>
    <contour>
      <point x="999" y="1612" type="move" name="top0315"/>
    </contour>
    <contour>
      <point x="540" y="1612" type="move" name="parent_top"/>
    </contour>
  </outline>
</glyph>
<glyph name="F" format="1">
  <advance width="1005"/>
  <unicode hex="0046"/>
  <outline>
    <contour>
      <point x="287" y="1456" type="line"/>
      <point x="173" y="1456" type="line"/>
      <point x="173" y="0" type="line"/>
      <point x="287" y="0" type="line"/>
    </contour>
    <contour>
      <point x="846" y="787" type="line"/>
      <point x="253" y="787" type="line"/>
      <point x="253" y="679" type="line"/>
      <point x="846" y="679" type="line"/>
    </contour>
    <contour>
      <point x="930" y="1456" type="line"/>
      <point x="253" y="1456" type="line"/>
      <point x="253" y="1349" type="line"/>
      <point x="930" y="1349" type="line"/>
    </contour>
    <contour>
      <point x="540" y="1612" type="move" name="top"/>
    </contour>
    <contour>
      <point x="466" y="10" type="move" name="bottom"/>
    </contour>
    <contour>
      <point x="985" y="1600" type="move" name="top_dd"/>
    </contour>
    <contour>
      <point x="985" y="-407" type="move" name="bottom_dd"/>
    </contour>
    <contour>
      <point x="985" y="1612" type="move" name="top0315"/>
    </contour>
    <contour>
      <point x="540" y="1612" type="move" name="parent_top"/>
    </contour>
  </outline>
</glyph>
<glyph name="G" format="1">
  <advance width="1216"/>
  <unicode hex="0047"/>
  <outline>
    <contour>
      <point x="1059" y="693" type="line"/>
      <point x="625" y="693" type="line"/>
      <point x="625" y="587" type="line"/>
      <point x="945" y="587" type="line"/>
      <point x="945" y="208" type="line"/>
      <point x="910" y="172"/>
      <point x="817" y="86"/>
      <point x="633" y="86" type="curve" smooth="yes"/>
      <point x="404" y="86"/>
      <point x="262" y="252"/>
      <point x="262" y="566" type="curve" smooth="yes"/>
      <point x="262" y="903" type="line" smooth="yes"/>
      <point x="262" y="1206"/>
      <point x="380" y="1369"/>
      <point x="616" y="1369" type="curve" smooth="yes"/>
      <point x="831" y="1369"/>
      <point x="924" y="1247"/>
      <point x="944" y="1046" type="curve"/>
      <point x="1059" y="1046" type="line"/>
      <point x="1040" y="1319"/>
      <point x="889" y="1476"/>
      <point x="616" y="1476" type="curve" smooth="yes"/>
      <point x="319" y="1476"/>
      <point x="147" y="1277"/>
      <point x="147" y="901" type="curve" smooth="yes"/>
      <point x="147" y="566" type="line" smooth="yes"/>
      <point x="147" y="183"/>
      <point x="343" y="-21"/>
      <point x="633" y="-21" type="curve" smooth="yes"/>
      <point x="893" y="-21"/>
      <point x="1016" y="111"/>
      <point x="1059" y="169" type="curve"/>
    </contour>
    <contour>
      <point x="595" y="1633" type="move" name="top"/>
    </contour>
    <contour>
      <point x="633" y="-5" type="move" name="bottom"/>
    </contour>
    <contour>
      <point x="1196" y="1600" type="move" name="top_dd"/>
    </contour>
    <contour>
      <point x="1196" y="-407" type="move" name="bottom_dd"/>
    </contour>
    <contour>
      <point x="1196" y="1633" type="move" name="top0315"/>
    </contour>
    <contour>
      <point x="595" y="1633" type="move" name="parent_top"/>
    </contour>
  </outline>
</glyph>
<glyph name="H" format="1">
  <advance width="1259"/>
  <unicode hex="0048"/>
  <outline>
    <contour>
      <point x="990" y="804" type="line"/>
      <point x="263" y="804" type="line"/>
      <point x="263" y="697" type="line"/>
      <point x="990" y="697" type="line"/>
    </contour>
    <contour>
      <point x="287" y="1456" type="line"/>
      <point x="173" y="1456" type="line"/>
      <point x="173" y="0" type="line"/>
      <point x="287" y="0" type="line"/>
    </contour>
    <contour>
      <point x="1085" y="1456" type="line"/>
      <point x="970" y="1456" type="line"/>
      <point x="970" y="0" type="line"/>
      <point x="1085" y="0" type="line"/>
    </contour>
    <contour>
      <point x="620" y="1612" type="move" name="top"/>
    </contour>
    <contour>
      <point x="621" y="10" type="move" name="bottom"/>
    </contour>
    <contour>
      <point x="1239" y="1600" type="move" name="top_dd"/>
    </contour>
    <contour>
      <point x="1239" y="-407" type="move" name="bottom_dd"/>
    </contour>
    <contour>
      <point x="1239" y="1612" type="move" name="top0315"/>
    </contour>
    <contour>
      <point x="620" y="1612" type="move" name="parent_top"/>
    </contour>
  </outline>
</glyph>
<glyph name="I" format="1">
  <advance width="500"/>
  <unicode hex="0049"/>
  <outline>
    <contour>
      <point x="308" y="1456" type="line"/>
      <point x="193" y="1456" type="line"/>
      <point x="193" y="0" type="line"/>
      <point x="308" y="0" type="line"/>
    </contour>
    <contour>
      <point x="251" y="1612" type="move" name="top"/>
    </contour>
    <contour>
      <point x="251" y="5" type="move" name="bottom"/>
    </contour>
    <contour>
      <point x="-2" y="1454" type="move" name="tonos"/>
    </contour>
    <contour>
      <point x="306" y="0" type="move" name="right"/>
    </contour>
    <contour>
      <point x="288" y="0" type="move" name="ogonek"/>
    </contour>
    <contour>
      <point x="480" y="1600" type="move" name="top_dd"/>
    </contour>
    <contour>
      <point x="480" y="-407" type="move" name="bottom_dd"/>
    </contour>
    <contour>
      <point x="480" y="1612" type="move" name="top0315"/>
    </contour>
  </outline>
</glyph>
<glyph name="J" format="1">
  <advance width="988"/>
  <unicode hex="004A"/>
  <outline>
    <contour>
      <point x="708" y="434" type="line"/>
      <point x="708" y="205"/>
      <point x="594" y="87"/>
      <point x="450" y="87" type="curve" smooth="yes"/>
      <point x="289" y="87"/>
      <point x="192" y="193"/>
      <point x="192" y="402" type="curve"/>
      <point x="77" y="402" type="line"/>
      <point x="77" y="116"/>
      <point x="228" y="-20"/>
      <point x="450" y="-20" type="curve" smooth="yes"/>
      <point x="664" y="-20"/>
      <point x="822" y="140"/>
      <point x="822" y="434" type="curve"/>
      <point x="822" y="1456" type="line"/>
      <point x="708" y="1456" type="line"/>
    </contour>
    <contour>
      <point x="752" y="1591" type="move" name="top"/>
    </contour>
    <contour>
      <point x="450" y="-10" type="move" name="bottom"/>
    </contour>
    <contour>
      <point x="968" y="1600" type="move" name="top_dd"/>
    </contour>
    <contour>
      <point x="968" y="-407" type="move" name="bottom_dd"/>
    </contour>
    <contour>
      <point x="968" y="1591" type="move" name="top0315"/>
    </contour>
  </outline>
</glyph>
<glyph name="K" format="1">
  <advance width="1124"/>
  <unicode hex="004B"/>
  <outline>
    <contour>
      <point x="287" y="1456" type="line"/>
      <point x="173" y="1456" type="line"/>
      <point x="173" y="0" type="line"/>
      <point x="287" y="0" type="line"/>
    </contour>
    <contour>
      <point x="1040" y="1456" type="line"/>
      <point x="898" y="1456" type="line"/>
      <point x="447" y="880" type="line"/>
      <point x="234" y="616" type="line"/>
      <point x="247" y="476" type="line"/>
      <point x="516" y="789" type="line"/>
    </contour>
    <contour>
      <point x="941" y="0" type="line"/>
      <point x="1080" y="0" type="line"/>
      <point x="506" y="848" type="line"/>
      <point x="438" y="746" type="line"/>
    </contour>
    <contour>
      <point x="562" y="100" type="move" name="bottom"/>
    </contour>
    <contour>
      <point x="1033" y="-16" type="move" name="right"/>
    </contour>
    <contour>
      <point x="251" y="1229" type="move" name="cross"/>
    </contour>
    <contour>
      <point x="527" y="1560" type="move" name="top"/>
    </contour>
    <contour>
      <point x="1104" y="1600" type="move" name="top_dd"/>
    </contour>
    <contour>
      <point x="1104" y="-407" type="move" name="bottom_dd"/>
    </contour>
    <contour>
      <point x="1104" y="1560" type="move" name="top0315"/>
    </contour>
  </outline>
</glyph>
<glyph name="L" format="1">
  <advance width="951"/>
  <unicode hex="004C"/>
  <outline>
    <contour>
      <point x="887" y="107" type="line"/>
      <point x="257" y="107" type="line"/>
      <point x="257" y="0" type="line"/>
      <point x="887" y="0" type="line"/>
    </contour>
    <contour>
      <point x="288" y="1456" type="line"/>
      <point x="173" y="1456" type="line"/>
      <point x="173" y="0" type="line"/>
      <point x="288" y="0" type="line"/>
    </contour>
    <contour>
      <point x="231" y="1573" type="move" name="top"/>
    </contour>
    <contour>
      <point x="542" y="10" type="move" name="bottom"/>
    </contour>
    <contour>
      <point x="515" y="1455" type="move" name="caron"/>
    </contour>
    <contour>
      <point x="524" y="773" type="move" name="dot"/>
    </contour>
    <contour>
      <point x="931" y="1600" type="move" name="top_dd"/>
    </contour>
    <contour>
      <point x="931" y="-407" type="move" name="bottom_dd"/>
    </contour>
    <contour>
      <point x="931" y="1573" type="move" name="top0315"/>
    </contour>
  </outline>
</glyph>
<glyph name="M" format="1">
  <advance width="1531"/>
  <unicode hex="004D"/>
  <outline>
    <contour>
      <point x="208" y="1456" type="line"/>
      <point x="721" y="0" type="line"/>
      <point x="809" y="0" type="line"/>
      <point x="1321" y="1456" type="line"/>
      <point x="1207" y="1456" type="line"/>
      <point x="765" y="176" type="line"/>
      <point x="323" y="1456" type="line"/>
    </contour>
    <contour>
      <point x="173" y="1456" type="line"/>
      <point x="173" y="0" type="line"/>
      <point x="287" y="0" type="line"/>
      <point x="287" y="634" type="line"/>
      <point x="273" y="1456" type="line"/>
    </contour>
    <contour>
      <point x="1257" y="1456" type="line"/>
      <point x="1244" y="634" type="line"/>
      <point x="1244" y="0" type="line"/>
      <point x="1358" y="0" type="line"/>
      <point x="1358" y="1456" type="line"/>
    </contour>
    <contour>
      <point x="768" y="1606" type="move" name="top"/>
    </contour>
    <contour>
      <point x="1351" y="0" type="move" name="right"/>
    </contour>
    <contour>
      <point x="766" y="10" type="move" name="bottom"/>
    </contour>
    <contour>
      <point x="1511" y="1600" type="move" name="top_dd"/>
    </contour>
    <contour>
      <point x="1511" y="-407" type="move" name="bottom_dd"/>
    </contour>
    <contour>
      <point x="1511" y="1606" type="move" name="top0315"/>
    </contour>
  </outline>
</glyph>
<glyph name="N" format="1">
  <advance width="1263"/>
  <unicode hex="004E"/>
  <outline>
    <contour>
      <point x="1089" y="1456" type="line"/>
      <point x="975" y="1456" type="line"/>
      <point x="975" y="215" type="line"/>
      <point x="288" y="1456" type="line"/>
      <point x="173" y="1456" type="line"/>
      <point x="173" y="0" type="line"/>
      <point x="288" y="0" type="line"/>
      <point x="288" y="1241" type="line"/>
      <point x="974" y="0" type="line"/>
      <point x="1089" y="0" type="line"/>
    </contour>
    <contour>
      <point x="630" y="1606" type="move" name="top"/>
    </contour>
    <contour>
      <point x="627" y="10" type="move" name="bottom"/>
    </contour>
    <contour>
      <point x="1089" y="0" type="move" name="right"/>
    </contour>
    <contour>
      <point x="1243" y="1600" type="move" name="top_dd"/>
    </contour>
    <contour>
      <point x="1243" y="-407" type="move" name="bottom_dd"/>
    </contour>
    <contour>
      <point x="1243" y="1606" type="move" name="top0315"/>
    </contour>
  </outline>
</glyph>
<glyph name="O" format="1">
  <advance width="1208"/>
  <unicode hex="004F"/>
  <outline>
    <contour>
      <point x="1075" y="885" type="line"/>
      <point x="1075" y="1269"/>
      <point x="895" y="1476"/>
      <point x="603" y="1476" type="curve" smooth="yes"/>
      <point x="317" y="1476"/>
      <point x="133" y="1269"/>
      <point x="133" y="885" type="curve"/>
      <point x="133" y="570" type="line"/>
      <point x="133" y="186"/>
      <point x="319" y="-21"/>
      <point x="605" y="-21" type="curve" smooth="yes"/>
      <point x="896" y="-21"/>
      <point x="1075" y="186"/>
      <point x="1075" y="570" type="curve"/>
    </contour>
    <contour>
      <point x="961" y="570" type="line"/>
      <point x="961" y="250"/>
      <point x="837" y="89"/>
      <point x="605" y="89" type="curve" smooth="yes"/>
      <point x="380" y="89"/>
      <point x="247" y="250"/>
      <point x="247" y="570" type="curve" smooth="yes"/>
      <point x="247" y="887" type="line" smooth="yes"/>
      <point x="247" y="1205"/>
      <point x="378" y="1366"/>
      <point x="603" y="1366" type="curve" smooth="yes"/>
      <point x="835" y="1366"/>
      <point x="961" y="1205"/>
      <point x="961" y="887" type="curve"/>
    </contour>
    <contour>
      <point x="603" y="1617" type="move" name="top"/>
    </contour>
    <contour>
      <point x="606" y="-1" type="move" name="bottom"/>
    </contour>
    <contour>
      <point x="138" y="1454" type="move" name="tonos"/>
    </contour>
    <contour>
      <point x="1188" y="1600" type="move" name="top_dd"/>
    </contour>
    <contour>
      <point x="1188" y="-407" type="move" name="bottom_dd"/>
    </contour>
    <contour>
      <point x="1188" y="1617" type="move" name="top0315"/>
    </contour>
  </outline>
</glyph>
<glyph name="P" format="1">
  <advance width="1104"/>
  <unicode hex="0050"/>
  <outline>
    <contour>
      <point x="28" y="1454" type="move" name="tonos"/>
    </contour>
    <contour>
      <point x="513" y="1612" type="move" name="top"/>
    </contour>
    <contour>
      <point x="465" y="10" type="move" name="bottom"/>
    </contour>
    <contour>
      <point x="1084" y="1600" type="move" name="top_dd"/>
    </contour>
    <contour>
      <point x="1084" y="-407" type="move" name="bottom_dd"/>
    </contour>
    <contour>
      <point x="1084" y="1612" type="move" name="top0315"/>
    </contour>
    <contour>
      <point x="596" y="592" type="line"/>
      <point x="867" y="592"/>
      <point x="1011" y="752"/>
      <point x="1011" y="1021" type="curve"/>
      <point x="1011" y="1279"/>
      <point x="866" y="1456"/>
      <point x="596" y="1456" type="curve"/>
      <point x="173" y="1456" type="line"/>
      <point x="173" y="0" type="line"/>
      <point x="287" y="0" type="line"/>
      <point x="287" y="1349" type="line"/>
      <point x="596" y="1349" type="line"/>
      <point x="809" y="1349"/>
      <point x="896" y="1196"/>
      <point x="896" y="1019" type="curve"/>
      <point x="896" y="838"/>
      <point x="809" y="699"/>
      <point x="596" y="699" type="curve"/>
      <point x="251" y="699" type="line"/>
      <point x="251" y="592" type="line"/>
    </contour>
  </outline>
</glyph>
<glyph name="Q" format="1">
  <advance width="1208"/>
  <unicode hex="0051"/>
  <outline>
    <contour>
      <point x="608" y="1600" type="move" name="top"/>
    </contour>
    <contour>
      <point x="606" y="-10" type="move" name="bottom"/>
    </contour>
    <contour>
      <point x="1188" y="1600" type="move" name="top_dd"/>
    </contour>
    <contour>
      <point x="1188" y="-407" type="move" name="bottom_dd"/>
    </contour>
    <contour>
      <point x="1188" y="1600" type="move" name="top0315"/>
    </contour>
    <contour>
      <point x="782" y="114" type="line"/>
      <point x="706" y="32" type="line"/>
      <point x="989" y="-255" type="line"/>
      <point x="1068" y="-176" type="line"/>
    </contour>
    <contour>
      <point x="1071" y="885" type="line"/>
      <point x="1071" y="1269"/>
      <point x="891" y="1476"/>
      <point x="599" y="1476" type="curve" smooth="yes"/>
      <point x="313" y="1476"/>
      <point x="128" y="1269"/>
      <point x="128" y="885" type="curve"/>
      <point x="128" y="571" type="line"/>
      <point x="128" y="186"/>
      <point x="315" y="-21"/>
      <point x="600" y="-21" type="curve" smooth="yes"/>
      <point x="892" y="-21"/>
      <point x="1071" y="186"/>
      <point x="1071" y="571" type="curve"/>
    </contour>
    <contour>
      <point x="957" y="571" type="line"/>
      <point x="957" y="250"/>
      <point x="833" y="89"/>
      <point x="600" y="89" type="curve" smooth="yes"/>
      <point x="376" y="89"/>
      <point x="243" y="250"/>
      <point x="243" y="571" type="curve" smooth="yes"/>
      <point x="243" y="887" type="line" smooth="yes"/>
      <point x="243" y="1205"/>
      <point x="374" y="1366"/>
      <point x="599" y="1366" type="curve" smooth="yes"/>
      <point x="831" y="1366"/>
      <point x="957" y="1205"/>
      <point x="957" y="887" type="curve"/>
    </contour>
  </outline>
</glyph>
<glyph name="R" format="1">
  <advance width="1126"/>
  <unicode hex="0052"/>
  <outline>
    <contour>
      <point x="171" y="1456" type="line"/>
      <point x="171" y="0" type="line"/>
      <point x="285" y="0" type="line"/>
      <point x="285" y="1349" type="line"/>
      <point x="570" y="1349" type="line" smooth="yes"/>
      <point x="768" y="1349"/>
      <point x="873" y="1225"/>
      <point x="873" y="1027" type="curve" smooth="yes"/>
      <point x="873" y="862"/>
      <point x="778" y="713"/>
      <point x="589" y="713" type="curve" smooth="yes"/>
      <point x="247" y="713" type="line"/>
      <point x="249" y="606" type="line"/>
      <point x="665" y="606" type="line"/>
      <point x="703" y="623" type="line"/>
      <point x="872" y="664"/>
      <point x="987" y="821"/>
      <point x="987" y="1027" type="curve" smooth="yes"/>
      <point x="987" y="1305"/>
      <point x="828" y="1456"/>
      <point x="570" y="1456" type="curve" smooth="yes"/>
    </contour>
    <contour>
      <point x="918" y="0" type="line"/>
      <point x="1040" y="0" type="line"/>
      <point x="1040" y="13" type="line"/>
      <point x="727" y="652" type="line"/>
      <point x="605" y="651" type="line"/>
    </contour>
    <contour>
      <point x="531" y="1606" type="move" name="top"/>
    </contour>
    <contour>
      <point x="531" y="10" type="move" name="bottom"/>
    </contour>
    <contour>
      <point x="1106" y="1600" type="move" name="top_dd"/>
    </contour>
    <contour>
      <point x="1106" y="-407" type="move" name="bottom_dd"/>
    </contour>
    <contour>
      <point x="1106" y="1606" type="move" name="top0315"/>
    </contour>
  </outline>
</glyph>
<glyph name="S" format="1">
  <advance width="1059"/>
  <unicode hex="0053"/>
  <outline>
    <contour>
      <point x="857" y="359" type="curve" smooth="yes"/>
      <point x="857" y="195"/>
      <point x="738" y="87"/>
      <point x="551" y="87" type="curve" smooth="yes"/>
      <point x="386" y="87"/>
      <point x="208" y="173"/>
      <point x="208" y="417" type="curve"/>
      <point x="93" y="417" type="line"/>
      <point x="93" y="109"/>
      <point x="332" y="-20"/>
      <point x="551" y="-20" type="curve" smooth="yes"/>
      <point x="797" y="-20"/>
      <point x="973" y="123"/>
      <point x="973" y="361" type="curve"/>
      <point x="973" y="596"/>
      <point x="830" y="710"/>
      <point x="567" y="794" type="curve"/>
      <point x="329" y="872"/>
      <point x="247" y="963"/>
      <point x="247" y="1102" type="curve"/>
      <point x="247" y="1248"/>
      <point x="347" y="1369"/>
      <point x="544" y="1369" type="curve" smooth="yes"/>
      <point x="740" y="1369"/>
      <point x="851" y="1230"/>
      <point x="851" y="1041" type="curve"/>
      <point x="965" y="1041" type="line"/>
      <point x="965" y="1283"/>
      <point x="804" y="1476"/>
      <point x="544" y="1476" type="curve" smooth="yes"/>
      <point x="301" y="1476"/>
      <point x="132" y="1324"/>
      <point x="132" y="1099" type="curve"/>
      <point x="132" y="870"/>
      <point x="286" y="766"/>
      <point x="531" y="683" type="curve"/>
      <point x="781" y="598"/>
      <point x="857" y="518"/>
    </contour>
    <contour>
      <point x="546" y="1617" type="move" name="top"/>
    </contour>
    <contour>
      <point x="549" y="-5" type="move" name="bottom"/>
    </contour>
    <contour>
      <point x="1039" y="1600" type="move" name="top_dd"/>
    </contour>
    <contour>
      <point x="1039" y="-407" type="move" name="bottom_dd"/>
    </contour>
    <contour>
      <point x="1039" y="1617" type="move" name="top0315"/>
    </contour>
    <contour>
      <point x="546" y="1617" type="move" name="parent_top"/>
    </contour>
  </outline>
</glyph>
<glyph name="T" format="1">
  <advance width="1067"/>
  <unicode hex="0054"/>
  <outline>
    <contour>
      <point x="591" y="1456" type="line"/>
      <point x="477" y="1456" type="line"/>
      <point x="477" y="0" type="line"/>
      <point x="591" y="0" type="line"/>
    </contour>
    <contour>
      <point x="1005" y="1456" type="line"/>
      <point x="63" y="1456" type="line"/>
      <point x="63" y="1349" type="line"/>
      <point x="1005" y="1349" type="line"/>
    </contour>
    <contour>
      <point x="533" y="1602" type="move" name="top"/>
    </contour>
    <contour>
      <point x="535" y="0" type="move" name="bottom"/>
    </contour>
    <contour>
      <point x="1047" y="1600" type="move" name="top_dd"/>
    </contour>
    <contour>
      <point x="1047" y="-407" type="move" name="bottom_dd"/>
    </contour>
    <contour>
      <point x="1047" y="1602" type="move" name="top0315"/>
    </contour>
    <contour>
      <point x="533" y="1602" type="move" name="parent_top"/>
    </contour>
  </outline>
</glyph>
<glyph name="U" format="1">
  <advance width="1168"/>
  <unicode hex="0055"/>
  <outline>
    <contour>
      <point x="904" y="1456" type="line"/>
      <point x="904" y="430" type="line" smooth="yes"/>
      <point x="904" y="176"/>
      <point x="772" y="86"/>
      <point x="585" y="86" type="curve" smooth="yes"/>
      <point x="400" y="86"/>
      <point x="267" y="176"/>
      <point x="267" y="430" type="curve" smooth="yes"/>
      <point x="267" y="1456" type="line"/>
      <point x="153" y="1456" type="line"/>
      <point x="153" y="430" type="line"/>
      <point x="153" y="102"/>
      <point x="340" y="-21"/>
      <point x="585" y="-21" type="curve" smooth="yes"/>
      <point x="823" y="-21"/>
      <point x="1018" y="102"/>
      <point x="1018" y="430" type="curve"/>
      <point x="1018" y="1456" type="line"/>
    </contour>
    <contour>
      <point x="591" y="1606" type="move" name="top"/>
    </contour>
    <contour>
      <point x="585" y="0" type="move" name="bottom"/>
    </contour>
    <contour>
      <point x="709" y="0" type="move" name="right"/>
    </contour>
    <contour>
      <point x="808" y="39" type="move" name="ogonek"/>
    </contour>
    <contour>
      <point x="1148" y="1600" type="move" name="top_dd"/>
    </contour>
    <contour>
      <point x="1148" y="-407" type="move" name="bottom_dd"/>
    </contour>
    <contour>
      <point x="1148" y="1606" type="move" name="top0315"/>
    </contour>
  </outline>
</glyph>
<glyph name="V" format="1">
  <advance width="1108"/>
  <unicode hex="0056"/>
  <outline>
    <contour>
      <point x="555" y="1612" type="move" name="top"/>
    </contour>
    <contour>
      <point x="556" y="10" type="move" name="bottom"/>
    </contour>
    <contour>
      <point x="1088" y="1600" type="move" name="top_dd"/>
    </contour>
    <contour>
      <point x="1088" y="-407" type="move" name="bottom_dd"/>
    </contour>
    <contour>
      <point x="1088" y="1612" type="move" name="top0315"/>
    </contour>
    <contour>
      <point x="558" y="182" type="line"/>
      <point x="516" y="0" type="line"/>
      <point x="608" y="0" type="line"/>
      <point x="1063" y="1456" type="line"/>
      <point x="938" y="1456" type="line"/>
    </contour>
    <contour>
      <point x="171" y="1456" type="line"/>
      <point x="46" y="1456" type="line"/>
      <point x="501" y="0" type="line"/>
      <point x="592" y="0" type="line"/>
      <point x="550" y="182" type="line"/>
    </contour>
  </outline>
</glyph>
<glyph name="W" format="1">
  <advance width="1579"/>
  <unicode hex="0057"/>
  <outline>
    <contour>
      <point x="797" y="1606" type="move" name="top"/>
    </contour>
    <contour>
      <point x="796" y="10" type="move" name="bottom"/>
    </contour>
    <contour>
      <point x="1559" y="1600" type="move" name="top_dd"/>
    </contour>
    <contour>
      <point x="1559" y="-407" type="move" name="bottom_dd"/>
    </contour>
    <contour>
      <point x="1559" y="1606" type="move" name="top0315"/>
    </contour>
    <contour>
      <point x="485" y="386" type="line"/>
      <point x="403" y="0" type="line"/>
      <point x="489" y="0" type="line"/>
      <point x="769" y="1136" type="line"/>
      <point x="836" y="1456" type="line"/>
      <point x="746" y="1456" type="line"/>
    </contour>
    <contour>
      <point x="188" y="1456" type="line"/>
      <point x="71" y="1456" type="line"/>
      <point x="381" y="0" type="line"/>
      <point x="471" y="0" type="line"/>
      <point x="405" y="396" type="line"/>
    </contour>
    <contour>
      <point x="1185" y="397" type="line"/>
      <point x="1117" y="0" type="line"/>
      <point x="1207" y="0" type="line"/>
      <point x="1516" y="1456" type="line"/>
      <point x="1400" y="1456" type="line"/>
    </contour>
    <contour>
      <point x="847" y="1456" type="line"/>
      <point x="758" y="1456" type="line"/>
      <point x="826" y="1136" type="line"/>
      <point x="1098" y="0" type="line"/>
      <point x="1185" y="0" type="line"/>
      <point x="1104" y="386" type="line"/>
    </contour>
  </outline>
</glyph>
<glyph name="X" format="1">
  <advance width="1098"/>
  <unicode hex="0058"/>
  <outline>
    <contour>
      <point x="215" y="1456" type="line"/>
      <point x="79" y="1456" type="line"/>
      <point x="481" y="739" type="line"/>
      <point x="67" y="0" type="line"/>
      <point x="203" y="0" type="line"/>
      <point x="550" y="633" type="line"/>
      <point x="896" y="0" type="line"/>
      <point x="1032" y="0" type="line"/>
      <point x="619" y="739" type="line"/>
      <point x="1020" y="1456" type="line"/>
      <point x="884" y="1456" type="line"/>
      <point x="550" y="843" type="line"/>
    </contour>
    <contour>
      <point x="565" y="10" type="move" name="bottom"/>
    </contour>
    <contour>
      <point x="572" y="1612" type="move" name="top"/>
    </contour>
    <contour>
      <point x="1078" y="1600" type="move" name="top_dd"/>
    </contour>
    <contour>
      <point x="1078" y="-407" type="move" name="bottom_dd"/>
    </contour>
    <contour>
      <point x="1078" y="1612" type="move" name="top0315"/>
    </contour>
    <contour>
      <point x="572" y="1612" type="move" name="parent_top"/>
    </contour>
  </outline>
</glyph>
<glyph name="Y" format="1">
  <advance width="1071"/>
  <unicode hex="0059"/>
  <outline>
    <contour>
      <point x="173" y="1456" type="line"/>
      <point x="39" y="1456" type="line"/>
      <point x="476" y="548" type="line"/>
      <point x="476" y="0" type="line"/>
      <point x="591" y="0" type="line"/>
      <point x="591" y="548" type="line"/>
      <point x="1029" y="1456" type="line"/>
      <point x="897" y="1456" type="line"/>
      <point x="534" y="665" type="line"/>
    </contour>
    <contour>
      <point x="536" y="1601" type="move" name="top"/>
    </contour>
    <contour>
      <point x="535" y="5" type="move" name="bottom"/>
    </contour>
    <contour>
      <point x="534" y="588" type="move" name="cross"/>
    </contour>
    <contour>
      <point x="-36" y="1454" type="move" name="tonos"/>
    </contour>
    <contour>
      <point x="1051" y="1600" type="move" name="top_dd"/>
    </contour>
    <contour>
      <point x="1051" y="-407" type="move" name="bottom_dd"/>
    </contour>
    <contour>
      <point x="1051" y="1601" type="move" name="top0315"/>
    </contour>
  </outline>
</glyph>
<glyph name="Z" format="1">
  <advance width="1070"/>
  <unicode hex="005A"/>
  <outline>
    <contour>
      <point x="977" y="107" type="line"/>
      <point x="138" y="107" type="line"/>
      <point x="138" y="0" type="line"/>
      <point x="977" y="0" type="line"/>
    </contour>
    <contour>
      <point x="950" y="1366" type="line"/>
      <point x="950" y="1456" type="line"/>
      <point x="877" y="1456" type="line"/>
      <point x="95" y="95" type="line"/>
      <point x="95" y="0" type="line"/>
      <point x="167" y="0" type="line"/>
    </contour>
    <contour>
      <point x="901" y="1456" type="line"/>
      <point x="115" y="1456" type="line"/>
      <point x="115" y="1349" type="line"/>
      <point x="901" y="1349" type="line"/>
    </contour>
    <contour>
      <point x="535" y="1606" type="move" name="top"/>
    </contour>
    <contour>
      <point x="545" y="10" type="move" name="bottom"/>
    </contour>
    <contour>
      <point x="1050" y="1600" type="move" name="top_dd"/>
    </contour>
    <contour>
      <point x="1050" y="-407" type="move" name="bottom_dd"/>
    </contour>
    <contour>
      <point x="1050" y="1606" type="move" name="top0315"/>
    </contour>
  </outline>
</glyph>
<glyph name="backslash" format="1">
  <advance width="723"/>
  <unicode hex="005C"/>
  <outline>
    <contour>
      <point x="571" y="-125" type="line"/>
      <point x="678" y="-125" type="line"/>
      <point x="167" y="1456" type="line"/>
      <point x="60" y="1456" type="line"/>
    </contour>
  </outline>
</glyph>
<glyph name="asciicircum" format="1">
  <advance width="757"/>
  <unicode hex="005E"/>
  <outline>
    <contour>
      <point x="386" y="1328" type="line"/>
      <point x="406" y="1456" type="line"/>
      <point x="334" y="1456" type="line"/>
      <point x="83" y="729" type="line"/>
      <point x="189" y="729" type="line"/>
    </contour>
    <contour>
      <point x="560" y="729" type="line"/>
      <point x="666" y="729" type="line"/>
      <point x="416" y="1456" type="line"/>
      <point x="342" y="1456" type="line"/>
      <point x="364" y="1328" type="line"/>
    </contour>
  </outline>
</glyph>
<glyph name="underscore" format="2">
  <advance width="789"/>
  <unicode hex="005F"/>
  <outline>
    <contour>
      <point x="768" y="0" type="line"/>
      <point x="22" y="0" type="line"/>
      <point x="22" y="-104" type="line"/>
      <point x="768" y="-104" type="line"/>
    </contour>
  </outline>
</glyph>
<glyph name="grave" format="1">
  <advance width="585"/>
  <unicode hex="0060"/>
  <outline>
    <contour>
      <point x="365" y="1292" type="move" name="_top"/>
    </contour>
    <contour>
      <point x="365" y="1593" type="move" name="mkmktop_acc"/>
    </contour>
    <contour>
      <point x="248" y="1536" type="line"/>
      <point x="103" y="1536" type="line"/>
      <point x="330" y="1256" type="line"/>
      <point x="439" y="1256" type="line"/>
    </contour>
  </outline>
</glyph>
<glyph name="b" format="2">
  <advance width="996"/>
  <unicode hex="0062"/>
  <anchor x="533" y="1612" name="top"/>
  <anchor x="518" y="-10" name="bottom"/>
  <anchor x="976" y="1600" name="top_dd"/>
  <anchor x="976" y="-407" name="bottom_dd"/>
  <anchor x="976" y="1612" name="top0315"/>
  <anchor x="533" y="1612" name="parent_top"/>
  <outline>
    <contour>
      <point x="148" y="1536" type="line"/>
      <point x="148" y="0" type="line"/>
      <point x="251" y="0" type="line"/>
      <point x="259" y="210" type="line"/>
      <point x="259" y="1536" type="line"/>
    </contour>
    <contour>
      <point x="888" y="591" type="line"/>
      <point x="888" y="953"/>
      <point x="761" y="1102"/>
      <point x="538" y="1102" type="curve" smooth="yes"/>
      <point x="328" y="1102"/>
      <point x="222" y="939"/>
      <point x="191" y="694" type="curve"/>
      <point x="191" y="370" type="line"/>
      <point x="217" y="142"/>
      <point x="325" y="-21"/>
      <point x="540" y="-21" type="curve" smooth="yes"/>
      <point x="761" y="-21"/>
      <point x="888" y="141"/>
      <point x="888" y="490" type="curve" smooth="yes"/>
    </contour>
    <contour>
      <point x="776" y="490" type="line"/>
      <point x="776" y="213"/>
      <point x="697" y="86"/>
      <point x="517" y="86" type="curve" smooth="yes"/>
      <point x="348" y="86"/>
      <point x="262" y="209"/>
      <point x="234" y="344" type="curve"/>
      <point x="234" y="714" type="line"/>
      <point x="259" y="842"/>
      <point x="330" y="996"/>
      <point x="515" y="996" type="curve" smooth="yes"/>
      <point x="701" y="996"/>
      <point x="776" y="866"/>
      <point x="776" y="591" type="curve" smooth="yes"/>
    </contour>
  </outline>
</glyph>
<glyph name="e" format="1">
  <advance width="938"/>
  <unicode hex="0065"/>
  <outline>
    <contour>
      <point x="506" y="-21" type="curve"/>
      <point x="671" y="-21"/>
      <point x="769" y="46"/>
      <point x="828" y="125" type="curve"/>
      <point x="769" y="199" type="line"/>
      <point x="703" y="121"/>
      <point x="622" y="83"/>
      <point x="511" y="83" type="curve" smooth="yes"/>
      <point x="329" y="83"/>
      <point x="207" y="207"/>
      <point x="207" y="470" type="curve" smooth="yes"/>
      <point x="207" y="594" type="line" smooth="yes"/>
      <point x="207" y="885"/>
      <point x="321" y="998"/>
      <point x="487" y="998" type="curve"/>
      <point x="655" y="998"/>
      <point x="734" y="875"/>
      <point x="738" y="664" type="curve"/>
      <point x="738" y="636" type="line"/>
      <point x="163" y="636" type="line"/>
      <point x="163" y="532" type="line"/>
      <point x="849" y="532" type="line"/>
      <point x="849" y="625" type="line" smooth="yes"/>
      <point x="849" y="949"/>
      <point x="724" y="1102"/>
      <point x="487" y="1102" type="curve" smooth="yes"/>
      <point x="280" y="1102"/>
      <point x="96" y="955"/>
      <point x="96" y="594" type="curve" smooth="yes"/>
      <point x="96" y="470" type="line" smooth="yes"/>
      <point x="96" y="135"/>
      <point x="265" y="-21"/>
    </contour>
    <contour>
      <point x="495" y="1291" type="move" name="top"/>
    </contour>
    <contour>
      <point x="496" y="2" type="move" name="bottom"/>
    </contour>
    <contour>
      <point x="914" y="1600" type="move" name="top_dd"/>
    </contour>
    <contour>
      <point x="914" y="-407" type="move" name="bottom_dd"/>
    </contour>
    <contour>
      <point x="791" y="654" type="move" name="rhotichook"/>
    </contour>
    <contour>
      <point x="914" y="1291" type="move" name="top0315"/>
    </contour>
    <contour>
      <point x="495" y="1291" type="move" name="parent_top"/>
    </contour>
  </outline>
</glyph>
<glyph name="f" format="1">
  <advance width="615"/>
  <unicode hex="0066"/>
  <outline>
    <contour>
      <point x="333" y="0" type="line"/>
      <point x="333" y="1216" type="line"/>
      <point x="333" y="1365"/>
      <point x="398" y="1450"/>
      <point x="505" y="1450" type="curve" smooth="yes"/>
      <point x="541" y="1450"/>
      <point x="569" y="1446"/>
      <point x="596" y="1438" type="curve"/>
      <point x="603" y="1540" type="line"/>
      <point x="569" y="1552"/>
      <point x="531" y="1557"/>
      <point x="496" y="1557" type="curve" smooth="yes"/>
      <point x="326" y="1557"/>
      <point x="222" y="1436"/>
      <point x="222" y="1216" type="curve"/>
      <point x="222" y="0" type="line"/>
    </contour>
    <contour>
      <point x="546" y="1082" type="line"/>
      <point x="73" y="1082" type="line"/>
      <point x="73" y="982" type="line"/>
      <point x="546" y="982" type="line"/>
    </contour>
    <contour>
      <point x="447" y="1718" type="move" name="top"/>
    </contour>
    <contour>
      <point x="297" y="10" type="move" name="bottom"/>
    </contour>
    <contour>
      <point x="595" y="1600" type="move" name="top_dd"/>
    </contour>
    <contour>
      <point x="595" y="-407" type="move" name="bottom_dd"/>
    </contour>
    <contour>
      <point x="595" y="1718" type="move" name="top0315"/>
    </contour>
    <contour>
      <point x="447" y="1718" type="move" name="parent_top"/>
    </contour>
  </outline>
</glyph>
<glyph name="h" format="1">
  <advance width="985"/>
  <unicode hex="0068"/>
  <outline>
    <contour>
      <point x="431" y="1611" type="move" name="top"/>
    </contour>
    <contour>
      <point x="275" y="1306" type="move" name="cross"/>
    </contour>
    <contour>
      <point x="509" y="10" type="move" name="bottom"/>
    </contour>
    <contour>
      <point x="841" y="0" type="move" name="right"/>
    </contour>
    <contour>
      <point x="965" y="1600" type="move" name="top_dd"/>
    </contour>
    <contour>
      <point x="965" y="-407" type="move" name="bottom_dd"/>
    </contour>
    <contour>
      <point x="965" y="1611" type="move" name="top0315"/>
    </contour>
    <contour>
      <point x="260" y="1536" type="line"/>
      <point x="149" y="1536" type="line"/>
      <point x="149" y="0" type="line"/>
      <point x="260" y="0" type="line"/>
    </contour>
    <contour>
      <point x="235" y="608" type="line"/>
      <point x="238" y="770"/>
      <point x="337" y="996"/>
      <point x="521" y="996" type="curve" smooth="yes"/>
      <point x="650" y="996"/>
      <point x="729" y="927"/>
      <point x="729" y="706" type="curve" smooth="yes"/>
      <point x="729" y="0" type="line"/>
      <point x="840" y="0" type="line"/>
      <point x="840" y="705" type="line" smooth="yes"/>
      <point x="840" y="990"/>
      <point x="731" y="1102"/>
      <point x="550" y="1102" type="curve" smooth="yes"/>
      <point x="339" y="1102"/>
      <point x="197" y="893"/>
      <point x="186" y="637" type="curve"/>
    </contour>
  </outline>
</glyph>
<glyph name="i" format="1">
  <advance width="432"/>
  <unicode hex="0069"/>
  <outline>
    <contour>
      <point x="216" y="10" type="move" name="bottom"/>
    </contour>
    <contour>
      <point x="264" y="0" type="move" name="ogonek"/>
    </contour>
    <contour>
      <point x="220" y="1600" type="move" name="top"/>
    </contour>
    <contour>
      <point x="412" y="1600" type="move" name="top_dd"/>
    </contour>
    <contour>
      <point x="412" y="-407" type="move" name="bottom_dd"/>
    </contour>
    <contour>
      <point x="230" y="654" type="move" name="rhotichook"/>
    </contour>
    <contour>
      <point x="412" y="1600" type="move" name="top0315"/>
    </contour>
    <contour>
      <point x="272" y="1082" type="line"/>
      <point x="161" y="1082" type="line"/>
      <point x="161" y="0" type="line"/>
      <point x="272" y="0" type="line"/>
    </contour>
    <contour>
      <point x="144" y="1394" type="curve" smooth="yes"/>
      <point x="144" y="1349"/>
      <point x="171" y="1314"/>
      <point x="217" y="1314" type="curve"/>
      <point x="264" y="1314"/>
      <point x="291" y="1349"/>
      <point x="291" y="1394" type="curve"/>
      <point x="291" y="1440"/>
      <point x="264" y="1476"/>
      <point x="217" y="1476" type="curve"/>
      <point x="171" y="1476"/>
      <point x="144" y="1440"/>
    </contour>
  </outline>
</glyph>
<glyph name="j" format="1">
  <advance width="436"/>
  <unicode hex="006A"/>
  <outline>
    <contour>
      <point x="156" y="1082" type="line"/>
      <point x="156" y="-129" type="line"/>
      <point x="156" y="-264"/>
      <point x="106" y="-330"/>
      <point x="15" y="-330" type="curve" smooth="yes"/>
      <point x="-10" y="-330"/>
      <point x="-40" y="-324"/>
      <point x="-60" y="-317" type="curve"/>
      <point x="-61" y="-418" type="line"/>
      <point x="-35" y="-430"/>
      <point x="0" y="-437"/>
      <point x="29" y="-437" type="curve" smooth="yes"/>
      <point x="185" y="-437"/>
      <point x="268" y="-328"/>
      <point x="268" y="-129" type="curve"/>
      <point x="268" y="1082" type="line"/>
    </contour>
    <contour>
      <point x="139" y="1394" type="curve" smooth="yes"/>
      <point x="139" y="1349"/>
      <point x="166" y="1314"/>
      <point x="212" y="1314" type="curve" smooth="yes"/>
      <point x="258" y="1314"/>
      <point x="286" y="1349"/>
      <point x="286" y="1394" type="curve" smooth="yes"/>
      <point x="286" y="1440"/>
      <point x="258" y="1476"/>
      <point x="212" y="1476" type="curve" smooth="yes"/>
      <point x="166" y="1476"/>
      <point x="139" y="1440"/>
    </contour>
    <contour>
      <point x="207" y="1600" type="move" name="top"/>
    </contour>
    <contour>
      <point x="180" y="-459" type="move" name="bottom"/>
    </contour>
    <contour>
      <point x="416" y="1600" type="move" name="top_dd"/>
    </contour>
    <contour>
      <point x="416" y="-407" type="move" name="bottom_dd"/>
    </contour>
    <contour>
      <point x="416" y="1600" type="move" name="top0315"/>
    </contour>
  </outline>
</glyph>
<glyph name="k" format="1">
  <advance width="889"/>
  <unicode hex="006B"/>
  <outline>
    <contour>
      <point x="461" y="92" type="move" name="bottom"/>
    </contour>
    <contour>
      <point x="261" y="1289" type="move" name="cross"/>
    </contour>
    <contour>
      <point x="480" y="1612" type="move" name="top"/>
    </contour>
    <contour>
      <point x="480" y="1612" type="move" name="marktop"/>
    </contour>
    <contour>
      <point x="869" y="1600" type="move" name="top_dd"/>
    </contour>
    <contour>
      <point x="869" y="-407" type="move" name="bottom_dd"/>
    </contour>
    <contour>
      <point x="759" y="1612" type="move" name="top0315"/>
    </contour>
    <contour>
      <point x="260" y="1536" type="line"/>
      <point x="149" y="1536" type="line"/>
      <point x="149" y="0" type="line"/>
      <point x="260" y="0" type="line"/>
    </contour>
    <contour>
      <point x="827" y="1082" type="line"/>
      <point x="688" y="1082" type="line"/>
      <point x="353" y="678" type="line"/>
      <point x="205" y="490" type="line"/>
      <point x="219" y="370" type="line"/>
      <point x="408" y="580" type="line"/>
    </contour>
    <contour>
      <point x="730" y="0" type="line"/>
      <point x="862" y="0" type="line"/>
      <point x="421" y="666" type="line"/>
      <point x="361" y="561" type="line"/>
    </contour>
  </outline>
</glyph>
<glyph name="l" format="1">
  <advance width="432"/>
  <unicode hex="006C"/>
  <outline>
    <contour>
      <point x="272" y="1536" type="line"/>
      <point x="161" y="1536" type="line"/>
      <point x="161" y="0" type="line"/>
      <point x="272" y="0" type="line"/>
    </contour>
    <contour>
      <point x="217" y="1685" type="move" name="top"/>
    </contour>
    <contour>
      <point x="217" y="10" type="move" name="bottom"/>
    </contour>
    <contour>
      <point x="400" y="1536" type="move" name="caron"/>
    </contour>
    <contour>
      <point x="389" y="785" type="move" name="dot"/>
    </contour>
    <contour>
      <point x="463" y="1522" type="move" name="marktop"/>
    </contour>
    <contour>
      <point x="412" y="1600" type="move" name="top_dd"/>
    </contour>
    <contour>
      <point x="412" y="-407" type="move" name="bottom_dd"/>
    </contour>
    <contour>
      <point x="412" y="1685" type="move" name="top0315"/>
    </contour>
  </outline>
</glyph>
<glyph name="n" format="1">
  <advance width="987"/>
  <unicode hex="006E"/>
  <outline>
    <contour>
      <point x="260" y="851" type="line"/>
      <point x="255" y="1082" type="line"/>
      <point x="149" y="1082" type="line"/>
      <point x="149" y="0" type="line"/>
      <point x="260" y="0" type="line"/>
    </contour>
    <contour>
      <point x="235" y="608" type="line"/>
      <point x="238" y="770"/>
      <point x="337" y="996"/>
      <point x="521" y="996" type="curve" smooth="yes"/>
      <point x="650" y="996"/>
      <point x="729" y="927"/>
      <point x="729" y="706" type="curve" smooth="yes"/>
      <point x="729" y="0" type="line"/>
      <point x="840" y="0" type="line"/>
      <point x="840" y="705" type="line" smooth="yes"/>
      <point x="840" y="990"/>
      <point x="731" y="1102"/>
      <point x="550" y="1102" type="curve" smooth="yes"/>
      <point x="339" y="1102"/>
      <point x="197" y="893"/>
      <point x="186" y="637" type="curve"/>
    </contour>
    <contour>
      <point x="503" y="1290" type="move" name="top"/>
    </contour>
    <contour>
      <point x="498" y="10" type="move" name="bottom"/>
    </contour>
    <contour>
      <point x="6" y="1537" type="move" name="caron"/>
    </contour>
    <contour>
      <point x="839" y="0" type="move" name="right"/>
    </contour>
    <contour>
      <point x="503" y="1290" type="move" name="marktop"/>
    </contour>
    <contour>
      <point x="967" y="1600" type="move" name="top_dd"/>
    </contour>
    <contour>
      <point x="967" y="-407" type="move" name="bottom_dd"/>
    </contour>
    <contour>
      <point x="967" y="1290" type="move" name="top0315"/>
    </contour>
  </outline>
</glyph>
<glyph name="o" format="1">
  <advance width="1005"/>
  <unicode hex="006F"/>
  <outline>
    <contour>
      <point x="107" y="485" type="line"/>
      <point x="107" y="158"/>
      <point x="268" y="-21"/>
      <point x="503" y="-21" type="curve" smooth="yes"/>
      <point x="738" y="-21"/>
      <point x="898" y="158"/>
      <point x="898" y="485" type="curve"/>
      <point x="898" y="597" type="line"/>
      <point x="898" y="924"/>
      <point x="738" y="1102"/>
      <point x="502" y="1102" type="curve" smooth="yes"/>
      <point x="268" y="1102"/>
      <point x="107" y="924"/>
      <point x="107" y="597" type="curve"/>
    </contour>
    <contour>
      <point x="218" y="597" type="line"/>
      <point x="218" y="840"/>
      <point x="322" y="998"/>
      <point x="502" y="998" type="curve" smooth="yes"/>
      <point x="682" y="998"/>
      <point x="787" y="840"/>
      <point x="787" y="597" type="curve"/>
      <point x="787" y="485" type="line"/>
      <point x="787" y="238"/>
      <point x="695" y="83"/>
      <point x="503" y="83" type="curve" smooth="yes"/>
      <point x="322" y="83"/>
      <point x="218" y="238"/>
      <point x="218" y="485" type="curve"/>
    </contour>
    <contour>
      <point x="500" y="1290" type="move" name="top"/>
    </contour>
    <contour>
      <point x="505" y="-5" type="move" name="bottom"/>
    </contour>
    <contour>
      <point x="987" y="1600" type="move" name="top_dd"/>
    </contour>
    <contour>
      <point x="987" y="-407" type="move" name="bottom_dd"/>
    </contour>
    <contour>
      <point x="858" y="654" type="move" name="rhotichook"/>
    </contour>
    <contour>
      <point x="987" y="1290" type="move" name="top0315"/>
    </contour>
  </outline>
</glyph>
<glyph name="p" format="1">
  <advance width="996"/>
  <unicode hex="0070"/>
  <outline>
    <contour>
      <point x="259" y="874" type="line"/>
      <point x="251" y="1082" type="line"/>
      <point x="148" y="1082" type="line"/>
      <point x="148" y="-416" type="line"/>
      <point x="259" y="-416" type="line"/>
    </contour>
    <contour>
      <point x="887" y="591" type="line"/>
      <point x="887" y="953"/>
      <point x="761" y="1102"/>
      <point x="537" y="1102" type="curve" smooth="yes"/>
      <point x="326" y="1102"/>
      <point x="216" y="939"/>
      <point x="185" y="694" type="curve"/>
      <point x="185" y="361" type="line"/>
      <point x="211" y="138"/>
      <point x="324" y="-21"/>
      <point x="539" y="-21" type="curve" smooth="yes"/>
      <point x="760" y="-21"/>
      <point x="887" y="141"/>
      <point x="887" y="490" type="curve" smooth="yes"/>
    </contour>
    <contour>
      <point x="776" y="490" type="line"/>
      <point x="776" y="213"/>
      <point x="692" y="83"/>
      <point x="512" y="83" type="curve" smooth="yes"/>
      <point x="343" y="83"/>
      <point x="261" y="200"/>
      <point x="229" y="335" type="curve"/>
      <point x="229" y="714" type="line"/>
      <point x="253" y="842"/>
      <point x="325" y="996"/>
      <point x="510" y="996" type="curve" smooth="yes"/>
      <point x="692" y="996"/>
      <point x="776" y="867"/>
      <point x="776" y="591" type="curve" smooth="yes"/>
    </contour>
    <contour>
      <point x="533" y="1280" type="move" name="top"/>
    </contour>
    <contour>
      <point x="202" y="-407" type="move" name="bottom"/>
    </contour>
    <contour>
      <point x="533" y="1280" type="move" name="marktop"/>
    </contour>
    <contour>
      <point x="976" y="1600" type="move" name="top_dd"/>
    </contour>
    <contour>
      <point x="976" y="-407" type="move" name="bottom_dd"/>
    </contour>
    <contour>
      <point x="976" y="1280" type="move" name="top0315"/>
    </contour>
    <contour>
      <point x="533" y="1280" type="move" name="parent_top"/>
    </contour>
  </outline>
</glyph>
<glyph name="q" format="1">
  <advance width="1003"/>
  <unicode hex="0071"/>
  <outline>
    <contour>
      <point x="736" y="-416" type="line"/>
      <point x="847" y="-416" type="line"/>
      <point x="847" y="1082" type="line"/>
      <point x="744" y="1082" type="line"/>
      <point x="736" y="874" type="line"/>
    </contour>
    <contour>
      <point x="109" y="490" type="line"/>
      <point x="109" y="141"/>
      <point x="241" y="-21"/>
      <point x="462" y="-21" type="curve" smooth="yes"/>
      <point x="677" y="-21"/>
      <point x="788" y="142"/>
      <point x="814" y="370" type="curve"/>
      <point x="814" y="694" type="line"/>
      <point x="783" y="939"/>
      <point x="674" y="1102"/>
      <point x="463" y="1102" type="curve" smooth="yes"/>
      <point x="240" y="1102"/>
      <point x="109" y="953"/>
      <point x="109" y="591" type="curve" smooth="yes"/>
    </contour>
    <contour>
      <point x="221" y="591" type="line"/>
      <point x="221" y="867"/>
      <point x="304" y="998"/>
      <point x="486" y="998" type="curve" smooth="yes"/>
      <point x="671" y="998"/>
      <point x="747" y="838"/>
      <point x="771" y="714" type="curve"/>
      <point x="771" y="344" type="line"/>
      <point x="738" y="203"/>
      <point x="653" y="83"/>
      <point x="484" y="83" type="curve" smooth="yes"/>
      <point x="304" y="83"/>
      <point x="221" y="213"/>
      <point x="221" y="490" type="curve" smooth="yes"/>
    </contour>
    <contour>
      <point x="471" y="1290" type="move" name="top"/>
    </contour>
    <contour>
      <point x="793" y="-407" type="move" name="bottom"/>
    </contour>
    <contour>
      <point x="471" y="1290" type="move" name="top"/>
    </contour>
    <contour>
      <point x="983" y="1600" type="move" name="top_dd"/>
    </contour>
    <contour>
      <point x="983" y="-407" type="move" name="bottom_dd"/>
    </contour>
    <contour>
      <point x="983" y="1290" type="move" name="top0315"/>
    </contour>
  </outline>
</glyph>
<glyph name="r" format="1">
  <advance width="620"/>
  <unicode hex="0072"/>
  <outline>
    <contour>
      <point x="364" y="1290" type="move" name="top"/>
    </contour>
    <contour>
      <point x="211" y="15" type="move" name="bottom"/>
    </contour>
    <contour>
      <point x="600" y="1600" type="move" name="top_dd"/>
    </contour>
    <contour>
      <point x="600" y="-407" type="move" name="bottom_dd"/>
    </contour>
    <contour>
      <point x="600" y="1290" type="move" name="top0315"/>
    </contour>
    <contour>
      <point x="260" y="903" type="line"/>
      <point x="257" y="1082" type="line"/>
      <point x="149" y="1082" type="line"/>
      <point x="149" y="0" type="line"/>
      <point x="260" y="0" type="line"/>
    </contour>
    <contour>
      <point x="575" y="1090" type="line"/>
      <point x="562" y="1096"/>
      <point x="532" y="1102"/>
      <point x="508" y="1102" type="curve"/>
      <point x="299" y="1102"/>
      <point x="204" y="882"/>
      <point x="204" y="601" type="curve"/>
      <point x="242" y="618" type="line"/>
      <point x="250" y="823"/>
      <point x="335" y="985"/>
      <point x="503" y="985" type="curve"/>
      <point x="529" y="985"/>
      <point x="549" y="983"/>
      <point x="572" y="978" type="curve"/>
    </contour>
  </outline>
</glyph>
<glyph name="s" format="1">
  <advance width="915"/>
  <unicode hex="0073"/>
  <outline>
    <contour>
      <point x="690" y="266" type="curve" smooth="yes"/>
      <point x="690" y="166"/>
      <point x="611" y="84"/>
      <point x="463" y="84" type="curve" smooth="yes"/>
      <point x="352" y="84"/>
      <point x="223" y="126"/>
      <point x="215" y="295" type="curve"/>
      <point x="104" y="295" type="line"/>
      <point x="104" y="126"/>
      <point x="230" y="-20"/>
      <point x="463" y="-20" type="curve" smooth="yes"/>
      <point x="668" y="-20"/>
      <point x="801" y="94"/>
      <point x="801" y="273" type="curve"/>
      <point x="801" y="445"/>
      <point x="678" y="514"/>
      <point x="479" y="601" type="curve" smooth="yes"/>
      <point x="291" y="691"/>
      <point x="245" y="730"/>
      <point x="245" y="818" type="curve"/>
      <point x="245" y="908"/>
      <point x="306" y="998"/>
      <point x="457" y="998" type="curve" smooth="yes"/>
      <point x="603" y="998"/>
      <point x="684" y="897"/>
      <point x="684" y="786" type="curve"/>
      <point x="795" y="786" type="line"/>
      <point x="795" y="971"/>
      <point x="669" y="1102"/>
      <point x="457" y="1102" type="curve" smooth="yes"/>
      <point x="259" y="1102"/>
      <point x="134" y="976"/>
      <point x="134" y="814" type="curve"/>
      <point x="134" y="652"/>
      <point x="249" y="587"/>
      <point x="445" y="499" type="curve" smooth="yes"/>
      <point x="629" y="414"/>
      <point x="690" y="356"/>
    </contour>
    <contour>
      <point x="475" y="1290" type="move" name="top"/>
    </contour>
    <contour>
      <point x="475" y="-7" type="move" name="bottom"/>
    </contour>
    <contour>
      <point x="895" y="1600" type="move" name="top_dd"/>
    </contour>
    <contour>
      <point x="895" y="-407" type="move" name="bottom_dd"/>
    </contour>
    <contour>
      <point x="895" y="1290" type="move" name="top0315"/>
    </contour>
  </outline>
</glyph>
<glyph name="t" format="1">
  <advance width="595"/>
  <unicode hex="0074"/>
  <outline>
    <contour>
      <point x="500" y="1082" type="line"/>
      <point x="38" y="1082" type="line"/>
      <point x="38" y="982" type="line"/>
      <point x="500" y="982" type="line"/>
    </contour>
    <contour>
      <point x="204" y="1359" type="line"/>
      <point x="204" y="264" type="line"/>
      <point x="204" y="47"/>
      <point x="289" y="-20"/>
      <point x="404" y="-20" type="curve" smooth="yes"/>
      <point x="447" y="-20"/>
      <point x="490" y="-13"/>
      <point x="514" y="-4" type="curve"/>
      <point x="510" y="98" type="line"/>
      <point x="489" y="93"/>
      <point x="460" y="88"/>
      <point x="430" y="88" type="curve" smooth="yes"/>
      <point x="370" y="88"/>
      <point x="316" y="114"/>
      <point x="316" y="264" type="curve"/>
      <point x="316" y="1359" type="line"/>
    </contour>
    <contour>
      <point x="387" y="0" type="move" name="bottom"/>
    </contour>
    <contour>
      <point x="453" y="1609" type="move" name="caron"/>
    </contour>
    <contour>
      <point x="287" y="667" type="move" name="cross"/>
    </contour>
    <contour>
      <point x="266" y="1510" type="move" name="top"/>
    </contour>
    <contour>
      <point x="477" y="1325" type="move" name="top"/>
    </contour>
    <contour>
      <point x="575" y="1600" type="move" name="top_dd"/>
    </contour>
    <contour>
      <point x="575" y="-407" type="move" name="bottom_dd"/>
    </contour>
    <contour>
      <point x="575" y="1510" type="move" name="top0315"/>
    </contour>
  </outline>
</glyph>
<glyph name="u" format="1">
  <advance width="986"/>
  <unicode hex="0075"/>
  <outline>
    <contour>
      <point x="727" y="250" type="line"/>
      <point x="731" y="0" type="line"/>
      <point x="838" y="0" type="line"/>
      <point x="838" y="1082" type="line"/>
      <point x="727" y="1082" type="line"/>
    </contour>
    <contour>
      <point x="747" y="451" type="line"/>
      <point x="747" y="257"/>
      <point x="675" y="87"/>
      <point x="458" y="87" type="curve" smooth="yes"/>
      <point x="349" y="87"/>
      <point x="256" y="158"/>
      <point x="256" y="387" type="curve"/>
      <point x="256" y="1082" type="line"/>
      <point x="145" y="1082" type="line"/>
      <point x="145" y="389" type="line"/>
      <point x="145" y="94"/>
      <point x="266" y="-20"/>
      <point x="444" y="-20" type="curve" smooth="yes"/>
      <point x="701" y="-20"/>
      <point x="801" y="181"/>
      <point x="801" y="453" type="curve"/>
    </contour>
    <contour>
      <point x="501" y="1292" type="move" name="top"/>
    </contour>
    <contour>
      <point x="966" y="1600" type="move" name="top_dd"/>
    </contour>
    <contour>
      <point x="966" y="-407" type="move" name="bottom_dd"/>
    </contour>
    <contour>
      <point x="794" y="654" type="move" name="rhotichook"/>
    </contour>
    <contour>
      <point x="966" y="1292" type="move" name="top0315"/>
    </contour>
    <contour>
      <point x="492" y="0" type="move" name="bottom"/>
    </contour>
    <contour>
      <point x="501" y="1292" type="move" name="parent_top"/>
    </contour>
  </outline>
</glyph>
<glyph name="v" format="1">
  <advance width="869"/>
  <unicode hex="0076"/>
  <outline>
    <contour>
      <point x="419" y="117" type="line"/>
      <point x="399" y="0" type="line"/>
      <point x="479" y="0" type="line"/>
      <point x="816" y="1082" type="line"/>
      <point x="702" y="1082" type="line"/>
    </contour>
    <contour>
      <point x="166" y="1082" type="line"/>
      <point x="51" y="1082" type="line"/>
      <point x="390" y="0" type="line"/>
      <point x="470" y="0" type="line"/>
      <point x="454" y="114" type="line"/>
    </contour>
    <contour>
      <point x="440" y="1280" type="move" name="top"/>
    </contour>
    <contour>
      <point x="438" y="10" type="move" name="bottom"/>
    </contour>
    <contour>
      <point x="849" y="1600" type="move" name="top_dd"/>
    </contour>
    <contour>
      <point x="849" y="-407" type="move" name="bottom_dd"/>
    </contour>
    <contour>
      <point x="849" y="1280" type="move" name="top0315"/>
    </contour>
  </outline>
</glyph>
<glyph name="w" format="1">
  <advance width="1337"/>
  <unicode hex="0077"/>
  <outline>
    <contour>
      <point x="397" y="251" type="line"/>
      <point x="351" y="0" type="line"/>
      <point x="427" y="0" type="line"/>
      <point x="658" y="860" type="line"/>
      <point x="696" y="1082" type="line"/>
      <point x="619" y="1082" type="line"/>
    </contour>
    <contour>
      <point x="183" y="1082" type="line"/>
      <point x="70" y="1082" type="line"/>
      <point x="334" y="0" type="line"/>
      <point x="413" y="0" type="line"/>
      <point x="377" y="246" type="line"/>
    </contour>
    <contour>
      <point x="959" y="250" type="line"/>
      <point x="918" y="0" type="line"/>
      <point x="996" y="0" type="line"/>
      <point x="1261" y="1082" type="line"/>
      <point x="1147" y="1082" type="line"/>
    </contour>
    <contour>
      <point x="712" y="1082" type="line"/>
      <point x="631" y="1082" type="line"/>
      <point x="667" y="861" type="line"/>
      <point x="903" y="0" type="line"/>
      <point x="980" y="0" type="line"/>
      <point x="930" y="259" type="line"/>
    </contour>
    <contour>
      <point x="662" y="1292" type="move" name="top"/>
    </contour>
    <contour>
      <point x="665" y="10" type="move" name="bottom"/>
    </contour>
    <contour>
      <point x="662" y="1292" type="move" name="marktop"/>
    </contour>
    <contour>
      <point x="1317" y="1600" type="move" name="top_dd"/>
    </contour>
    <contour>
      <point x="1317" y="-407" type="move" name="bottom_dd"/>
    </contour>
    <contour>
      <point x="1317" y="1292" type="move" name="top0315"/>
    </contour>
    <contour>
      <point x="662" y="1292" type="move" name="parent_top"/>
    </contour>
  </outline>
</glyph>
<glyph name="x" format="1">
  <advance width="880"/>
  <unicode hex="0078"/>
  <outline>
    <contour>
      <point x="202" y="1082" type="line"/>
      <point x="72" y="1082" type="line"/>
      <point x="378" y="551" type="line"/>
      <point x="59" y="0" type="line"/>
      <point x="190" y="0" type="line"/>
      <point x="439" y="456" type="line"/>
      <point x="689" y="0" type="line"/>
      <point x="819" y="0" type="line"/>
      <point x="500" y="551" type="line"/>
      <point x="806" y="1082" type="line"/>
      <point x="675" y="1082" type="line"/>
      <point x="438" y="646" type="line"/>
    </contour>
    <contour>
      <point x="450" y="10" type="move" name="bottom"/>
    </contour>
    <contour>
      <point x="757" y="0" type="move" name="right"/>
    </contour>
    <contour>
      <point x="443" y="553" type="move" name="cross"/>
    </contour>
    <contour>
      <point x="446" y="1280" type="move" name="top"/>
    </contour>
    <contour>
      <point x="860" y="1600" type="move" name="top_dd"/>
    </contour>
    <contour>
      <point x="860" y="-407" type="move" name="bottom_dd"/>
    </contour>
    <contour>
      <point x="860" y="1280" type="move" name="top0315"/>
    </contour>
  </outline>
</glyph>
<glyph name="y" format="1">
  <advance width="857"/>
  <unicode hex="0079"/>
  <outline>
    <contour>
      <point x="416" y="108" type="line"/>
      <point x="343" y="-133" type="line" smooth="yes"/>
      <point x="305" y="-263"/>
      <point x="253" y="-329"/>
      <point x="145" y="-329" type="curve" smooth="yes"/>
      <point x="136" y="-329"/>
      <point x="107" y="-325"/>
      <point x="95" y="-322" type="curve"/>
      <point x="96" y="-424" type="line"/>
      <point x="111" y="-430"/>
      <point x="152" y="-437"/>
      <point x="175" y="-437" type="curve" smooth="yes"/>
      <point x="340" y="-437"/>
      <point x="401" y="-272"/>
      <point x="432" y="-173" type="curve" smooth="yes"/>
      <point x="813" y="1082" type="line"/>
      <point x="694" y="1082" type="line"/>
    </contour>
    <contour>
      <point x="167" y="1082" type="line"/>
      <point x="46" y="1082" type="line"/>
      <point x="395" y="-21" type="line"/>
      <point x="476" y="29" type="line"/>
      <point x="446" y="155" type="line"/>
    </contour>
    <contour>
      <point x="451" y="1292" type="move" name="top"/>
    </contour>
    <contour>
      <point x="620" y="-158" type="move" name="bottom"/>
    </contour>
    <contour>
      <point x="451" y="1292" type="move" name="top"/>
    </contour>
    <contour>
      <point x="837" y="1600" type="move" name="top_dd"/>
    </contour>
    <contour>
      <point x="837" y="-407" type="move" name="bottom_dd"/>
    </contour>
    <contour>
      <point x="644" y="654" type="move" name="rhotichook"/>
    </contour>
    <contour>
      <point x="837" y="1292" type="move" name="top0315"/>
    </contour>
    <contour>
      <point x="451" y="1292" type="move" name="parent_top"/>
    </contour>
  </outline>
</glyph>
<glyph name="z" format="1">
  <advance width="880"/>
  <unicode hex="007A"/>
  <outline>
    <contour>
      <point x="810" y="104" type="line"/>
      <point x="134" y="104" type="line"/>
      <point x="134" y="0" type="line"/>
      <point x="810" y="0" type="line"/>
    </contour>
    <contour>
      <point x="775" y="992" type="line"/>
      <point x="775" y="1082" type="line"/>
      <point x="705" y="1082" type="line"/>
      <point x="94" y="91" type="line"/>
      <point x="94" y="0" type="line"/>
      <point x="162" y="0" type="line"/>
    </contour>
    <contour>
      <point x="726" y="1082" type="line"/>
      <point x="109" y="1082" type="line"/>
      <point x="109" y="977" type="line"/>
      <point x="726" y="977" type="line"/>
    </contour>
    <contour>
      <point x="451" y="1292" type="move" name="top"/>
    </contour>
    <contour>
      <point x="466" y="10" type="move" name="bottom"/>
    </contour>
    <contour>
      <point x="860" y="1600" type="move" name="top_dd"/>
    </contour>
    <contour>
      <point x="860" y="-407" type="move" name="bottom_dd"/>
    </contour>
    <contour>
      <point x="860" y="1292" type="move" name="top0315"/>
    </contour>
  </outline>
</glyph>
<glyph name="braceleft" format="2">
  <advance width="611"/>
  <unicode hex="007B"/>
  <outline>
    <contour>
      <point x="554" y="1597" type="line"/>
      <point x="335" y="1520"/>
      <point x="268" y="1342"/>
      <point x="268" y="1132" type="curve"/>
      <point x="268" y="906" type="line"/>
      <point x="268" y="749"/>
      <point x="212" y="649"/>
      <point x="77" y="649" type="curve"/>
      <point x="77" y="566" type="line"/>
      <point x="292" y="566"/>
      <point x="379" y="715"/>
      <point x="379" y="906" type="curve"/>
      <point x="379" y="1132" type="line"/>
      <point x="379" y="1313"/>
      <point x="433" y="1460"/>
      <point x="579" y="1517" type="curve"/>
    </contour>
    <contour>
      <point x="581" y="-322" type="line"/>
      <point x="435" y="-264"/>
      <point x="379" y="-122"/>
      <point x="379" y="60" type="curve" smooth="yes"/>
      <point x="379" y="286" type="line" smooth="yes"/>
      <point x="379" y="476"/>
      <point x="292" y="626"/>
      <point x="77" y="626" type="curve"/>
      <point x="77" y="543" type="line"/>
      <point x="212" y="543"/>
      <point x="268" y="442"/>
      <point x="268" y="286" type="curve" smooth="yes"/>
      <point x="268" y="60" type="line" smooth="yes"/>
      <point x="268" y="-150"/>
      <point x="335" y="-326"/>
      <point x="554" y="-403" type="curve"/>
    </contour>
  </outline>
</glyph>
<glyph name="sterling" format="2">
  <advance width="1026"/>
  <unicode hex="00A3"/>
  <outline>
    <contour>
      <point x="945" y="0" type="line"/>
      <point x="945" y="107" type="line"/>
      <point x="101" y="107" type="line"/>
      <point x="101" y="0" type="line"/>
    </contour>
    <contour>
      <point x="649" y="644" type="line"/>
      <point x="649" y="751" type="line"/>
      <point x="98" y="751" type="line"/>
      <point x="98" y="644" type="line"/>
    </contour>
    <contour>
      <point x="356" y="1039" type="line"/>
      <point x="356" y="1252"/>
      <point x="449" y="1369"/>
      <point x="580" y="1369" type="curve" smooth="yes"/>
      <point x="702" y="1369"/>
      <point x="808" y="1289"/>
      <point x="808" y="1088" type="curve"/>
      <point x="922" y="1088" type="line"/>
      <point x="922" y="1318"/>
      <point x="801" y="1476"/>
      <point x="588" y="1476" type="curve" smooth="yes"/>
      <point x="385" y="1476"/>
      <point x="242" y="1315"/>
      <point x="242" y="1039" type="curve" smooth="yes"/>
      <point x="260" y="369" type="line" smooth="yes"/>
      <point x="261" y="265"/>
      <point x="240" y="126"/>
      <point x="181" y="107" type="curve"/>
      <point x="288" y="68" type="line"/>
      <point x="347" y="123"/>
      <point x="376" y="233"/>
      <point x="374" y="370" type="curve" smooth="yes"/>
    </contour>
  </outline>
</glyph>
<glyph name="yen" format="1">
  <advance width="931"/>
  <unicode hex="00A5"/>
  <outline>
    <contour>
      <point x="815" y="707" type="line"/>
      <point x="114" y="707" type="line"/>
      <point x="114" y="616" type="line"/>
      <point x="815" y="616" type="line"/>
    </contour>
    <contour>
      <point x="815" y="414" type="line"/>
      <point x="114" y="414" type="line"/>
      <point x="114" y="324" type="line"/>
      <point x="815" y="324" type="line"/>
    </contour>
    <contour>
      <point x="446" y="701" type="line"/>
      <point x="439" y="616" type="line"/>
      <point x="518" y="616" type="line"/>
      <point x="890" y="1456" type="line"/>
      <point x="762" y="1456" type="line"/>
    </contour>
    <contour>
      <point x="168" y="1456" type="line"/>
      <point x="39" y="1456" type="line"/>
      <point x="411" y="616" type="line"/>
      <point x="490" y="616" type="line"/>
      <point x="486" y="698" type="line"/>
    </contour>
    <contour>
      <point x="520" y="732" type="line"/>
      <point x="405" y="732" type="line"/>
      <point x="405" y="0" type="line"/>
      <point x="520" y="0" type="line"/>
    </contour>
  </outline>
</glyph>
<glyph name="dieresis" format="2">
  <advance width="881"/>
  <unicode hex="00A8"/>
  <anchor x="437" y="1559" name="mkmktop_acc"/>
  <outline>
    <contour>
      <point x="138" y="1396" type="curve" smooth="yes"/>
      <point x="138" y="1351"/>
      <point x="168" y="1315"/>
      <point x="220" y="1315" type="curve" smooth="yes"/>
      <point x="271" y="1315"/>
      <point x="303" y="1351"/>
      <point x="303" y="1396" type="curve" smooth="yes"/>
      <point x="303" y="1441"/>
      <point x="271" y="1477"/>
      <point x="220" y="1477" type="curve" smooth="yes"/>
      <point x="168" y="1477"/>
      <point x="138" y="1441"/>
    </contour>
    <contour>
      <point x="575" y="1395" type="curve" smooth="yes"/>
      <point x="575" y="1350"/>
      <point x="606" y="1314"/>
      <point x="657" y="1314" type="curve" smooth="yes"/>
      <point x="709" y="1314"/>
      <point x="740" y="1350"/>
      <point x="740" y="1395" type="curve" smooth="yes"/>
      <point x="740" y="1440"/>
      <point x="709" y="1477"/>
      <point x="657" y="1477" type="curve" smooth="yes"/>
      <point x="606" y="1477"/>
      <point x="575" y="1440"/>
    </contour>
  </outline>
</glyph>
<glyph name="macron" format="1">
  <advance width="785"/>
  <unicode hex="00AF"/>
  <outline>
    <contour>
      <point x="665" y="1441" type="line"/>
      <point x="136" y="1441" type="line"/>
      <point x="136" y="1342" type="line"/>
      <point x="665" y="1342" type="line"/>
    </contour>
    <contour>
      <point x="397" y="1559" type="move" name="mkmktop_acc"/>
    </contour>
  </outline>
</glyph>
<glyph name="mu" format="1">
  <advance width="1001"/>
  <unicode hex="00B5"/>
  <outline>
    <contour>
      <point x="736" y="1082" type="line"/>
      <point x="736" y="250" type="line"/>
      <point x="746" y="0" type="line"/>
      <point x="847" y="0" type="line"/>
      <point x="847" y="1082" type="line"/>
    </contour>
    <contour>
      <point x="754" y="503" type="line"/>
      <point x="754" y="265"/>
      <point x="703" y="83"/>
      <point x="480" y="83" type="curve" smooth="yes"/>
      <point x="365" y="83"/>
      <point x="265" y="152"/>
      <point x="265" y="450" type="curve"/>
      <point x="194" y="450" type="line"/>
      <point x="209" y="270" type="line"/>
      <point x="245" y="52"/>
      <point x="353" y="-20"/>
      <point x="487" y="-20" type="curve" smooth="yes"/>
      <point x="713" y="-20"/>
      <point x="806" y="202"/>
      <point x="806" y="505" type="curve"/>
    </contour>
    <contour>
      <point x="156" y="1082" type="line"/>
      <point x="156" y="-416" type="line"/>
      <point x="265" y="-416" type="line"/>
      <point x="265" y="1082" type="line"/>
    </contour>
  </outline>
</glyph>
<glyph name="paragraph" format="2">
  <advance width="863"/>
  <unicode hex="00B6"/>
  <guideline x="0.0" y="901.0" angle="0.0" identifier="F72qvsyKbc"/>
  <guideline x="0.0" y="555.0" angle="0.0" identifier="kcMgyPtdaJ"/>
  <outline>
    <contour>
      <point x="698" y="0" type="line"/>
      <point x="698" y="1456" type="line"/>
      <point x="501" y="1456" type="line" smooth="yes"/>
      <point x="233" y="1456"/>
      <point x="87" y="1256"/>
      <point x="87" y="988" type="curve" smooth="yes"/>
      <point x="87" y="718"/>
      <point x="233" y="520"/>
      <point x="501" y="520" type="curve" smooth="yes"/>
      <point x="587" y="520" type="line"/>
      <point x="587" y="0" type="line"/>
    </contour>
  </outline>
</glyph>
<glyph name="periodcentered" format="1">
  <advance width="468"/>
  <unicode hex="00B7"/>
  <outline>
    <contour>
      <point x="155" y="718" type="curve" smooth="yes"/>
      <point x="155" y="671"/>
      <point x="182" y="635"/>
      <point x="231" y="635" type="curve" smooth="yes"/>
      <point x="279" y="635"/>
      <point x="307" y="671"/>
      <point x="307" y="718" type="curve" smooth="yes"/>
      <point x="307" y="765"/>
      <point x="279" y="802"/>
      <point x="231" y="802" type="curve" smooth="yes"/>
      <point x="182" y="802"/>
      <point x="155" y="765"/>
    </contour>
  </outline>
</glyph>
<glyph name="ordmasculine" format="1">
  <advance width="817"/>
  <unicode hex="00BA"/>
  <outline>
    <contour>
      <point x="132" y="1034" type="line"/>
      <point x="132" y="833"/>
      <point x="237" y="690"/>
      <point x="408" y="690" type="curve" smooth="yes"/>
      <point x="577" y="690"/>
      <point x="681" y="833"/>
      <point x="681" y="1034" type="curve"/>
      <point x="681" y="1132" type="line"/>
      <point x="681" y="1333"/>
      <point x="577" y="1476"/>
      <point x="406" y="1476" type="curve" smooth="yes"/>
      <point x="237" y="1476"/>
      <point x="132" y="1333"/>
      <point x="132" y="1132" type="curve"/>
    </contour>
    <contour>
      <point x="232" y="1132" type="line"/>
      <point x="232" y="1269"/>
      <point x="289" y="1378"/>
      <point x="406" y="1378" type="curve" smooth="yes"/>
      <point x="524" y="1378"/>
      <point x="582" y="1269"/>
      <point x="582" y="1132" type="curve"/>
      <point x="582" y="1034" type="line"/>
      <point x="582" y="896"/>
      <point x="524" y="788"/>
      <point x="408" y="788" type="curve" smooth="yes"/>
      <point x="286" y="788"/>
      <point x="232" y="896"/>
      <point x="232" y="1034" type="curve"/>
    </contour>
  </outline>
</glyph>
<glyph name="Aacute" format="1">
  <advance width="1124"/>
  <unicode hex="00C1"/>
  <outline>
    <contour>
      <point x="564" y="1606" type="move" name="parent_top"/>
    </contour>
    <contour>
      <point x="580" y="0" type="move" name="bottom"/>
    </contour>
    <contour>
      <point x="1104" y="1600" type="move" name="top_dd"/>
    </contour>
    <contour>
      <point x="1104" y="-407" type="move" name="bottom_dd"/>
    </contour>
    <contour>
      <point x="1104" y="1606" type="move" name="top0315"/>
    </contour>
    <contour>
      <point x="564" y="1907" type="move" name="top"/>
    </contour>
    <component base="A"/>
    <component base="acute" xOffset="368" yOffset="314"/>
  </outline>
</glyph>
<glyph name="AE" format="1">
  <advance width="1614"/>
  <unicode hex="00C6"/>
  <outline>
    <contour>
      <point x="833" y="1356" type="line"/>
      <point x="846" y="1456" type="line"/>
      <point x="770" y="1456" type="line"/>
      <point x="30" y="0" type="line"/>
      <point x="165" y="0" type="line"/>
    </contour>
    <contour>
      <point x="918" y="503" type="line"/>
      <point x="326" y="503" type="line"/>
      <point x="326" y="388" type="line"/>
      <point x="918" y="388" type="line"/>
    </contour>
    <contour>
      <point x="1561" y="104" type="line"/>
      <point x="945" y="104" type="line"/>
      <point x="945" y="0" type="line"/>
      <point x="1561" y="0" type="line"/>
    </contour>
    <contour>
      <point x="923" y="1456" type="line"/>
      <point x="812" y="1456" type="line"/>
      <point x="864" y="0" type="line"/>
      <point x="975" y="0" type="line"/>
    </contour>
    <contour>
      <point x="1441" y="810" type="line"/>
      <point x="912" y="810" type="line"/>
      <point x="912" y="707" type="line"/>
      <point x="1441" y="707" type="line"/>
    </contour>
    <contour>
      <point x="1509" y="1456" type="line"/>
      <point x="894" y="1456" type="line"/>
      <point x="894" y="1352" type="line"/>
      <point x="1509" y="1352" type="line"/>
    </contour>
    <contour>
      <point x="819" y="1612" type="move" name="top"/>
    </contour>
    <contour>
      <point x="1594" y="1600" type="move" name="top_dd"/>
    </contour>
    <contour>
      <point x="1594" y="1612" type="move" name="top0315"/>
    </contour>
  </outline>
</glyph>
<glyph name="Ecircumflex" format="1">
  <advance width="1019"/>
  <unicode hex="00CA"/>
  <outline>
    <component base="E"/>
    <component base="circumflex" xOffset="148" yOffset="320"/>
    <contour>
      <point x="540" y="1612" type="move" name="parent_top"/>
    </contour>
    <contour>
      <point x="540" y="10" type="move" name="bottom"/>
    </contour>
    <contour>
      <point x="999" y="1600" type="move" name="top_dd"/>
    </contour>
    <contour>
      <point x="999" y="-407" type="move" name="bottom_dd"/>
    </contour>
    <contour>
      <point x="999" y="1612" type="move" name="top0315"/>
    </contour>
    <contour>
      <point x="540" y="1942" type="move" name="top"/>
    </contour>
  </outline>
</glyph>
<glyph name="Icircumflex" format="1">
  <advance width="500"/>
  <unicode hex="00CE"/>
  <outline>
    <component base="I"/>
    <component base="circumflex" xOffset="-141" yOffset="320"/>
    <contour>
      <point x="251" y="1612" type="move" name="parent_top"/>
    </contour>
    <contour>
      <point x="251" y="5" type="move" name="bottom"/>
    </contour>
    <contour>
      <point x="480" y="1600" type="move" name="top_dd"/>
    </contour>
    <contour>
      <point x="480" y="-407" type="move" name="bottom_dd"/>
    </contour>
    <contour>
      <point x="480" y="1612" type="move" name="top0315"/>
    </contour>
    <contour>
      <point x="251" y="1942" type="move" name="top"/>
    </contour>
  </outline>
</glyph>
<glyph name="Ntilde" format="1">
  <advance width="1263"/>
  <unicode hex="00D1"/>
  <outline>
    <contour>
      <point x="630" y="1606" type="move" name="parent_top"/>
    </contour>
    <contour>
      <point x="627" y="10" type="move" name="bottom"/>
    </contour>
    <contour>
      <point x="1243" y="1600" type="move" name="top_dd"/>
    </contour>
    <contour>
      <point x="1243" y="-407" type="move" name="bottom_dd"/>
    </contour>
    <contour>
      <point x="1243" y="1606" type="move" name="top0315"/>
    </contour>
    <contour>
      <point x="629" y="1879" type="move" name="top"/>
    </contour>
    <component base="N"/>
    <component base="tilde" xOffset="236" yOffset="324"/>
  </outline>
</glyph>
<glyph name="Otilde" format="1">
  <advance width="1208"/>
  <unicode hex="00D5"/>
  <outline>
    <contour>
      <point x="603" y="1617" type="move" name="parent_top"/>
    </contour>
    <contour>
      <point x="606" y="-1" type="move" name="bottom"/>
    </contour>
    <contour>
      <point x="1188" y="1600" type="move" name="top_dd"/>
    </contour>
    <contour>
      <point x="1188" y="-407" type="move" name="bottom_dd"/>
    </contour>
    <contour>
      <point x="1188" y="1617" type="move" name="top0315"/>
    </contour>
    <contour>
      <point x="602" y="1890" type="move" name="top"/>
    </contour>
    <component base="O"/>
    <component base="tilde" xOffset="209" yOffset="335"/>
  </outline>
</glyph>
<glyph name="Udieresis" format="1">
  <advance width="1168"/>
  <unicode hex="00DC"/>
  <outline>
    <contour>
      <point x="591" y="1606" type="move" name="parent_top"/>
    </contour>
    <contour>
      <point x="585" y="0" type="move" name="bottom"/>
    </contour>
    <contour>
      <point x="1148" y="1600" type="move" name="top_dd"/>
    </contour>
    <contour>
      <point x="1148" y="-407" type="move" name="bottom_dd"/>
    </contour>
    <contour>
      <point x="1148" y="1606" type="move" name="top0315"/>
    </contour>
    <contour>
      <point x="591" y="1873" type="move" name="top"/>
    </contour>
    <component base="U"/>
    <component base="dieresis" xOffset="154" yOffset="314"/>
  </outline>
</glyph>
<glyph name="Yacute" format="1">
  <advance width="1071"/>
  <unicode hex="00DD"/>
  <outline>
    <contour>
      <point x="536" y="1601" type="move" name="parent_top"/>
    </contour>
    <contour>
      <point x="535" y="5" type="move" name="bottom"/>
    </contour>
    <contour>
      <point x="1051" y="1600" type="move" name="top_dd"/>
    </contour>
    <contour>
      <point x="1051" y="-407" type="move" name="bottom_dd"/>
    </contour>
    <contour>
      <point x="1051" y="1601" type="move" name="top0315"/>
    </contour>
    <contour>
      <point x="536" y="1902" type="move" name="top"/>
    </contour>
    <component base="Y"/>
    <component base="acute" xOffset="340" yOffset="309"/>
  </outline>
</glyph>
<glyph name="Thorn" format="1">
  <advance width="1059"/>
  <unicode hex="00DE"/>
  <outline>
    <contour>
      <point x="171" y="1456" type="line"/>
      <point x="171" y="0" type="line"/>
      <point x="282" y="0" type="line"/>
      <point x="282" y="1456" type="line"/>
    </contour>
    <contour>
      <point x="224" y="1153" type="line"/>
      <point x="274" y="1050" type="line"/>
      <point x="547" y="1050" type="line" smooth="yes"/>
      <point x="750" y="1050"/>
      <point x="833" y="892"/>
      <point x="833" y="736" type="curve" smooth="yes"/>
      <point x="833" y="586"/>
      <point x="750" y="427"/>
      <point x="547" y="427" type="curve" smooth="yes"/>
      <point x="248" y="427" type="line"/>
      <point x="248" y="324" type="line"/>
      <point x="547" y="324" type="line" smooth="yes"/>
      <point x="804" y="324"/>
      <point x="944" y="499"/>
      <point x="944" y="738" type="curve" smooth="yes"/>
      <point x="944" y="977"/>
      <point x="804" y="1153"/>
      <point x="547" y="1153" type="curve" smooth="yes"/>
    </contour>
  </outline>
</glyph>
<glyph name="agrave" format="1">
  <advance width="965"/>
  <unicode hex="00E0"/>
  <outline>
    <contour>
      <point x="507" y="1291" type="move" name="parent_top"/>
    </contour>
    <contour>
      <point x="443" y="0" type="move" name="bottom"/>
    </contour>
    <contour>
      <point x="945" y="1600" type="move" name="top_dd"/>
    </contour>
    <contour>
      <point x="945" y="-407" type="move" name="bottom_dd"/>
    </contour>
    <contour>
      <point x="945" y="1291" type="move" name="top0315"/>
    </contour>
    <contour>
      <point x="507" y="1592" type="move" name="top"/>
    </contour>
    <component base="a"/>
    <component base="grave" xOffset="142" yOffset="-1"/>
  </outline>
</glyph>
<glyph name="atilde" format="1">
  <advance width="965"/>
  <unicode hex="00E3"/>
  <outline>
    <contour>
      <point x="507" y="1291" type="move" name="parent_top"/>
    </contour>
    <contour>
      <point x="443" y="0" type="move" name="bottom"/>
    </contour>
    <contour>
      <point x="945" y="1600" type="move" name="top_dd"/>
    </contour>
    <contour>
      <point x="945" y="-407" type="move" name="bottom_dd"/>
    </contour>
    <contour>
      <point x="945" y="1291" type="move" name="top0315"/>
    </contour>
    <contour>
      <point x="506" y="1564" type="move" name="top"/>
    </contour>
    <component base="a"/>
    <component base="tilde" xOffset="113" yOffset="9"/>
  </outline>
</glyph>
<glyph name="aring" format="1">
  <advance width="965"/>
  <unicode hex="00E5"/>
  <outline>
    <contour>
      <point x="507" y="1291" type="move" name="parent_top"/>
    </contour>
    <contour>
      <point x="443" y="0" type="move" name="bottom"/>
    </contour>
    <contour>
      <point x="945" y="1600" type="move" name="top_dd"/>
    </contour>
    <contour>
      <point x="945" y="-407" type="move" name="bottom_dd"/>
    </contour>
    <contour>
      <point x="945" y="1291" type="move" name="top0315"/>
    </contour>
    <contour>
      <point x="507" y="1661" type="move" name="top"/>
    </contour>
    <component base="a"/>
    <component base="ring" xOffset="197" yOffset="5"/>
  </outline>
</glyph>
<glyph name="igrave" format="1">
  <advance width="431"/>
  <unicode hex="00EC"/>
  <outline>
    <component base="dotlessi"/>
    <component base="grave" xOffset="-148" yOffset="-13"/>
    <contour>
      <point x="217" y="1279" type="move" name="parent_top"/>
    </contour>
    <contour>
      <point x="216" y="10" type="move" name="bottom"/>
    </contour>
    <contour>
      <point x="411" y="1279" type="move" name="top0315"/>
    </contour>
    <contour>
      <point x="217" y="1580" type="move" name="top"/>
    </contour>
  </outline>
</glyph>
<glyph name="icircumflex" format="1">
  <advance width="431"/>
  <unicode hex="00EE"/>
  <outline>
    <contour>
      <point x="217" y="1279" type="move" name="parent_top"/>
    </contour>
    <contour>
      <point x="216" y="10" type="move" name="bottom"/>
    </contour>
    <contour>
      <point x="411" y="1279" type="move" name="top0315"/>
    </contour>
    <contour>
      <point x="217" y="1609" type="move" name="top"/>
    </contour>
    <component base="dotlessi"/>
    <component base="circumflex" xOffset="-175" yOffset="-13"/>
  </outline>
</glyph>
<glyph name="divide" format="2">
  <advance width="1019"/>
  <unicode hex="00F7"/>
  <outline>
    <contour>
      <point x="919" y="762" type="line"/>
      <point x="80" y="762" type="line"/>
      <point x="80" y="642" type="line"/>
      <point x="919" y="642" type="line"/>
    </contour>
    <contour>
      <point x="431" y="1089" type="curve" smooth="yes"/>
      <point x="431" y="1042"/>
      <point x="458" y="1006"/>
      <point x="507" y="1006" type="curve" smooth="yes"/>
      <point x="555" y="1006"/>
      <point x="583" y="1042"/>
      <point x="583" y="1089" type="curve" smooth="yes"/>
      <point x="583" y="1136"/>
      <point x="555" y="1174"/>
      <point x="507" y="1174" type="curve" smooth="yes"/>
      <point x="458" y="1174"/>
      <point x="431" y="1136"/>
    </contour>
    <contour>
      <point x="431" y="291" type="curve" smooth="yes"/>
      <point x="431" y="245"/>
      <point x="458" y="208"/>
      <point x="507" y="208" type="curve" smooth="yes"/>
      <point x="555" y="208"/>
      <point x="583" y="245"/>
      <point x="583" y="291" type="curve" smooth="yes"/>
      <point x="583" y="339"/>
      <point x="555" y="376"/>
      <point x="507" y="376" type="curve" smooth="yes"/>
      <point x="458" y="376"/>
      <point x="431" y="339"/>
    </contour>
  </outline>
</glyph>
<glyph name="oslash" format="2">
  <advance width="1001"/>
  <unicode hex="00F8"/>
  <anchor x="462" y="1289" name="top"/>
  <anchor x="981" y="1600" name="top_dd"/>
  <anchor x="981" y="1289" name="top0315"/>
  <anchor x="462" y="1289" name="parent_top"/>
  <outline>
    <contour>
      <point x="828" y="1214" type="line"/>
      <point x="745" y="1214" type="line"/>
      <point x="188" y="-140" type="line"/>
      <point x="271" y="-140" type="line"/>
    </contour>
    <contour>
      <point x="95" y="525" type="line"/>
      <point x="95" y="210"/>
      <point x="256" y="-20"/>
      <point x="503" y="-20" type="curve" smooth="yes"/>
      <point x="751" y="-20"/>
      <point x="910" y="210"/>
      <point x="910" y="525" type="curve"/>
      <point x="910" y="557" type="line"/>
      <point x="910" y="872"/>
      <point x="751" y="1102"/>
      <point x="502" y="1102" type="curve" smooth="yes"/>
      <point x="256" y="1102"/>
      <point x="95" y="872"/>
      <point x="95" y="557" type="curve"/>
    </contour>
    <contour>
      <point x="206" y="557" type="line"/>
      <point x="206" y="789"/>
      <point x="310" y="998"/>
      <point x="502" y="998" type="curve" smooth="yes"/>
      <point x="695" y="998"/>
      <point x="799" y="789"/>
      <point x="799" y="557" type="curve"/>
      <point x="799" y="525" type="line"/>
      <point x="799" y="288"/>
      <point x="695" y="84"/>
      <point x="503" y="84" type="curve" smooth="yes"/>
      <point x="310" y="84"/>
      <point x="206" y="288"/>
      <point x="206" y="525" type="curve"/>
    </contour>
  </outline>
</glyph>
<glyph name="ucircumflex" format="1">
  <advance width="986"/>
  <unicode hex="00FB"/>
  <outline>
    <contour>
      <point x="501" y="1292" type="move" name="parent_top"/>
    </contour>
    <contour>
      <point x="966" y="1600" type="move" name="top_dd"/>
    </contour>
    <contour>
      <point x="966" y="-407" type="move" name="bottom_dd"/>
    </contour>
    <contour>
      <point x="966" y="1292" type="move" name="top0315"/>
    </contour>
    <contour>
      <point x="492" y="0" type="move" name="bottom"/>
    </contour>
    <contour>
      <point x="501" y="1622" type="move" name="top"/>
    </contour>
    <component base="u"/>
    <component base="circumflex" xOffset="109"/>
  </outline>
</glyph>
<glyph name="yacute" format="1">
  <advance width="857"/>
  <unicode hex="00FD"/>
  <outline>
    <component base="y"/>
    <component base="acute" xOffset="255"/>
    <contour>
      <point x="451" y="1292" type="move" name="parent_top"/>
    </contour>
    <contour>
      <point x="620" y="-158" type="move" name="bottom"/>
    </contour>
    <contour>
      <point x="837" y="1600" type="move" name="top_dd"/>
    </contour>
    <contour>
      <point x="837" y="-407" type="move" name="bottom_dd"/>
    </contour>
    <contour>
      <point x="837" y="1292" type="move" name="top0315"/>
    </contour>
    <contour>
      <point x="451" y="1593" type="move" name="top"/>
    </contour>
  </outline>
</glyph>
<glyph name="amacron" format="1">
  <advance width="965"/>
  <unicode hex="0101"/>
  <outline>
    <component base="a"/>
    <component base="macron" xOffset="110" yOffset="9"/>
    <contour>
      <point x="507" y="1291" type="move" name="parent_top"/>
    </contour>
    <contour>
      <point x="443" y="0" type="move" name="bottom"/>
    </contour>
    <contour>
      <point x="945" y="1600" type="move" name="top_dd"/>
    </contour>
    <contour>
      <point x="945" y="-407" type="move" name="bottom_dd"/>
    </contour>
    <contour>
      <point x="945" y="1291" type="move" name="top0315"/>
    </contour>
    <contour>
      <point x="507" y="1568" type="move" name="top"/>
    </contour>
  </outline>
</glyph>
<glyph name="Aogonek" format="2">
  <advance width="1124"/>
  <unicode hex="0104"/>
  <anchor x="564" y="1606" name="parent_top"/>
  <anchor x="580" y="0" name="bottom"/>
  <anchor x="1104" y="1600" name="top_dd"/>
  <anchor x="1104" y="-407" name="bottom_dd"/>
  <anchor x="1104" y="1606" name="top0315"/>
  <anchor x="564" y="1606" name="top"/>
  <outline>
    <contour>
      <point x="584" y="1368" type="line"/>
      <point x="590" y="1456" type="line"/>
      <point x="509" y="1456" type="line"/>
      <point x="45" y="0" type="line"/>
      <point x="164" y="0" type="line"/>
    </contour>
    <contour>
      <point x="960" y="0" type="line"/>
      <point x="1079" y="0" type="line"/>
      <point x="615" y="1456" type="line"/>
      <point x="535" y="1456" type="line"/>
      <point x="540" y="1368" type="line"/>
    </contour>
    <contour>
      <point x="895" y="514" type="line"/>
      <point x="238" y="514" type="line"/>
      <point x="238" y="407" type="line"/>
      <point x="895" y="407" type="line"/>
    </contour>
    <contour>
      <point x="1008" y="39" type="line"/>
      <point x="884" y="-40"/>
      <point x="811" y="-144"/>
      <point x="811" y="-245" type="curve" smooth="yes"/>
      <point x="811" y="-358"/>
      <point x="873" y="-415"/>
      <point x="957" y="-415" type="curve" smooth="yes"/>
      <point x="1018" y="-415"/>
      <point x="1056" y="-391"/>
      <point x="1080" y="-371" type="curve"/>
      <point x="1068" y="-285" type="line"/>
      <point x="1050" y="-299"/>
      <point x="1021" y="-318"/>
      <point x="981" y="-318" type="curve" smooth="yes"/>
      <point x="927" y="-318"/>
      <point x="910" y="-280"/>
      <point x="910" y="-234" type="curve" smooth="yes"/>
      <point x="910" y="-142"/>
      <point x="984" y="-69"/>
      <point x="1060" y="0" type="curve"/>
    </contour>
  </outline>
</glyph>
<glyph name="uni010B" format="1">
  <advance width="929"/>
  <unicode hex="010B"/>
  <outline>
    <component base="c"/>
    <component base="dotaccent" xOffset="241" yOffset="-2"/>
    <contour>
      <point x="472" y="1290" type="move" name="parent_top"/>
    </contour>
    <contour>
      <point x="472" y="-10" type="move" name="bottom"/>
    </contour>
    <contour>
      <point x="909" y="1600" type="move" name="top_dd"/>
    </contour>
    <contour>
      <point x="909" y="-407" type="move" name="bottom_dd"/>
    </contour>
    <contour>
      <point x="909" y="1290" type="move" name="top0315"/>
    </contour>
    <contour>
      <point x="471" y="1541" type="move" name="top"/>
    </contour>
  </outline>
</glyph>
<glyph name="Ccaron" format="1">
  <advance width="1158"/>
  <unicode hex="010C"/>
  <outline>
    <contour>
      <point x="590" y="1633" type="move" name="parent_top"/>
    </contour>
    <contour>
      <point x="590" y="-10" type="move" name="bottom"/>
    </contour>
    <contour>
      <point x="1138" y="1600" type="move" name="top_dd"/>
    </contour>
    <contour>
      <point x="1138" y="-407" type="move" name="bottom_dd"/>
    </contour>
    <contour>
      <point x="1138" y="1633" type="move" name="top0315"/>
    </contour>
    <contour>
      <point x="590" y="1929" type="move" name="top"/>
    </contour>
    <component base="C"/>
    <component base="caron" xOffset="210" yOffset="344"/>
  </outline>
</glyph>
<glyph name="ccaron" format="1">
  <advance width="929"/>
  <unicode hex="010D"/>
  <outline>
    <component base="c"/>
    <component base="caron" xOffset="92" yOffset="1"/>
    <contour>
      <point x="472" y="1290" type="move" name="parent_top"/>
    </contour>
    <contour>
      <point x="472" y="-10" type="move" name="bottom"/>
    </contour>
    <contour>
      <point x="909" y="1600" type="move" name="top_dd"/>
    </contour>
    <contour>
      <point x="909" y="-407" type="move" name="bottom_dd"/>
    </contour>
    <contour>
      <point x="909" y="1290" type="move" name="top0315"/>
    </contour>
    <contour>
      <point x="472" y="1586" type="move" name="top"/>
    </contour>
  </outline>
</glyph>
<glyph name="Dcaron" format="1">
  <advance width="1167"/>
  <unicode hex="010E"/>
  <outline>
    <component base="D"/>
    <component base="caron" xOffset="145" yOffset="323"/>
    <contour>
      <point x="525" y="1612" type="move" name="parent_top"/>
    </contour>
    <contour>
      <point x="527" y="10" type="move" name="bottom"/>
    </contour>
    <contour>
      <point x="1147" y="1600" type="move" name="top_dd"/>
    </contour>
    <contour>
      <point x="1147" y="-407" type="move" name="bottom_dd"/>
    </contour>
    <contour>
      <point x="1147" y="1612" type="move" name="top0315"/>
    </contour>
    <contour>
      <point x="525" y="1908" type="move" name="top"/>
    </contour>
  </outline>
</glyph>
<glyph name="dcaron" format="1">
  <advance width="1149"/>
  <unicode hex="010F"/>
  <outline>
    <contour>
      <point x="531" y="0" type="move" name="bottom"/>
    </contour>
    <contour>
      <point x="477" y="1616" type="move" name="parent_top"/>
    </contour>
    <contour>
      <point x="1129" y="1600" type="move" name="top_dd"/>
    </contour>
    <contour>
      <point x="1129" y="-407" type="move" name="bottom_dd"/>
    </contour>
    <contour>
      <point x="1129" y="1616" type="move" name="top0315"/>
    </contour>
    <contour>
      <point x="477" y="1616" type="move" name="top"/>
    </contour>
    <component base="d"/>
    <component base="commaaccent" xOffset="804" yOffset="1358"/>
  </outline>
</glyph>
<glyph name="Dcroat" format="2">
  <advance width="1197"/>
  <unicode hex="0110"/>
  <anchor x="525" y="1612" name="parent_top"/>
  <anchor x="527" y="10" name="bottom"/>
  <anchor x="1177" y="1600" name="top_dd"/>
  <anchor x="1177" y="-407" name="bottom_dd"/>
  <anchor x="1177" y="1612" name="top0315"/>
  <anchor x="525" y="1612" name="top"/>
  <outline>
    <contour>
      <point x="537" y="0" type="line"/>
      <point x="855" y="0"/>
      <point x="1062" y="205"/>
      <point x="1062" y="582" type="curve"/>
      <point x="1062" y="874" type="line"/>
      <point x="1062" y="1250"/>
      <point x="854" y="1456"/>
      <point x="545" y="1456" type="curve"/>
      <point x="259" y="1456" type="line"/>
      <point x="259" y="1349" type="line"/>
      <point x="545" y="1349" type="line"/>
      <point x="796" y="1349"/>
      <point x="949" y="1187"/>
      <point x="949" y="876" type="curve"/>
      <point x="949" y="582" type="line" smooth="yes"/>
      <point x="949" y="276"/>
      <point x="799" y="107"/>
      <point x="537" y="107" type="curve"/>
      <point x="265" y="107" type="line"/>
      <point x="264" y="0" type="line"/>
    </contour>
    <contour>
      <point x="317" y="1456" type="line"/>
      <point x="203" y="1456" type="line"/>
      <point x="203" y="0" type="line"/>
      <point x="317" y="0" type="line"/>
    </contour>
    <contour>
      <point x="591" y="792" type="line"/>
      <point x="73" y="792" type="line"/>
      <point x="73" y="688" type="line"/>
      <point x="591" y="688" type="line"/>
    </contour>
  </outline>
</glyph>
<glyph name="Dcroat" format="1">
  <advance width="1197"/>
  <unicode hex="0110"/>
  <outline>
    <contour>
      <point x="525" y="1612" type="move" name="parent_top"/>
    </contour>
    <contour>
      <point x="527" y="10" type="move" name="bottom"/>
    </contour>
    <contour>
      <point x="1177" y="1600" type="move" name="top_dd"/>
    </contour>
    <contour>
      <point x="1177" y="-407" type="move" name="bottom_dd"/>
    </contour>
    <contour>
      <point x="1177" y="1612" type="move" name="top0315"/>
    </contour>
    <contour>
      <point x="525" y="1612" type="move" name="top"/>
    </contour>
    <contour>
      <point x="537" y="0" type="line"/>
      <point x="855" y="0"/>
      <point x="1062" y="205"/>
      <point x="1062" y="582" type="curve"/>
      <point x="1062" y="874" type="line"/>
      <point x="1062" y="1250"/>
      <point x="854" y="1456"/>
      <point x="545" y="1456" type="curve"/>
      <point x="259" y="1456" type="line"/>
      <point x="259" y="1349" type="line"/>
      <point x="545" y="1349" type="line"/>
      <point x="796" y="1349"/>
      <point x="949" y="1187"/>
      <point x="949" y="876" type="curve"/>
      <point x="949" y="582" type="line" smooth="yes"/>
      <point x="949" y="276"/>
      <point x="799" y="107"/>
      <point x="537" y="107" type="curve"/>
      <point x="265" y="107" type="line"/>
      <point x="264" y="0" type="line"/>
    </contour>
    <contour>
      <point x="317" y="1456" type="line"/>
      <point x="203" y="1456" type="line"/>
      <point x="203" y="0" type="line"/>
      <point x="317" y="0" type="line"/>
    </contour>
    <contour>
      <point x="591" y="792" type="line"/>
      <point x="73" y="792" type="line"/>
      <point x="73" y="688" type="line"/>
      <point x="591" y="688" type="line"/>
    </contour>
  </outline>
</glyph>
<glyph name="dcroat" format="1">
  <advance width="1033"/>
  <unicode hex="0111"/>
  <outline>
    <contour>
      <point x="952" y="1536" type="move" name="caron"/>
    </contour>
    <contour>
      <point x="531" y="0" type="move" name="bottom"/>
    </contour>
    <contour>
      <point x="477" y="1612" type="move" name="top"/>
    </contour>
    <contour>
      <point x="979" y="1600" type="move" name="top_dd"/>
    </contour>
    <contour>
      <point x="979" y="-407" type="move" name="bottom_dd"/>
    </contour>
    <contour>
      <point x="531" y="0" type="move" name="markbottom"/>
    </contour>
    <contour>
      <point x="1013" y="1612" type="move" name="top0315"/>
    </contour>
    <contour>
      <point x="736" y="1308" type="move" name="parenthesses.w2"/>
    </contour>
    <contour>
      <point x="737" y="210" type="line"/>
      <point x="744" y="0" type="line"/>
      <point x="848" y="0" type="line"/>
      <point x="848" y="1536" type="line"/>
      <point x="737" y="1536" type="line"/>
    </contour>
    <contour>
      <point x="109" y="530" type="line"/>
      <point x="109" y="207"/>
      <point x="246" y="-20"/>
      <point x="460" y="-20" type="curve" smooth="yes"/>
      <point x="680" y="-20"/>
      <point x="795" y="156"/>
      <point x="821" y="401" type="curve"/>
      <point x="821" y="664" type="line"/>
      <point x="790" y="926"/>
      <point x="678" y="1102"/>
      <point x="462" y="1102" type="curve" smooth="yes"/>
      <point x="245" y="1102"/>
      <point x="109" y="886"/>
      <point x="109" y="551" type="curve" smooth="yes"/>
    </contour>
    <contour>
      <point x="221" y="551" type="line"/>
      <point x="221" y="801"/>
      <point x="302" y="996"/>
      <point x="484" y="996" type="curve" smooth="yes"/>
      <point x="670" y="996"/>
      <point x="741" y="824"/>
      <point x="766" y="684" type="curve"/>
      <point x="766" y="375" type="line"/>
      <point x="734" y="218"/>
      <point x="652" y="87"/>
      <point x="482" y="87" type="curve" smooth="yes"/>
      <point x="302" y="87"/>
      <point x="221" y="279"/>
      <point x="221" y="530" type="curve" smooth="yes"/>
    </contour>
    <contour>
      <point x="996" y="1360" type="line"/>
      <point x="478" y="1360" type="line"/>
      <point x="478" y="1257" type="line"/>
      <point x="996" y="1257" type="line"/>
    </contour>
  </outline>
</glyph>
<glyph name="Eogonek" format="1">
  <advance width="1019"/>
  <unicode hex="0118"/>
  <outline>
    <contour>
      <point x="540" y="1612" type="move" name="parent_top"/>
    </contour>
    <contour>
      <point x="540" y="10" type="move" name="bottom"/>
    </contour>
    <contour>
      <point x="999" y="1600" type="move" name="top_dd"/>
    </contour>
    <contour>
      <point x="999" y="-407" type="move" name="bottom_dd"/>
    </contour>
    <contour>
      <point x="999" y="1612" type="move" name="top0315"/>
    </contour>
    <contour>
      <point x="540" y="1612" type="move" name="top"/>
    </contour>
    <contour>
      <point x="936" y="107" type="line"/>
      <point x="256" y="107" type="line"/>
      <point x="256" y="0" type="line"/>
      <point x="936" y="0" type="line"/>
    </contour>
    <contour>
      <point x="287" y="1456" type="line"/>
      <point x="173" y="1456" type="line"/>
      <point x="173" y="0" type="line"/>
      <point x="287" y="0" type="line"/>
    </contour>
    <contour>
      <point x="851" y="804" type="line"/>
      <point x="256" y="804" type="line"/>
      <point x="256" y="697" type="line"/>
      <point x="851" y="697" type="line"/>
    </contour>
    <contour>
      <point x="931" y="1456" type="line"/>
      <point x="256" y="1456" type="line"/>
      <point x="256" y="1349" type="line"/>
      <point x="931" y="1349" type="line"/>
    </contour>
    <contour>
      <point x="828" y="39" type="line"/>
      <point x="704" y="-40"/>
      <point x="631" y="-144"/>
      <point x="631" y="-245" type="curve" smooth="yes"/>
      <point x="631" y="-358"/>
      <point x="693" y="-415"/>
      <point x="777" y="-415" type="curve" smooth="yes"/>
      <point x="838" y="-415"/>
      <point x="876" y="-391"/>
      <point x="900" y="-371" type="curve"/>
      <point x="888" y="-285" type="line"/>
      <point x="870" y="-299"/>
      <point x="841" y="-318"/>
      <point x="801" y="-318" type="curve" smooth="yes"/>
      <point x="747" y="-318"/>
      <point x="730" y="-280"/>
      <point x="730" y="-234" type="curve" smooth="yes"/>
      <point x="730" y="-142"/>
      <point x="804" y="-69"/>
      <point x="880" y="0" type="curve"/>
    </contour>
  </outline>
</glyph>
<glyph name="eogonek" format="2">
  <advance width="938"/>
  <unicode hex="0119"/>
  <anchor x="495" y="1291" name="parent_top"/>
  <anchor x="496" y="2" name="bottom"/>
  <anchor x="914" y="1600" name="top_dd"/>
  <anchor x="914" y="-407" name="bottom_dd"/>
  <anchor x="914" y="1291" name="top0315"/>
  <anchor x="495" y="1291" name="top"/>
  <outline>
    <contour>
      <point x="506" y="-21" type="curve"/>
      <point x="671" y="-21"/>
      <point x="769" y="46"/>
      <point x="828" y="125" type="curve"/>
      <point x="769" y="199" type="line"/>
      <point x="703" y="121"/>
      <point x="622" y="83"/>
      <point x="511" y="83" type="curve" smooth="yes"/>
      <point x="329" y="83"/>
      <point x="207" y="207"/>
      <point x="207" y="470" type="curve" smooth="yes"/>
      <point x="207" y="594" type="line" smooth="yes"/>
      <point x="207" y="885"/>
      <point x="321" y="998"/>
      <point x="487" y="998" type="curve"/>
      <point x="655" y="998"/>
      <point x="734" y="875"/>
      <point x="738" y="664" type="curve"/>
      <point x="738" y="636" type="line"/>
      <point x="163" y="636" type="line"/>
      <point x="163" y="532" type="line"/>
      <point x="849" y="532" type="line"/>
      <point x="849" y="625" type="line" smooth="yes"/>
      <point x="849" y="949"/>
      <point x="724" y="1102"/>
      <point x="487" y="1102" type="curve" smooth="yes"/>
      <point x="280" y="1102"/>
      <point x="96" y="955"/>
      <point x="96" y="594" type="curve" smooth="yes"/>
      <point x="96" y="470" type="line" smooth="yes"/>
      <point x="96" y="135"/>
      <point x="265" y="-21"/>
    </contour>
    <contour>
      <point x="657" y="81" type="line"/>
      <point x="533" y="2"/>
      <point x="460" y="-102"/>
      <point x="460" y="-203" type="curve" smooth="yes"/>
      <point x="460" y="-316"/>
      <point x="522" y="-373"/>
      <point x="606" y="-373" type="curve" smooth="yes"/>
      <point x="667" y="-373"/>
      <point x="705" y="-349"/>
      <point x="729" y="-329" type="curve"/>
      <point x="717" y="-243" type="line"/>
      <point x="699" y="-257"/>
      <point x="670" y="-276"/>
      <point x="630" y="-276" type="curve" smooth="yes"/>
      <point x="576" y="-276"/>
      <point x="559" y="-238"/>
      <point x="559" y="-192" type="curve" smooth="yes"/>
      <point x="559" y="-100"/>
      <point x="633" y="-27"/>
      <point x="709" y="42" type="curve"/>
    </contour>
  </outline>
</glyph>
<glyph name="ecaron" format="1">
  <advance width="938"/>
  <unicode hex="011B"/>
  <outline>
    <contour>
      <point x="495" y="1291" type="move" name="parent_top"/>
    </contour>
    <contour>
      <point x="496" y="2" type="move" name="bottom"/>
    </contour>
    <contour>
      <point x="914" y="1600" type="move" name="top_dd"/>
    </contour>
    <contour>
      <point x="914" y="-407" type="move" name="bottom_dd"/>
    </contour>
    <contour>
      <point x="914" y="1291" type="move" name="top0315"/>
    </contour>
    <contour>
      <point x="495" y="1587" type="move" name="top"/>
    </contour>
    <component base="e"/>
    <component base="caron" xOffset="115" yOffset="2"/>
  </outline>
</glyph>
<glyph name="Gbreve" format="1">
  <advance width="1216"/>
  <unicode hex="011E"/>
  <outline>
    <component base="G"/>
    <component base="breve" xOffset="167" yOffset="344"/>
    <contour>
      <point x="595" y="1633" type="move" name="parent_top"/>
    </contour>
    <contour>
      <point x="633" y="-5" type="move" name="bottom"/>
    </contour>
    <contour>
      <point x="1196" y="1600" type="move" name="top_dd"/>
    </contour>
    <contour>
      <point x="1196" y="-407" type="move" name="bottom_dd"/>
    </contour>
    <contour>
      <point x="1196" y="1633" type="move" name="top0315"/>
    </contour>
    <contour>
      <point x="595" y="1905" type="move" name="top"/>
    </contour>
  </outline>
</glyph>
<glyph name="uni0120" format="1">
  <advance width="1216"/>
  <unicode hex="0120"/>
  <outline>
    <contour>
      <point x="595" y="1633" type="move" name="parent_top"/>
    </contour>
    <contour>
      <point x="633" y="-5" type="move" name="bottom"/>
    </contour>
    <contour>
      <point x="1196" y="1600" type="move" name="top_dd"/>
    </contour>
    <contour>
      <point x="1196" y="-407" type="move" name="bottom_dd"/>
    </contour>
    <contour>
      <point x="1196" y="1633" type="move" name="top0315"/>
    </contour>
    <contour>
      <point x="594" y="1884" type="move" name="top"/>
    </contour>
    <component base="G"/>
    <component base="dotaccent" xOffset="364" yOffset="341"/>
  </outline>
</glyph>
<glyph name="uni0121" format="1">
  <advance width="997"/>
  <unicode hex="0121"/>
  <outline>
    <component base="g"/>
    <component base="dotaccent" xOffset="260" yOffset="-2"/>
    <contour>
      <point x="491" y="1290" type="move" name="parent_top"/>
    </contour>
    <contour>
      <point x="485" y="-447" type="move" name="bottom"/>
    </contour>
    <contour>
      <point x="977" y="1600" type="move" name="top_dd"/>
    </contour>
    <contour>
      <point x="977" y="-407" type="move" name="bottom_dd"/>
    </contour>
    <contour>
      <point x="977" y="1290" type="move" name="top0315"/>
    </contour>
    <contour>
      <point x="490" y="1541" type="move" name="top"/>
    </contour>
  </outline>
</glyph>
<glyph name="Gcommaaccent" format="1">
  <advance width="1216"/>
  <unicode hex="0122"/>
  <outline>
    <contour>
      <point x="595" y="1633" type="move" name="parent_top"/>
    </contour>
    <contour>
      <point x="1196" y="1600" type="move" name="top_dd"/>
    </contour>
    <contour>
      <point x="1196" y="-407" type="move" name="bottom_dd"/>
    </contour>
    <contour>
      <point x="1196" y="1633" type="move" name="top0315"/>
    </contour>
    <contour>
      <point x="595" y="1633" type="move" name="top"/>
    </contour>
    <contour>
      <point x="633" y="-473" type="move" name="bottom"/>
    </contour>
    <component base="G"/>
    <component base="commaaccent" xOffset="401" yOffset="-291"/>
  </outline>
</glyph>
<glyph name="Hcircumflex" format="1">
  <advance width="1259"/>
  <unicode hex="0124"/>
  <outline>
    <contour>
      <point x="620" y="1612" type="move" name="parent_top"/>
    </contour>
    <contour>
      <point x="621" y="10" type="move" name="bottom"/>
    </contour>
    <contour>
      <point x="1239" y="1600" type="move" name="top_dd"/>
    </contour>
    <contour>
      <point x="1239" y="-407" type="move" name="bottom_dd"/>
    </contour>
    <contour>
      <point x="1239" y="1612" type="move" name="top0315"/>
    </contour>
    <contour>
      <point x="620" y="1942" type="move" name="top"/>
    </contour>
    <component base="H"/>
    <component base="circumflex" xOffset="228" yOffset="320"/>
  </outline>
</glyph>
<glyph name="Hbar" format="2">
  <advance width="1230"/>
  <unicode hex="0126"/>
  <anchor x="615" y="1612" name="top"/>
  <anchor x="615" y="10" name="bottom"/>
  <anchor x="1210" y="1612" name="top0315"/>
  <anchor x="615" y="1612" name="parent_top"/>
  <outline>
    <contour>
      <point x="1188" y="1125" type="line"/>
      <point x="42" y="1125" type="line"/>
      <point x="42" y="1026" type="line"/>
      <point x="1188" y="1026" type="line"/>
    </contour>
    <contour>
      <point x="973" y="804" type="line"/>
      <point x="246" y="804" type="line"/>
      <point x="246" y="697" type="line"/>
      <point x="973" y="697" type="line"/>
    </contour>
    <contour>
      <point x="270" y="1456" type="line"/>
      <point x="156" y="1456" type="line"/>
      <point x="156" y="0" type="line"/>
      <point x="270" y="0" type="line"/>
    </contour>
    <contour>
      <point x="1068" y="1456" type="line"/>
      <point x="954" y="1456" type="line"/>
      <point x="954" y="0" type="line"/>
      <point x="1068" y="0" type="line"/>
    </contour>
  </outline>
</glyph>
<glyph name="Hbar" format="1">
  <advance width="1230"/>
  <unicode hex="0126"/>
  <outline>
    <contour>
      <point x="615" y="1612" type="move" name="top"/>
    </contour>
    <contour>
      <point x="615" y="10" type="move" name="bottom"/>
    </contour>
    <contour>
      <point x="1210" y="1612" type="move" name="top0315"/>
    </contour>
    <contour>
      <point x="1188" y="1125" type="line"/>
      <point x="42" y="1125" type="line"/>
      <point x="42" y="1026" type="line"/>
      <point x="1188" y="1026" type="line"/>
    </contour>
    <contour>
      <point x="973" y="804" type="line"/>
      <point x="246" y="804" type="line"/>
      <point x="246" y="697" type="line"/>
      <point x="973" y="697" type="line"/>
    </contour>
    <contour>
      <point x="270" y="1456" type="line"/>
      <point x="156" y="1456" type="line"/>
      <point x="156" y="0" type="line"/>
      <point x="270" y="0" type="line"/>
    </contour>
    <contour>
      <point x="1068" y="1456" type="line"/>
      <point x="954" y="1456" type="line"/>
      <point x="954" y="0" type="line"/>
      <point x="1068" y="0" type="line"/>
    </contour>
  </outline>
</glyph>
<glyph name="hbar" format="1">
  <advance width="1015"/>
  <unicode hex="0127"/>
  <outline>
    <contour>
      <point x="431" y="1611" type="move" name="parent_top"/>
    </contour>
    <contour>
      <point x="509" y="10" type="move" name="bottom"/>
    </contour>
    <contour>
      <point x="995" y="1600" type="move" name="top_dd"/>
    </contour>
    <contour>
      <point x="995" y="-407" type="move" name="bottom_dd"/>
    </contour>
    <contour>
      <point x="995" y="1611" type="move" name="top0315"/>
    </contour>
    <contour>
      <point x="431" y="1611" type="move" name="top"/>
    </contour>
    <contour>
      <point x="290" y="1536" type="line"/>
      <point x="179" y="1536" type="line"/>
      <point x="179" y="0" type="line"/>
      <point x="290" y="0" type="line"/>
    </contour>
    <contour>
      <point x="265" y="608" type="line"/>
      <point x="268" y="770"/>
      <point x="367" y="996"/>
      <point x="551" y="996" type="curve" smooth="yes"/>
      <point x="680" y="996"/>
      <point x="759" y="927"/>
      <point x="759" y="706" type="curve" smooth="yes"/>
      <point x="759" y="0" type="line"/>
      <point x="870" y="0" type="line"/>
      <point x="870" y="705" type="line" smooth="yes"/>
      <point x="870" y="990"/>
      <point x="761" y="1102"/>
      <point x="580" y="1102" type="curve" smooth="yes"/>
      <point x="369" y="1102"/>
      <point x="227" y="893"/>
      <point x="216" y="637" type="curve"/>
    </contour>
    <contour>
      <point x="563" y="1360" type="line"/>
      <point x="45" y="1360" type="line"/>
      <point x="45" y="1256" type="line"/>
      <point x="563" y="1256" type="line"/>
    </contour>
  </outline>
</glyph>
<glyph name="Itilde" format="1">
  <advance width="500"/>
  <unicode hex="0128"/>
  <outline>
    <component base="I"/>
    <component base="tilde" xOffset="-143" yOffset="330"/>
    <contour>
      <point x="251" y="1612" type="move" name="parent_top"/>
    </contour>
    <contour>
      <point x="251" y="5" type="move" name="bottom"/>
    </contour>
    <contour>
      <point x="480" y="1600" type="move" name="top_dd"/>
    </contour>
    <contour>
      <point x="480" y="-407" type="move" name="bottom_dd"/>
    </contour>
    <contour>
      <point x="480" y="1612" type="move" name="top0315"/>
    </contour>
    <contour>
      <point x="250" y="1885" type="move" name="top"/>
    </contour>
  </outline>
</glyph>
<glyph name="itilde" format="1">
  <advance width="431"/>
  <unicode hex="0129"/>
  <outline>
    <component base="dotlessi"/>
    <component base="tilde" xOffset="-177" yOffset="-3"/>
    <contour>
      <point x="217" y="1279" type="move" name="parent_top"/>
    </contour>
    <contour>
      <point x="216" y="10" type="move" name="bottom"/>
    </contour>
    <contour>
      <point x="411" y="1279" type="move" name="top0315"/>
    </contour>
    <contour>
      <point x="216" y="1552" type="move" name="top"/>
    </contour>
  </outline>
</glyph>
<glyph name="Imacron" format="1">
  <advance width="500"/>
  <unicode hex="012A"/>
  <outline>
    <contour>
      <point x="251" y="1612" type="move" name="parent_top"/>
    </contour>
    <contour>
      <point x="251" y="5" type="move" name="bottom"/>
    </contour>
    <contour>
      <point x="480" y="1600" type="move" name="top_dd"/>
    </contour>
    <contour>
      <point x="480" y="-407" type="move" name="bottom_dd"/>
    </contour>
    <contour>
      <point x="480" y="1612" type="move" name="top0315"/>
    </contour>
    <contour>
      <point x="251" y="1889" type="move" name="top"/>
    </contour>
    <component base="I"/>
    <component base="macron" xOffset="-146" yOffset="330"/>
  </outline>
</glyph>
<glyph name="Ibreve" format="1">
  <advance width="500"/>
  <unicode hex="012C"/>
  <outline>
    <contour>
      <point x="251" y="1612" type="move" name="parent_top"/>
    </contour>
    <contour>
      <point x="251" y="5" type="move" name="bottom"/>
    </contour>
    <contour>
      <point x="480" y="1600" type="move" name="top_dd"/>
    </contour>
    <contour>
      <point x="480" y="-407" type="move" name="bottom_dd"/>
    </contour>
    <contour>
      <point x="480" y="1612" type="move" name="top0315"/>
    </contour>
    <contour>
      <point x="251" y="1884" type="move" name="top"/>
    </contour>
    <component base="I"/>
    <component base="breve" xOffset="-177" yOffset="323"/>
  </outline>
</glyph>
<glyph name="dotlessi" format="2">
  <advance width="431"/>
  <unicode hex="0131"/>
  <anchor x="217" y="1279" name="top"/>
  <anchor x="216" y="10" name="bottom"/>
  <anchor x="230" y="654" name="rhotichook"/>
  <anchor x="411" y="1279" name="top0315"/>
  <anchor x="217" y="1279" name="parent_top"/>
  <outline>
    <contour>
      <point x="271" y="1082" type="line"/>
      <point x="159" y="1082" type="line"/>
      <point x="159" y="0" type="line"/>
      <point x="271" y="0" type="line"/>
    </contour>
  </outline>
</glyph>
<glyph name="Jcircumflex" format="1">
  <advance width="988"/>
  <unicode hex="0134"/>
  <outline>
    <component base="J"/>
    <component base="circumflex" xOffset="360" yOffset="299"/>
    <contour>
      <point x="752" y="1591" type="move" name="parent_top"/>
    </contour>
    <contour>
      <point x="450" y="-10" type="move" name="bottom"/>
    </contour>
    <contour>
      <point x="968" y="1600" type="move" name="top_dd"/>
    </contour>
    <contour>
      <point x="968" y="-407" type="move" name="bottom_dd"/>
    </contour>
    <contour>
      <point x="968" y="1591" type="move" name="top0315"/>
    </contour>
    <contour>
      <point x="752" y="1921" type="move" name="top"/>
    </contour>
  </outline>
</glyph>
<glyph name="jcircumflex" format="1">
  <advance width="441"/>
  <unicode hex="0135"/>
  <outline>
    <contour>
      <point x="224" y="1249" type="move" name="parent_top"/>
    </contour>
    <contour>
      <point x="421" y="1249" type="move" name="top0315"/>
    </contour>
    <contour>
      <point x="224" y="1579" type="move" name="top"/>
    </contour>
    <component base="uni0237"/>
    <component base="circumflex" xOffset="-168" yOffset="-43"/>
  </outline>
</glyph>
<glyph name="Kcommaaccent" format="1">
  <advance width="1124"/>
  <unicode hex="0136"/>
  <outline>
    <contour>
      <point x="527" y="1560" type="move" name="parent_top"/>
    </contour>
    <contour>
      <point x="1104" y="1600" type="move" name="top_dd"/>
    </contour>
    <contour>
      <point x="1104" y="-407" type="move" name="bottom_dd"/>
    </contour>
    <contour>
      <point x="1104" y="1560" type="move" name="top0315"/>
    </contour>
    <contour>
      <point x="527" y="1560" type="move" name="top"/>
    </contour>
    <contour>
      <point x="562" y="-368" type="move" name="bottom"/>
    </contour>
    <component base="K"/>
    <component base="commaaccent" xOffset="330" yOffset="-186"/>
  </outline>
</glyph>
<glyph name="kcommaaccent" format="1">
  <advance width="889"/>
  <unicode hex="0137"/>
  <outline>
    <contour>
      <point x="480" y="1612" type="move" name="parent_top"/>
    </contour>
    <contour>
      <point x="869" y="1600" type="move" name="top_dd"/>
    </contour>
    <contour>
      <point x="869" y="-407" type="move" name="bottom_dd"/>
    </contour>
    <contour>
      <point x="759" y="1612" type="move" name="top0315"/>
    </contour>
    <contour>
      <point x="480" y="1612" type="move" name="top"/>
    </contour>
    <contour>
      <point x="461" y="-376" type="move" name="bottom"/>
    </contour>
    <component base="k"/>
    <component base="commaaccent" xOffset="229" yOffset="-194"/>
  </outline>
</glyph>
<glyph name="kgreenlandic" format="1">
  <advance width="978"/>
  <unicode hex="0138"/>
  <outline>
    <contour>
      <point x="505" y="1290" type="move" name="top"/>
    </contour>
    <contour>
      <point x="505" y="10" type="move" name="bottom"/>
    </contour>
    <contour>
      <point x="958" y="1290" type="move" name="top0315"/>
    </contour>
    <contour>
      <point x="267" y="1082" type="line"/>
      <point x="156" y="1082" type="line"/>
      <point x="156" y="0" type="line"/>
      <point x="267" y="0" type="line"/>
    </contour>
    <contour>
      <point x="873" y="1082" type="line"/>
      <point x="738" y="1082" type="line"/>
      <point x="373" y="604" type="line"/>
      <point x="215" y="604" type="line"/>
      <point x="228" y="495" type="line"/>
      <point x="425" y="495" type="line"/>
    </contour>
    <contour>
      <point x="771" y="0" type="line"/>
      <point x="913" y="0" type="line"/>
      <point x="434" y="604" type="line"/>
      <point x="364" y="511" type="line"/>
    </contour>
  </outline>
</glyph>
<glyph name="Lacute" format="1">
  <advance width="951"/>
  <unicode hex="0139"/>
  <outline>
    <component base="L"/>
    <component base="acute" xOffset="35" yOffset="281"/>
    <contour>
      <point x="231" y="1573" type="move" name="parent_top"/>
    </contour>
    <contour>
      <point x="542" y="10" type="move" name="bottom"/>
    </contour>
    <contour>
      <point x="931" y="1600" type="move" name="top_dd"/>
    </contour>
    <contour>
      <point x="931" y="-407" type="move" name="bottom_dd"/>
    </contour>
    <contour>
      <point x="931" y="1573" type="move" name="top0315"/>
    </contour>
    <contour>
      <point x="231" y="1874" type="move" name="top"/>
    </contour>
  </outline>
</glyph>
<glyph name="lacute" format="1">
  <advance width="432"/>
  <unicode hex="013A"/>
  <outline>
    <component base="l"/>
    <component base="acute" xOffset="21" yOffset="393"/>
    <contour>
      <point x="217" y="1685" type="move" name="parent_top"/>
    </contour>
    <contour>
      <point x="217" y="10" type="move" name="bottom"/>
    </contour>
    <contour>
      <point x="412" y="1600" type="move" name="top_dd"/>
    </contour>
    <contour>
      <point x="412" y="-407" type="move" name="bottom_dd"/>
    </contour>
    <contour>
      <point x="412" y="1685" type="move" name="top0315"/>
    </contour>
    <contour>
      <point x="217" y="1986" type="move" name="top"/>
    </contour>
  </outline>
</glyph>
<glyph name="lcommaaccent" format="1">
  <advance width="432"/>
  <unicode hex="013C"/>
  <outline>
    <contour>
      <point x="217" y="1685" type="move" name="parent_top"/>
    </contour>
    <contour>
      <point x="412" y="1600" type="move" name="top_dd"/>
    </contour>
    <contour>
      <point x="412" y="-407" type="move" name="bottom_dd"/>
    </contour>
    <contour>
      <point x="412" y="1685" type="move" name="top0315"/>
    </contour>
    <contour>
      <point x="217" y="1685" type="move" name="top"/>
    </contour>
    <contour>
      <point x="217" y="-458" type="move" name="bottom"/>
    </contour>
    <component base="l"/>
    <component base="commaaccent" xOffset="-15" yOffset="-276"/>
  </outline>
</glyph>
<glyph name="lcaron" format="1">
  <advance width="582"/>
  <unicode hex="013E"/>
  <outline>
    <contour>
      <point x="217" y="1685" type="move" name="parent_top"/>
    </contour>
    <contour>
      <point x="217" y="10" type="move" name="bottom"/>
    </contour>
    <contour>
      <point x="562" y="1600" type="move" name="top_dd"/>
    </contour>
    <contour>
      <point x="562" y="-407" type="move" name="bottom_dd"/>
    </contour>
    <contour>
      <point x="562" y="1685" type="move" name="top0315"/>
    </contour>
    <contour>
      <point x="217" y="1685" type="move" name="top"/>
    </contour>
    <component base="l"/>
    <component base="commaaccent" xOffset="252" yOffset="1358"/>
  </outline>
</glyph>
<glyph name="ldot" format="1">
  <advance width="652"/>
  <unicode hex="0140"/>
  <outline>
    <component base="l"/>
    <component base="dotaccent" xOffset="236" yOffset="-594"/>
    <contour>
      <point x="217" y="1685" type="move" name="parent_top"/>
    </contour>
    <contour>
      <point x="217" y="10" type="move" name="bottom"/>
    </contour>
    <contour>
      <point x="632" y="1600" type="move" name="top_dd"/>
    </contour>
    <contour>
      <point x="632" y="-407" type="move" name="bottom_dd"/>
    </contour>
    <contour>
      <point x="632" y="1685" type="move" name="top0315"/>
    </contour>
    <contour>
      <point x="217" y="1685" type="move" name="top"/>
    </contour>
  </outline>
</glyph>
<glyph name="Lslash" format="1">
  <advance width="952"/>
  <unicode hex="0141"/>
  <outline>
    <contour>
      <point x="535" y="915" type="line"/>
      <point x="40" y="728" type="line"/>
      <point x="40" y="636" type="line"/>
      <point x="535" y="823" type="line"/>
    </contour>
    <contour>
      <point x="884" y="107" type="line"/>
      <point x="253" y="107" type="line"/>
      <point x="253" y="0" type="line"/>
      <point x="884" y="0" type="line"/>
    </contour>
    <contour>
      <point x="285" y="1456" type="line"/>
      <point x="170" y="1456" type="line"/>
      <point x="170" y="0" type="line"/>
      <point x="285" y="0" type="line"/>
    </contour>
    <contour>
      <point x="224" y="1573" type="move" name="top"/>
    </contour>
    <contour>
      <point x="536" y="10" type="move" name="bottom"/>
    </contour>
    <contour>
      <point x="932" y="1573" type="move" name="top0315"/>
    </contour>
  </outline>
</glyph>
<glyph name="lslash" format="1">
  <advance width="489"/>
  <unicode hex="0142"/>
  <outline>
    <contour>
      <point x="447" y="930" type="line"/>
      <point x="43" y="743" type="line"/>
      <point x="43" y="652" type="line"/>
      <point x="447" y="839" type="line"/>
    </contour>
    <contour>
      <point x="299" y="1536" type="line"/>
      <point x="188" y="1536" type="line"/>
      <point x="188" y="0" type="line"/>
      <point x="299" y="0" type="line"/>
    </contour>
    <contour>
      <point x="248" y="1685" type="move" name="top"/>
    </contour>
    <contour>
      <point x="248" y="10" type="move" name="bottom"/>
    </contour>
    <contour>
      <point x="469" y="1685" type="move" name="top0315"/>
    </contour>
    <contour>
      <point x="248" y="1685" type="move" name="parent_top"/>
    </contour>
  </outline>
</glyph>
<glyph name="Nacute" format="1">
  <advance width="1263"/>
  <unicode hex="0143"/>
  <outline>
    <component base="N"/>
    <component base="acute" xOffset="434" yOffset="314"/>
    <contour>
      <point x="630" y="1606" type="move" name="parent_top"/>
    </contour>
    <contour>
      <point x="627" y="10" type="move" name="bottom"/>
    </contour>
    <contour>
      <point x="1243" y="1600" type="move" name="top_dd"/>
    </contour>
    <contour>
      <point x="1243" y="-407" type="move" name="bottom_dd"/>
    </contour>
    <contour>
      <point x="1243" y="1606" type="move" name="top0315"/>
    </contour>
    <contour>
      <point x="630" y="1907" type="move" name="top"/>
    </contour>
  </outline>
</glyph>
<glyph name="Ncommaaccent" format="1">
  <advance width="1263"/>
  <unicode hex="0145"/>
  <outline>
    <component base="N"/>
    <component base="commaaccent" xOffset="395" yOffset="-276"/>
    <contour>
      <point x="630" y="1606" type="move" name="parent_top"/>
    </contour>
    <contour>
      <point x="1243" y="1600" type="move" name="top_dd"/>
    </contour>
    <contour>
      <point x="1243" y="-407" type="move" name="bottom_dd"/>
    </contour>
    <contour>
      <point x="1243" y="1606" type="move" name="top0315"/>
    </contour>
    <contour>
      <point x="630" y="1606" type="move" name="top"/>
    </contour>
    <contour>
      <point x="627" y="-458" type="move" name="bottom"/>
    </contour>
  </outline>
</glyph>
<glyph name="ncommaaccent" format="1">
  <advance width="987"/>
  <unicode hex="0146"/>
  <outline>
    <component base="n"/>
    <component base="commaaccent" xOffset="266" yOffset="-276"/>
    <contour>
      <point x="503" y="1290" type="move" name="parent_top"/>
    </contour>
    <contour>
      <point x="967" y="1600" type="move" name="top_dd"/>
    </contour>
    <contour>
      <point x="967" y="-407" type="move" name="bottom_dd"/>
    </contour>
    <contour>
      <point x="967" y="1290" type="move" name="top0315"/>
    </contour>
    <contour>
      <point x="503" y="1290" type="move" name="top"/>
    </contour>
    <contour>
      <point x="498" y="-458" type="move" name="bottom"/>
    </contour>
  </outline>
</glyph>
<glyph name="Ncaron" format="1">
  <advance width="1263"/>
  <unicode hex="0147"/>
  <outline>
    <contour>
      <point x="630" y="1606" type="move" name="parent_top"/>
    </contour>
    <contour>
      <point x="627" y="10" type="move" name="bottom"/>
    </contour>
    <contour>
      <point x="1243" y="1600" type="move" name="top_dd"/>
    </contour>
    <contour>
      <point x="1243" y="-407" type="move" name="bottom_dd"/>
    </contour>
    <contour>
      <point x="1243" y="1606" type="move" name="top0315"/>
    </contour>
    <contour>
      <point x="630" y="1902" type="move" name="top"/>
    </contour>
    <component base="N"/>
    <component base="caron" xOffset="250" yOffset="317"/>
  </outline>
</glyph>
<glyph name="Eng" format="2">
  <advance width="1243"/>
  <unicode hex="014A"/>
  <anchor x="630" y="1606" name="top"/>
  <anchor x="627" y="10" name="bottom"/>
  <anchor x="1223" y="1606" name="top0315"/>
  <anchor x="630" y="1606" name="parent_top"/>
  <outline>
    <contour>
      <point x="169" y="1456" type="line"/>
      <point x="169" y="0" type="line"/>
      <point x="284" y="0" type="line"/>
      <point x="284" y="1456" type="line"/>
    </contour>
    <contour>
      <point x="203" y="1381" type="line"/>
      <point x="963" y="0" type="line"/>
      <point x="1044" y="75" type="line"/>
      <point x="284" y="1456" type="line"/>
    </contour>
    <contour>
      <point x="963" y="1456" type="line"/>
      <point x="963" y="-87" type="line" smooth="yes"/>
      <point x="963" y="-241"/>
      <point x="909" y="-330"/>
      <point x="816" y="-330" type="curve" smooth="yes"/>
      <point x="793" y="-330"/>
      <point x="751" y="-322"/>
      <point x="733" y="-314" type="curve"/>
      <point x="722" y="-418" type="line"/>
      <point x="755" y="-431"/>
      <point x="782" y="-437"/>
      <point x="817" y="-437" type="curve" smooth="yes"/>
      <point x="980" y="-437"/>
      <point x="1078" y="-313"/>
      <point x="1078" y="-87" type="curve" smooth="yes"/>
      <point x="1078" y="1456" type="line"/>
    </contour>
  </outline>
</glyph>
<glyph name="eng" format="1">
  <advance width="1001"/>
  <unicode hex="014B"/>
  <outline>
    <contour>
      <point x="262" y="851" type="line"/>
      <point x="250" y="1082" type="line"/>
      <point x="151" y="1082" type="line"/>
      <point x="151" y="0" type="line"/>
      <point x="262" y="0" type="line"/>
    </contour>
    <contour>
      <point x="230" y="565" type="line"/>
      <point x="230" y="782"/>
      <point x="304" y="996"/>
      <point x="518" y="996" type="curve" smooth="yes"/>
      <point x="651" y="996"/>
      <point x="738" y="920"/>
      <point x="738" y="659" type="curve" smooth="yes"/>
      <point x="738" y="-89" type="line" smooth="yes"/>
      <point x="738" y="-244"/>
      <point x="684" y="-329"/>
      <point x="591" y="-329" type="curve" smooth="yes"/>
      <point x="566" y="-329"/>
      <point x="518" y="-321"/>
      <point x="500" y="-313" type="curve"/>
      <point x="488" y="-418" type="line"/>
      <point x="523" y="-431"/>
      <point x="553" y="-437"/>
      <point x="591" y="-437" type="curve" smooth="yes"/>
      <point x="752" y="-437"/>
      <point x="849" y="-314"/>
      <point x="849" y="-89" type="curve" smooth="yes"/>
      <point x="849" y="660" type="line" smooth="yes"/>
      <point x="849" y="973"/>
      <point x="737" y="1102"/>
      <point x="546" y="1102" type="curve" smooth="yes"/>
      <point x="316" y="1102"/>
      <point x="194" y="877"/>
      <point x="194" y="564" type="curve"/>
    </contour>
    <contour>
      <point x="503" y="1290" type="move" name="top"/>
    </contour>
    <contour>
      <point x="498" y="10" type="move" name="bottom"/>
    </contour>
    <contour>
      <point x="671" y="-306" type="move" name="parenthesses.w1"/>
    </contour>
    <contour>
      <point x="498" y="10" type="move" name="markbottom"/>
    </contour>
    <contour>
      <point x="981" y="1290" type="move" name="top0315"/>
    </contour>
    <contour>
      <point x="671" y="-306" type="move" name="markparenthesses.w1"/>
    </contour>
    <contour>
      <point x="503" y="1290" type="move" name="parent_top"/>
    </contour>
  </outline>
</glyph>
<glyph name="Omacron" format="1">
  <advance width="1208"/>
  <unicode hex="014C"/>
  <outline>
    <component base="O"/>
    <component base="macron" xOffset="206" yOffset="335"/>
    <contour>
      <point x="603" y="1617" type="move" name="parent_top"/>
    </contour>
    <contour>
      <point x="606" y="-1" type="move" name="bottom"/>
    </contour>
    <contour>
      <point x="1188" y="1600" type="move" name="top_dd"/>
    </contour>
    <contour>
      <point x="1188" y="-407" type="move" name="bottom_dd"/>
    </contour>
    <contour>
      <point x="1188" y="1617" type="move" name="top0315"/>
    </contour>
    <contour>
      <point x="603" y="1894" type="move" name="top"/>
    </contour>
  </outline>
</glyph>
<glyph name="Obreve" format="1">
  <advance width="1208"/>
  <unicode hex="014E"/>
  <outline>
    <component base="O"/>
    <component base="breve" xOffset="175" yOffset="328"/>
    <contour>
      <point x="603" y="1617" type="move" name="parent_top"/>
    </contour>
    <contour>
      <point x="606" y="-1" type="move" name="bottom"/>
    </contour>
    <contour>
      <point x="1188" y="1600" type="move" name="top_dd"/>
    </contour>
    <contour>
      <point x="1188" y="-407" type="move" name="bottom_dd"/>
    </contour>
    <contour>
      <point x="1188" y="1617" type="move" name="top0315"/>
    </contour>
    <contour>
      <point x="603" y="1889" type="move" name="top"/>
    </contour>
  </outline>
</glyph>
<glyph name="oe" format="2">
  <advance width="1624"/>
  <unicode hex="0153"/>
  <anchor x="824" y="1290" name="top"/>
  <anchor x="824" y="-5" name="bottom"/>
  <anchor x="1604" y="1600" name="top_dd"/>
  <anchor x="1604" y="-407" name="bottom_dd"/>
  <anchor x="1604" y="1290" name="top0315"/>
  <anchor x="824" y="1290" name="parent_top"/>
  <outline>
    <contour>
      <point x="1201" y="-20" type="curve"/>
      <point x="1356" y="-20"/>
      <point x="1457" y="40"/>
      <point x="1518" y="118" type="curve"/>
      <point x="1471" y="203" type="line"/>
      <point x="1413" y="131"/>
      <point x="1330" y="83"/>
      <point x="1201" y="83" type="curve" smooth="yes"/>
      <point x="1023" y="83"/>
      <point x="912" y="274"/>
      <point x="912" y="510" type="curve" smooth="yes"/>
      <point x="912" y="564" type="line" smooth="yes"/>
      <point x="912" y="804"/>
      <point x="1023" y="998"/>
      <point x="1185" y="998" type="curve"/>
      <point x="1347" y="998"/>
      <point x="1436" y="850"/>
      <point x="1436" y="670" type="curve"/>
      <point x="1436" y="640" type="line"/>
      <point x="868" y="640" type="line"/>
      <point x="868" y="537" type="line"/>
      <point x="1547" y="537" type="line"/>
      <point x="1547" y="639" type="line" smooth="yes"/>
      <point x="1547" y="918"/>
      <point x="1416" y="1102"/>
      <point x="1185" y="1102" type="curve" smooth="yes"/>
      <point x="979" y="1103"/>
      <point x="801" y="880"/>
      <point x="801" y="564" type="curve" smooth="yes"/>
      <point x="801" y="510" type="line" smooth="yes"/>
      <point x="801" y="202"/>
      <point x="969" y="-20"/>
    </contour>
    <contour>
      <point x="100" y="525" type="line"/>
      <point x="100" y="210"/>
      <point x="256" y="-20"/>
      <point x="503" y="-20" type="curve" smooth="yes"/>
      <point x="751" y="-20"/>
      <point x="905" y="210"/>
      <point x="905" y="525" type="curve"/>
      <point x="905" y="557" type="line"/>
      <point x="905" y="872"/>
      <point x="751" y="1102"/>
      <point x="502" y="1102" type="curve" smooth="yes"/>
      <point x="256" y="1102"/>
      <point x="100" y="872"/>
      <point x="100" y="557" type="curve"/>
    </contour>
    <contour>
      <point x="211" y="557" type="line"/>
      <point x="211" y="789"/>
      <point x="310" y="998"/>
      <point x="502" y="998" type="curve" smooth="yes"/>
      <point x="695" y="998"/>
      <point x="794" y="789"/>
      <point x="794" y="557" type="curve"/>
      <point x="794" y="525" type="line"/>
      <point x="794" y="288"/>
      <point x="695" y="83"/>
      <point x="503" y="83" type="curve" smooth="yes"/>
      <point x="310" y="83"/>
      <point x="211" y="288"/>
      <point x="211" y="525" type="curve"/>
    </contour>
  </outline>
</glyph>
<glyph name="Racute" format="1">
  <advance width="1126"/>
  <unicode hex="0154"/>
  <outline>
    <contour>
      <point x="531" y="1606" type="move" name="parent_top"/>
    </contour>
    <contour>
      <point x="531" y="10" type="move" name="bottom"/>
    </contour>
    <contour>
      <point x="1106" y="1600" type="move" name="top_dd"/>
    </contour>
    <contour>
      <point x="1106" y="-407" type="move" name="bottom_dd"/>
    </contour>
    <contour>
      <point x="1106" y="1606" type="move" name="top0315"/>
    </contour>
    <contour>
      <point x="531" y="1907" type="move" name="top"/>
    </contour>
    <component base="R"/>
    <component base="acute" xOffset="335" yOffset="314"/>
  </outline>
</glyph>
<glyph name="racute" format="1">
  <advance width="620"/>
  <unicode hex="0155"/>
  <outline>
    <contour>
      <point x="364" y="1290" type="move" name="parent_top"/>
    </contour>
    <contour>
      <point x="211" y="15" type="move" name="bottom"/>
    </contour>
    <contour>
      <point x="600" y="1600" type="move" name="top_dd"/>
    </contour>
    <contour>
      <point x="600" y="-407" type="move" name="bottom_dd"/>
    </contour>
    <contour>
      <point x="600" y="1290" type="move" name="top0315"/>
    </contour>
    <contour>
      <point x="364" y="1591" type="move" name="top"/>
    </contour>
    <component base="r"/>
    <component base="acute" xOffset="168" yOffset="-2"/>
  </outline>
</glyph>
<glyph name="Sacute" format="1">
  <advance width="1059"/>
  <unicode hex="015A"/>
  <outline>
    <component base="S"/>
    <component base="acute" xOffset="350" yOffset="325"/>
    <contour>
      <point x="546" y="1617" type="move" name="parent_top"/>
    </contour>
    <contour>
      <point x="549" y="-5" type="move" name="bottom"/>
    </contour>
    <contour>
      <point x="1039" y="1600" type="move" name="top_dd"/>
    </contour>
    <contour>
      <point x="1039" y="-407" type="move" name="bottom_dd"/>
    </contour>
    <contour>
      <point x="1039" y="1617" type="move" name="top0315"/>
    </contour>
    <contour>
      <point x="546" y="1918" type="move" name="top"/>
    </contour>
  </outline>
</glyph>
<glyph name="sacute" format="1">
  <advance width="915"/>
  <unicode hex="015B"/>
  <outline>
    <component base="s"/>
    <component base="acute" xOffset="279" yOffset="-2"/>
    <contour>
      <point x="475" y="1290" type="move" name="parent_top"/>
    </contour>
    <contour>
      <point x="475" y="-7" type="move" name="bottom"/>
    </contour>
    <contour>
      <point x="895" y="1600" type="move" name="top_dd"/>
    </contour>
    <contour>
      <point x="895" y="-407" type="move" name="bottom_dd"/>
    </contour>
    <contour>
      <point x="895" y="1290" type="move" name="top0315"/>
    </contour>
    <contour>
      <point x="475" y="1591" type="move" name="top"/>
    </contour>
  </outline>
</glyph>
<glyph name="scircumflex" format="1">
  <advance width="915"/>
  <unicode hex="015D"/>
  <outline>
    <contour>
      <point x="475" y="1290" type="move" name="parent_top"/>
    </contour>
    <contour>
      <point x="475" y="-7" type="move" name="bottom"/>
    </contour>
    <contour>
      <point x="895" y="1600" type="move" name="top_dd"/>
    </contour>
    <contour>
      <point x="895" y="-407" type="move" name="bottom_dd"/>
    </contour>
    <contour>
      <point x="895" y="1290" type="move" name="top0315"/>
    </contour>
    <contour>
      <point x="475" y="1620" type="move" name="top"/>
    </contour>
    <component base="s"/>
    <component base="circumflex" xOffset="83" yOffset="-2"/>
  </outline>
</glyph>
<glyph name="scedilla" format="1">
  <advance width="915"/>
  <unicode hex="015F"/>
  <outline>
    <component base="s"/>
    <component base="cedilla" xOffset="288" yOffset="-7"/>
    <contour>
      <point x="475" y="1290" type="move" name="parent_top"/>
    </contour>
    <contour>
      <point x="895" y="1600" type="move" name="top_dd"/>
    </contour>
    <contour>
      <point x="895" y="-407" type="move" name="bottom_dd"/>
    </contour>
    <contour>
      <point x="895" y="1290" type="move" name="top0315"/>
    </contour>
    <contour>
      <point x="475" y="1290" type="move" name="top"/>
    </contour>
    <contour>
      <point x="475" y="-444" type="move" name="bottom"/>
    </contour>
  </outline>
</glyph>
<glyph name="scaron" format="1">
  <advance width="915"/>
  <unicode hex="0161"/>
  <outline>
    <contour>
      <point x="475" y="1290" type="move" name="parent_top"/>
    </contour>
    <contour>
      <point x="475" y="-7" type="move" name="bottom"/>
    </contour>
    <contour>
      <point x="895" y="1600" type="move" name="top_dd"/>
    </contour>
    <contour>
      <point x="895" y="-407" type="move" name="bottom_dd"/>
    </contour>
    <contour>
      <point x="895" y="1290" type="move" name="top0315"/>
    </contour>
    <contour>
      <point x="475" y="1586" type="move" name="top"/>
    </contour>
    <component base="s"/>
    <component base="caron" xOffset="95" yOffset="1"/>
  </outline>
</glyph>
<glyph name="Tcaron" format="1">
  <advance width="1067"/>
  <unicode hex="0164"/>
  <outline>
    <component base="T"/>
    <component base="caron" xOffset="153" yOffset="313"/>
    <contour>
      <point x="533" y="1602" type="move" name="parent_top"/>
    </contour>
    <contour>
      <point x="535" y="0" type="move" name="bottom"/>
    </contour>
    <contour>
      <point x="1047" y="1600" type="move" name="top_dd"/>
    </contour>
    <contour>
      <point x="1047" y="-407" type="move" name="bottom_dd"/>
    </contour>
    <contour>
      <point x="1047" y="1602" type="move" name="top0315"/>
    </contour>
    <contour>
      <point x="533" y="1898" type="move" name="top"/>
    </contour>
  </outline>
</glyph>
<glyph name="tcaron" format="1">
  <advance width="635"/>
  <unicode hex="0165"/>
  <outline>
    <component base="t"/>
    <component base="commaaccent" xOffset="305" yOffset="1431"/>
    <contour>
      <point x="387" y="0" type="move" name="bottom"/>
    </contour>
    <contour>
      <point x="266" y="1510" type="move" name="parent_top"/>
    </contour>
    <contour>
      <point x="615" y="1600" type="move" name="top_dd"/>
    </contour>
    <contour>
      <point x="615" y="-407" type="move" name="bottom_dd"/>
    </contour>
    <contour>
      <point x="615" y="1510" type="move" name="top0315"/>
    </contour>
    <contour>
      <point x="266" y="1510" type="move" name="top"/>
    </contour>
  </outline>
</glyph>
<glyph name="Tbar" format="1">
  <advance width="1067"/>
  <unicode hex="0166"/>
  <outline>
    <contour>
      <point x="591" y="1456" type="line"/>
      <point x="477" y="1456" type="line"/>
      <point x="477" y="0" type="line"/>
      <point x="591" y="0" type="line"/>
    </contour>
    <contour>
      <point x="1005" y="1456" type="line"/>
      <point x="63" y="1456" type="line"/>
      <point x="63" y="1349" type="line"/>
      <point x="1005" y="1349" type="line"/>
    </contour>
    <contour>
      <point x="791" y="938" type="line"/>
      <point x="273" y="938" type="line"/>
      <point x="273" y="834" type="line"/>
      <point x="791" y="834" type="line"/>
    </contour>
    <contour>
      <point x="533" y="1602" type="move" name="parent_top"/>
    </contour>
    <contour>
      <point x="535" y="0" type="move" name="bottom"/>
    </contour>
    <contour>
      <point x="1047" y="1600" type="move" name="top_dd"/>
    </contour>
    <contour>
      <point x="1047" y="-407" type="move" name="bottom_dd"/>
    </contour>
    <contour>
      <point x="1047" y="1602" type="move" name="top0315"/>
    </contour>
    <contour>
      <point x="533" y="1602" type="move" name="top"/>
    </contour>
  </outline>
</glyph>
<glyph name="tbar" format="1">
  <advance width="595"/>
  <unicode hex="0167"/>
  <outline>
    <contour>
      <point x="500" y="1082" type="line"/>
      <point x="38" y="1082" type="line"/>
      <point x="38" y="982" type="line"/>
      <point x="500" y="982" type="line"/>
    </contour>
    <contour>
      <point x="204" y="1359" type="line"/>
      <point x="204" y="264" type="line"/>
      <point x="204" y="47"/>
      <point x="289" y="-20"/>
      <point x="404" y="-20" type="curve" smooth="yes"/>
      <point x="447" y="-20"/>
      <point x="490" y="-13"/>
      <point x="514" y="-4" type="curve"/>
      <point x="510" y="98" type="line"/>
      <point x="489" y="93"/>
      <point x="460" y="88"/>
      <point x="430" y="88" type="curve" smooth="yes"/>
      <point x="370" y="88"/>
      <point x="316" y="114"/>
      <point x="316" y="264" type="curve"/>
      <point x="316" y="1359" type="line"/>
    </contour>
    <contour>
      <point x="545" y="721" type="line"/>
      <point x="27" y="721" type="line"/>
      <point x="27" y="617" type="line"/>
      <point x="545" y="617" type="line"/>
    </contour>
    <contour>
      <point x="387" y="0" type="move" name="bottom"/>
    </contour>
    <contour>
      <point x="266" y="1510" type="move" name="parent_top"/>
    </contour>
    <contour>
      <point x="575" y="1600" type="move" name="top_dd"/>
    </contour>
    <contour>
      <point x="575" y="-407" type="move" name="bottom_dd"/>
    </contour>
    <contour>
      <point x="575" y="1510" type="move" name="top0315"/>
    </contour>
    <contour>
      <point x="266" y="1510" type="move" name="top"/>
    </contour>
  </outline>
</glyph>
<glyph name="Utilde" format="1">
  <advance width="1168"/>
  <unicode hex="0168"/>
  <outline>
    <contour>
      <point x="591" y="1606" type="move" name="parent_top"/>
    </contour>
    <contour>
      <point x="585" y="0" type="move" name="bottom"/>
    </contour>
    <contour>
      <point x="1148" y="1600" type="move" name="top_dd"/>
    </contour>
    <contour>
      <point x="1148" y="-407" type="move" name="bottom_dd"/>
    </contour>
    <contour>
      <point x="1148" y="1606" type="move" name="top0315"/>
    </contour>
    <contour>
      <point x="590" y="1879" type="move" name="top"/>
    </contour>
    <component base="U"/>
    <component base="tilde" xOffset="197" yOffset="324"/>
  </outline>
</glyph>
<glyph name="utilde" format="1">
  <advance width="986"/>
  <unicode hex="0169"/>
  <outline>
    <component base="u"/>
    <component base="tilde" xOffset="107" yOffset="10"/>
    <contour>
      <point x="501" y="1292" type="move" name="parent_top"/>
    </contour>
    <contour>
      <point x="966" y="1600" type="move" name="top_dd"/>
    </contour>
    <contour>
      <point x="966" y="-407" type="move" name="bottom_dd"/>
    </contour>
    <contour>
      <point x="966" y="1292" type="move" name="top0315"/>
    </contour>
    <contour>
      <point x="492" y="0" type="move" name="bottom"/>
    </contour>
    <contour>
      <point x="500" y="1565" type="move" name="top"/>
    </contour>
  </outline>
</glyph>
<glyph name="Umacron" format="1">
  <advance width="1168"/>
  <unicode hex="016A"/>
  <outline>
    <contour>
      <point x="591" y="1606" type="move" name="parent_top"/>
    </contour>
    <contour>
      <point x="585" y="0" type="move" name="bottom"/>
    </contour>
    <contour>
      <point x="1148" y="1600" type="move" name="top_dd"/>
    </contour>
    <contour>
      <point x="1148" y="-407" type="move" name="bottom_dd"/>
    </contour>
    <contour>
      <point x="1148" y="1606" type="move" name="top0315"/>
    </contour>
    <contour>
      <point x="591" y="1883" type="move" name="top"/>
    </contour>
    <component base="U"/>
    <component base="macron" xOffset="194" yOffset="324"/>
  </outline>
</glyph>
<glyph name="Ubreve" format="1">
  <advance width="1168"/>
  <unicode hex="016C"/>
  <outline>
    <contour>
      <point x="591" y="1606" type="move" name="parent_top"/>
    </contour>
    <contour>
      <point x="585" y="0" type="move" name="bottom"/>
    </contour>
    <contour>
      <point x="1148" y="1600" type="move" name="top_dd"/>
    </contour>
    <contour>
      <point x="1148" y="-407" type="move" name="bottom_dd"/>
    </contour>
    <contour>
      <point x="1148" y="1606" type="move" name="top0315"/>
    </contour>
    <contour>
      <point x="591" y="1878" type="move" name="top"/>
    </contour>
    <component base="U"/>
    <component base="breve" xOffset="163" yOffset="317"/>
  </outline>
</glyph>
<glyph name="ubreve" format="1">
  <advance width="986"/>
  <unicode hex="016D"/>
  <outline>
    <component base="u"/>
    <component base="breve" xOffset="73" yOffset="3"/>
    <contour>
      <point x="501" y="1292" type="move" name="parent_top"/>
    </contour>
    <contour>
      <point x="966" y="1600" type="move" name="top_dd"/>
    </contour>
    <contour>
      <point x="966" y="-407" type="move" name="bottom_dd"/>
    </contour>
    <contour>
      <point x="966" y="1292" type="move" name="top0315"/>
    </contour>
    <contour>
      <point x="492" y="0" type="move" name="bottom"/>
    </contour>
    <contour>
      <point x="501" y="1564" type="move" name="top"/>
    </contour>
  </outline>
</glyph>
<glyph name="Uring" format="1">
  <advance width="1168"/>
  <unicode hex="016E"/>
  <outline>
    <component base="U"/>
    <component base="ring" xOffset="281" yOffset="320"/>
    <contour>
      <point x="591" y="1606" type="move" name="parent_top"/>
    </contour>
    <contour>
      <point x="585" y="0" type="move" name="bottom"/>
    </contour>
    <contour>
      <point x="1148" y="1600" type="move" name="top_dd"/>
    </contour>
    <contour>
      <point x="1148" y="-407" type="move" name="bottom_dd"/>
    </contour>
    <contour>
      <point x="1148" y="1606" type="move" name="top0315"/>
    </contour>
    <contour>
      <point x="591" y="1976" type="move" name="top"/>
    </contour>
  </outline>
</glyph>
<glyph name="uring" format="1">
  <advance width="986"/>
  <unicode hex="016F"/>
  <outline>
    <component base="u"/>
    <component base="ring" xOffset="191" yOffset="6"/>
    <contour>
      <point x="501" y="1292" type="move" name="parent_top"/>
    </contour>
    <contour>
      <point x="966" y="1600" type="move" name="top_dd"/>
    </contour>
    <contour>
      <point x="966" y="-407" type="move" name="bottom_dd"/>
    </contour>
    <contour>
      <point x="966" y="1292" type="move" name="top0315"/>
    </contour>
    <contour>
      <point x="492" y="0" type="move" name="bottom"/>
    </contour>
    <contour>
      <point x="501" y="1662" type="move" name="top"/>
    </contour>
  </outline>
</glyph>
<glyph name="uhungarumlaut" format="1">
  <advance width="986"/>
  <unicode hex="0171"/>
  <outline>
    <component base="u"/>
    <component base="hungarumlaut" xOffset="197"/>
    <contour>
      <point x="501" y="1292" type="move" name="parent_top"/>
    </contour>
    <contour>
      <point x="966" y="1600" type="move" name="top_dd"/>
    </contour>
    <contour>
      <point x="966" y="-407" type="move" name="bottom_dd"/>
    </contour>
    <contour>
      <point x="966" y="1292" type="move" name="top0315"/>
    </contour>
    <contour>
      <point x="492" y="0" type="move" name="bottom"/>
    </contour>
    <contour>
      <point x="501" y="1579" type="move" name="top"/>
    </contour>
  </outline>
</glyph>
<glyph name="wcircumflex" format="1">
  <advance width="1337"/>
  <unicode hex="0175"/>
  <outline>
    <component base="w"/>
    <component base="circumflex" xOffset="270"/>
    <contour>
      <point x="662" y="1292" type="move" name="parent_top"/>
    </contour>
    <contour>
      <point x="665" y="10" type="move" name="bottom"/>
    </contour>
    <contour>
      <point x="1317" y="1600" type="move" name="top_dd"/>
    </contour>
    <contour>
      <point x="1317" y="-407" type="move" name="bottom_dd"/>
    </contour>
    <contour>
      <point x="1317" y="1292" type="move" name="top0315"/>
    </contour>
    <contour>
      <point x="662" y="1622" type="move" name="top"/>
    </contour>
  </outline>
</glyph>
<glyph name="Ycircumflex" format="1">
  <advance width="1071"/>
  <unicode hex="0176"/>
  <outline>
    <contour>
      <point x="536" y="1601" type="move" name="parent_top"/>
    </contour>
    <contour>
      <point x="535" y="5" type="move" name="bottom"/>
    </contour>
    <contour>
      <point x="1051" y="1600" type="move" name="top_dd"/>
    </contour>
    <contour>
      <point x="1051" y="-407" type="move" name="bottom_dd"/>
    </contour>
    <contour>
      <point x="1051" y="1601" type="move" name="top0315"/>
    </contour>
    <contour>
      <point x="536" y="1931" type="move" name="top"/>
    </contour>
    <component base="Y"/>
    <component base="circumflex" xOffset="144" yOffset="309"/>
  </outline>
</glyph>
<glyph name="zacute" format="1">
  <advance width="880"/>
  <unicode hex="017A"/>
  <outline>
    <component base="z"/>
    <component base="acute" xOffset="255"/>
    <contour>
      <point x="451" y="1292" type="move" name="parent_top"/>
    </contour>
    <contour>
      <point x="466" y="10" type="move" name="bottom"/>
    </contour>
    <contour>
      <point x="860" y="1600" type="move" name="top_dd"/>
    </contour>
    <contour>
      <point x="860" y="-407" type="move" name="bottom_dd"/>
    </contour>
    <contour>
      <point x="860" y="1292" type="move" name="top0315"/>
    </contour>
    <contour>
      <point x="451" y="1593" type="move" name="top"/>
    </contour>
  </outline>
</glyph>
<glyph name="Zdotaccent" format="1">
  <advance width="1070"/>
  <unicode hex="017B"/>
  <outline>
    <contour>
      <point x="535" y="1606" type="move" name="parent_top"/>
    </contour>
    <contour>
      <point x="545" y="10" type="move" name="bottom"/>
    </contour>
    <contour>
      <point x="1050" y="1600" type="move" name="top_dd"/>
    </contour>
    <contour>
      <point x="1050" y="-407" type="move" name="bottom_dd"/>
    </contour>
    <contour>
      <point x="1050" y="1606" type="move" name="top0315"/>
    </contour>
    <contour>
      <point x="534" y="1857" type="move" name="top"/>
    </contour>
    <component base="Z"/>
    <component base="dotaccent" xOffset="304" yOffset="314"/>
  </outline>
</glyph>
<glyph name="Zcaron" format="1">
  <advance width="1070"/>
  <unicode hex="017D"/>
  <outline>
    <component base="Z"/>
    <component base="caron" xOffset="155" yOffset="317"/>
    <contour>
      <point x="535" y="1606" type="move" name="parent_top"/>
    </contour>
    <contour>
      <point x="545" y="10" type="move" name="bottom"/>
    </contour>
    <contour>
      <point x="1050" y="1600" type="move" name="top_dd"/>
    </contour>
    <contour>
      <point x="1050" y="-407" type="move" name="bottom_dd"/>
    </contour>
    <contour>
      <point x="1050" y="1606" type="move" name="top0315"/>
    </contour>
    <contour>
      <point x="535" y="1902" type="move" name="top"/>
    </contour>
  </outline>
</glyph>
<glyph name="zcaron" format="1">
  <advance width="880"/>
  <unicode hex="017E"/>
  <outline>
    <contour>
      <point x="451" y="1292" type="move" name="parent_top"/>
    </contour>
    <contour>
      <point x="466" y="10" type="move" name="bottom"/>
    </contour>
    <contour>
      <point x="860" y="1600" type="move" name="top_dd"/>
    </contour>
    <contour>
      <point x="860" y="-407" type="move" name="bottom_dd"/>
    </contour>
    <contour>
      <point x="860" y="1292" type="move" name="top0315"/>
    </contour>
    <contour>
      <point x="451" y="1588" type="move" name="top"/>
    </contour>
    <component base="z"/>
    <component base="caron" xOffset="71" yOffset="3"/>
  </outline>
</glyph>
<glyph name="longs" format="1">
  <advance width="438"/>
  <unicode hex="017F"/>
  <outline>
    <contour>
      <point x="270" y="0" type="line"/>
      <point x="270" y="1216" type="line" smooth="yes"/>
      <point x="270" y="1365"/>
      <point x="332" y="1453"/>
      <point x="439" y="1453" type="curve" smooth="yes"/>
      <point x="477" y="1453"/>
      <point x="501" y="1448"/>
      <point x="525" y="1440" type="curve"/>
      <point x="540" y="1538" type="line"/>
      <point x="502" y="1551"/>
      <point x="463" y="1557"/>
      <point x="425" y="1557" type="curve" smooth="yes"/>
      <point x="260" y="1557"/>
      <point x="159" y="1436"/>
      <point x="159" y="1216" type="curve" smooth="yes"/>
      <point x="159" y="0" type="line"/>
    </contour>
    <contour>
      <point x="362" y="1718" type="move" name="top"/>
    </contour>
    <contour>
      <point x="211" y="10" type="move" name="bottom"/>
    </contour>
    <contour>
      <point x="418" y="1718" type="move" name="top0315"/>
    </contour>
  </outline>
</glyph>
<glyph name="bbar" format="1">
  <advance width="1042"/>
  <unicode hex="0180"/>
  <outline>
    <component base="b" xOffset="46"/>
    <component base="crossbar" xOffset="-75" yOffset="567"/>
    <contour>
      <point x="518" y="-10" type="move" name="markbottom"/>
    </contour>
    <contour>
      <point x="533" y="1612" type="move" name="top"/>
    </contour>
    <contour>
      <point x="312" y="1305" type="move" name="parenthesses.w2"/>
    </contour>
    <contour>
      <point x="1022" y="1612" type="move" name="top0315"/>
    </contour>
    <contour>
      <point x="518" y="-10" type="move" name="bottom"/>
    </contour>
  </outline>
</glyph>
<glyph name="Bhook" format="2">
  <advance width="1257"/>
  <unicode hex="0181"/>
  <outline>
    <contour>
      <point x="423" y="1349" type="line" name="hr00"/>
      <point x="423" y="1456" type="line"/>
      <point x="334" y="1456" type="line" smooth="yes"/>
      <point x="145" y="1456"/>
      <point x="41" y="1357"/>
      <point x="41" y="1172" type="curve" smooth="yes"/>
      <point x="41" y="1134"/>
      <point x="47" y="1093"/>
      <point x="57" y="1058" type="curve"/>
      <point x="149" y="1065" type="line"/>
      <point x="143" y="1085"/>
      <point x="138" y="1120"/>
      <point x="138" y="1148" type="curve" smooth="yes"/>
      <point x="138" y="1278"/>
      <point x="202" y="1349"/>
      <point x="334" y="1349" type="curve" smooth="yes"/>
    </contour>
    <contour>
      <point x="756" y="700" type="line"/>
      <point x="819" y="738" type="line"/>
      <point x="992" y="760"/>
      <point x="1100" y="895"/>
      <point x="1100" y="1075" type="curve"/>
      <point x="1100" y="1340"/>
      <point x="949" y="1456"/>
      <point x="700" y="1456" type="curve"/>
      <point x="332" y="1456" type="line"/>
      <point x="332" y="0" type="line"/>
      <point x="446" y="0" type="line"/>
      <point x="446" y="1349" type="line"/>
      <point x="700" y="1349" type="line"/>
      <point x="890" y="1349"/>
      <point x="985" y="1262"/>
      <point x="985" y="1078" type="curve"/>
      <point x="985" y="899"/>
      <point x="883" y="805"/>
      <point x="710" y="805" type="curve"/>
      <point x="416" y="805" type="line"/>
      <point x="418" y="700" type="line"/>
    </contour>
    <contour>
      <point x="748" y="0" type="line"/>
      <point x="984" y="0"/>
      <point x="1142" y="145"/>
      <point x="1142" y="411" type="curve" smooth="yes"/>
      <point x="1142" y="594"/>
      <point x="1034" y="747"/>
      <point x="867" y="767" type="curve"/>
      <point x="845" y="805" type="line"/>
      <point x="540" y="805" type="line"/>
      <point x="538" y="700" type="line"/>
      <point x="756" y="700" type="line" smooth="yes"/>
      <point x="942" y="700"/>
      <point x="1027" y="573"/>
      <point x="1027" y="409" type="curve" smooth="yes"/>
      <point x="1027" y="221"/>
      <point x="923" y="107"/>
      <point x="748" y="107" type="curve" smooth="yes"/>
      <point x="440" y="107" type="line"/>
      <point x="379" y="0" type="line"/>
    </contour>
  </outline>
</glyph>
<glyph name="Tonesix" format="1">
  <advance width="1136"/>
  <unicode hex="0184"/>
  <outline>
    <contour>
      <point x="217" y="1456" type="line"/>
      <point x="217" y="1456"/>
      <point x="100" y="1240"/>
      <point x="100" y="1240" type="curve"/>
      <point x="100" y="1240"/>
      <point x="100" y="1182"/>
      <point x="100" y="1182" type="curve"/>
      <point x="100" y="1182"/>
      <point x="217" y="967"/>
      <point x="217" y="967" type="curve"/>
      <point x="250" y="967" type="line"/>
      <point x="250" y="1456" type="line"/>
    </contour>
    <contour>
      <point x="295" y="826" type="line"/>
      <point x="295" y="719" type="line"/>
      <point x="633" y="719" type="line"/>
      <point x="840" y="719"/>
      <point x="925" y="578"/>
      <point x="925" y="417" type="curve"/>
      <point x="925" y="252"/>
      <point x="840" y="107"/>
      <point x="633" y="107" type="curve"/>
      <point x="332" y="107" type="line"/>
      <point x="332" y="1456" type="line"/>
      <point x="217" y="1456" type="line"/>
      <point x="217" y="0" type="line"/>
      <point x="633" y="0" type="line"/>
      <point x="898" y="0"/>
      <point x="1040" y="171"/>
      <point x="1040" y="415" type="curve"/>
      <point x="1040" y="660"/>
      <point x="898" y="826"/>
      <point x="633" y="826" type="curve"/>
    </contour>
  </outline>
</glyph>
<glyph name="Dtopbar" format="1">
  <advance width="1089"/>
  <unicode hex="018B"/>
  <outline>
    <contour>
      <point x="919" y="0" type="line"/>
      <point x="919" y="1456" type="line"/>
      <point x="179" y="1456" type="line"/>
      <point x="179" y="1349" type="line"/>
      <point x="805" y="1349" type="line"/>
      <point x="805" y="826" type="line"/>
      <point x="504" y="826" type="line" smooth="yes"/>
      <point x="238" y="826"/>
      <point x="97" y="660"/>
      <point x="97" y="415" type="curve" smooth="yes"/>
      <point x="97" y="171"/>
      <point x="239" y="0"/>
      <point x="504" y="0" type="curve" smooth="yes"/>
    </contour>
    <contour>
      <point x="805" y="107" type="line"/>
      <point x="504" y="107" type="line" smooth="yes"/>
      <point x="296" y="107"/>
      <point x="212" y="252"/>
      <point x="212" y="417" type="curve" smooth="yes"/>
      <point x="212" y="578"/>
      <point x="296" y="719"/>
      <point x="504" y="719" type="curve" smooth="yes"/>
      <point x="805" y="719" type="line"/>
    </contour>
  </outline>
</glyph>
<glyph name="dtopbar" format="2">
  <advance width="999"/>
  <unicode hex="018C"/>
  <outline>
    <contour>
      <point x="777" y="1536" type="line"/>
      <point x="251" y="1536" type="line"/>
      <point x="251" y="1432" type="line"/>
      <point x="777" y="1432" type="line"/>
    </contour>
    <contour>
      <point x="737" y="210" type="line"/>
      <point x="744" y="0" type="line"/>
      <point x="848" y="0" type="line"/>
      <point x="848" y="1536" type="line"/>
      <point x="737" y="1536" type="line"/>
    </contour>
    <contour>
      <point x="109" y="530" type="line"/>
      <point x="109" y="207"/>
      <point x="246" y="-20"/>
      <point x="460" y="-20" type="curve" smooth="yes"/>
      <point x="680" y="-20"/>
      <point x="795" y="156"/>
      <point x="821" y="401" type="curve"/>
      <point x="821" y="664" type="line"/>
      <point x="790" y="926"/>
      <point x="678" y="1102"/>
      <point x="462" y="1102" type="curve" smooth="yes"/>
      <point x="245" y="1102"/>
      <point x="109" y="886"/>
      <point x="109" y="551" type="curve" smooth="yes"/>
    </contour>
    <contour>
      <point x="221" y="551" type="line"/>
      <point x="221" y="801"/>
      <point x="302" y="996"/>
      <point x="484" y="996" type="curve" smooth="yes"/>
      <point x="670" y="996"/>
      <point x="741" y="824"/>
      <point x="766" y="684" type="curve"/>
      <point x="766" y="375" type="line"/>
      <point x="734" y="218"/>
      <point x="652" y="87"/>
      <point x="482" y="87" type="curve" smooth="yes"/>
      <point x="302" y="87"/>
      <point x="221" y="279"/>
      <point x="221" y="530" type="curve" smooth="yes"/>
    </contour>
  </outline>
</glyph>
<glyph name="Eturn" format="1">
  <advance width="1019"/>
  <unicode hex="018E"/>
  <outline>
    <contour>
      <point x="82" y="1349" type="line"/>
      <point x="762" y="1349" type="line"/>
      <point x="762" y="1456" type="line"/>
      <point x="82" y="1456" type="line"/>
    </contour>
    <contour>
      <point x="731" y="0" type="line"/>
      <point x="846" y="0" type="line"/>
      <point x="846" y="1456" type="line"/>
      <point x="731" y="1456" type="line"/>
    </contour>
    <contour>
      <point x="168" y="680" type="line"/>
      <point x="762" y="680" type="line"/>
      <point x="762" y="786" type="line"/>
      <point x="168" y="786" type="line"/>
    </contour>
    <contour>
      <point x="87" y="0" type="line"/>
      <point x="762" y="0" type="line"/>
      <point x="762" y="107" type="line"/>
      <point x="87" y="107" type="line"/>
    </contour>
  </outline>
</glyph>
<glyph name="Schwa" format="1">
  <advance width="1241"/>
  <unicode hex="018F"/>
  <outline>
    <contour>
      <point x="625" y="-20" type="curve" smooth="yes"/>
      <point x="904" y="-20"/>
      <point x="1120" y="263"/>
      <point x="1120" y="672" type="curve" smooth="yes"/>
      <point x="1120" y="804" type="line" smooth="yes"/>
      <point x="1120" y="1198"/>
      <point x="932" y="1476"/>
      <point x="588" y="1476" type="curve" smooth="yes"/>
      <point x="384" y="1476"/>
      <point x="274" y="1400"/>
      <point x="217" y="1344" type="curve"/>
      <point x="251" y="1250" type="line"/>
      <point x="327" y="1313"/>
      <point x="434" y="1368"/>
      <point x="588" y="1368" type="curve" smooth="yes"/>
      <point x="883" y="1368"/>
      <point x="1006" y="1116"/>
      <point x="1006" y="804" type="curve" smooth="yes"/>
      <point x="1006" y="672" type="line" smooth="yes"/>
      <point x="1006" y="349"/>
      <point x="866" y="88"/>
      <point x="625" y="88" type="curve" smooth="yes"/>
      <point x="355" y="88"/>
      <point x="235" y="307"/>
      <point x="235" y="584" type="curve" smooth="yes"/>
      <point x="235" y="637" type="line"/>
      <point x="1049" y="637" type="line"/>
      <point x="1049" y="740" type="line"/>
      <point x="120" y="740" type="line"/>
      <point x="120" y="616" type="line" smooth="yes"/>
      <point x="120" y="226"/>
      <point x="304" y="-20"/>
    </contour>
    <contour>
      <point x="603" y="1617" type="move" name="top"/>
    </contour>
    <contour>
      <point x="620" y="-1" type="move" name="bottom"/>
    </contour>
    <contour>
      <point x="1221" y="1617" type="move" name="top0315"/>
    </contour>
  </outline>
</glyph>
<glyph name="Fhook" format="2">
  <advance width="1035"/>
  <unicode hex="0191"/>
  <outline>
    <contour>
      <point x="203" y="982" type="line" name="hr00"/>
      <point x="203" y="-89" type="line" smooth="yes"/>
      <point x="203" y="-244"/>
      <point x="152" y="-327"/>
      <point x="58" y="-327" type="curve" smooth="yes"/>
      <point x="30" y="-327"/>
      <point x="-5" y="-319"/>
      <point x="-24" y="-311" type="curve"/>
      <point x="-36" y="-418" type="line"/>
      <point x="-3" y="-431"/>
      <point x="24" y="-437"/>
      <point x="58" y="-437" type="curve" smooth="yes"/>
      <point x="220" y="-437"/>
      <point x="318" y="-314"/>
      <point x="318" y="-89" type="curve" smooth="yes"/>
      <point x="318" y="982" type="line"/>
    </contour>
    <contour>
      <point x="318" y="1456" type="line"/>
      <point x="203" y="1456" type="line"/>
      <point x="203" y="0" type="line"/>
      <point x="318" y="0" type="line"/>
    </contour>
    <contour>
      <point x="877" y="787" type="line"/>
      <point x="284" y="787" type="line"/>
      <point x="284" y="679" type="line"/>
      <point x="877" y="679" type="line"/>
    </contour>
    <contour>
      <point x="961" y="1456" type="line"/>
      <point x="284" y="1456" type="line"/>
      <point x="284" y="1349" type="line"/>
      <point x="961" y="1349" type="line"/>
    </contour>
  </outline>
</glyph>
<glyph name="Iota1" format="2">
  <advance width="577"/>
  <unicode hex="0196"/>
  <outline>
    <contour>
      <point x="270" y="1536" type="line"/>
      <point x="159" y="1536" type="line"/>
      <point x="159" y="321" type="line" smooth="yes"/>
      <point x="159" y="101"/>
      <point x="260" y="-20"/>
      <point x="425" y="-20" type="curve" smooth="yes"/>
      <point x="463" y="-20"/>
      <point x="502" y="-14"/>
      <point x="540" y="-1" type="curve"/>
      <point x="525" y="97" type="line"/>
      <point x="501" y="89"/>
      <point x="477" y="84"/>
      <point x="439" y="84" type="curve" smooth="yes"/>
      <point x="332" y="84"/>
      <point x="270" y="172"/>
      <point x="270" y="321" type="curve" smooth="yes"/>
    </contour>
  </outline>
</glyph>
<glyph name="Iota1" format="1">
  <advance width="577"/>
  <unicode hex="0196"/>
  <outline>
    <contour>
      <point x="270" y="1536" type="line"/>
      <point x="159" y="1536" type="line"/>
      <point x="159" y="321" type="line" smooth="yes"/>
      <point x="159" y="101"/>
      <point x="260" y="-20"/>
      <point x="425" y="-20" type="curve" smooth="yes"/>
      <point x="463" y="-20"/>
      <point x="502" y="-14"/>
      <point x="540" y="-1" type="curve"/>
      <point x="525" y="97" type="line"/>
      <point x="501" y="89"/>
      <point x="477" y="84"/>
      <point x="439" y="84" type="curve" smooth="yes"/>
      <point x="332" y="84"/>
      <point x="270" y="172"/>
      <point x="270" y="321" type="curve" smooth="yes"/>
    </contour>
  </outline>
</glyph>
<glyph name="Ibar" format="1">
  <advance width="591"/>
  <unicode hex="0197"/>
  <outline>
    <contour>
      <point x="296" y="1612" type="move" name="top"/>
    </contour>
    <contour>
      <point x="571" y="1612" type="move" name="top0315"/>
    </contour>
    <contour>
      <point x="296" y="5" type="move" name="bottom"/>
    </contour>
    <component base="I" xOffset="43"/>
    <component base="crossbar" xOffset="-91"/>
  </outline>
</glyph>
